<svg width="39" height="50" viewBox="0 0 39 50" fill="none" xmlns="http://www.w3.org/2000/svg">
<path d="M28.7176 39.22V41.9859C28.7176 43.5251 28.7176 45.0629 28.7176 46.6021C28.7176 48.7235 27.4439 50 25.3419 50H3.33937C1.30508 50 0.00512537 48.6987 0.000976562 46.6685C0.000976562 45.1298 0.000976562 43.5905 0.000976562 42.0509C0.000976562 41.1727 0.220863 40.9445 1.10732 40.9445H27.112V39.285C27.0761 39.2643 27.0484 39.2352 27.0194 39.2338C25.8231 39.1633 25.7886 39.1329 25.5922 37.9367C25.5724 37.8524 25.5626 37.766 25.5631 37.6794C25.6364 36.7114 24.9781 36.3905 24.2162 36.1873C24.0732 36.1732 23.9303 36.2154 23.8179 36.3048C23.4154 36.6021 23.0337 36.9271 22.6355 37.23C22.186 37.5729 21.8306 37.5646 21.4378 37.1788C20.7339 36.4873 20.0452 35.7876 19.3496 35.0906C18.9914 34.731 18.9486 34.3452 19.25 33.9289C19.4244 33.6507 19.616 33.3837 19.824 33.1296C20.2568 32.6704 20.272 32.2445 19.9982 31.6637C19.7783 31.1976 19.5335 31.0095 19.0481 31.0082C18.686 30.9956 18.3251 30.9581 17.9681 30.8961C17.4066 30.8187 17.1604 30.567 17.1535 30.0138C17.1411 29.0112 17.1535 28.0086 17.1535 27.006C17.1535 26.5122 17.4163 26.2398 17.8851 26.1499C18.1029 26.0959 18.325 26.0608 18.5489 26.0448C19.3787 26.0448 19.9692 25.7309 20.0881 24.8389C20.1258 24.6243 20.0938 24.4034 19.9968 24.2083C19.7479 23.8169 19.4271 23.4726 19.1449 23.1019C18.7785 22.6207 18.7895 22.2915 19.203 21.8683C19.8807 21.1769 20.5643 20.4923 21.2539 19.8147C21.6688 19.3998 21.9564 19.3846 22.4474 19.7165C22.8471 19.9931 23.2218 20.3001 23.6395 20.5463C23.8391 20.6339 24.0614 20.6557 24.2742 20.6085C25.1579 20.455 25.4345 19.852 25.3806 19.0264C25.3792 19.0094 25.3792 18.9923 25.3806 18.9752C25.5078 17.6933 25.6129 17.5923 26.9018 17.5923C27.6776 17.5923 28.4548 17.584 29.2307 17.5923C29.8641 17.602 30.0895 17.8053 30.1987 18.4331C30.2584 18.6679 30.2959 18.9077 30.3107 19.1495C30.3107 19.8728 30.5873 20.307 31.3327 20.5075C31.7075 20.6099 31.9523 20.6458 32.2455 20.3693C32.5776 20.0669 32.9271 19.7843 33.2924 19.5229C33.6616 19.2463 34.0391 19.2587 34.3683 19.5796C35.1058 20.3042 35.8388 21.0367 36.5671 21.7771C36.8728 22.0882 36.8977 22.4478 36.6515 22.8143C36.4947 23.083 36.3147 23.3375 36.1135 23.5749C35.6226 24.0824 35.5465 24.5803 35.8992 25.2261C36.0859 25.5691 36.2297 25.7696 36.6363 25.7793C37.0816 25.7931 37.5269 25.8761 37.9708 25.9314C38.459 25.9923 38.7121 26.2744 38.7148 26.7612C38.7204 27.7799 38.7204 28.8001 38.7148 29.8216C38.7287 30.0144 38.668 30.2051 38.5452 30.3544C38.4224 30.5037 38.247 30.6001 38.0552 30.6237C37.5656 30.7233 37.0747 30.8298 36.5796 30.8851C36.2615 30.921 36.1523 31.0842 35.9932 31.3456C35.5604 32.0592 35.7567 32.5612 36.2698 33.1517C37.278 34.3258 37.2379 34.3563 36.1495 35.4626C35.6502 35.966 35.1579 36.4763 34.6532 36.9714C34.2175 37.3987 33.9091 37.4194 33.4085 37.0834C33.1999 36.9603 33.0032 36.8182 32.8208 36.6588C32.2814 36.1264 31.7296 36.0061 31.0396 36.4154C30.763 36.5814 30.5763 36.7128 30.5583 37.0488C30.5362 37.4277 30.4753 37.8039 30.438 38.1828C30.3578 39.0126 30.1434 39.2145 29.2874 39.2186L28.7176 39.22ZM33.7888 35.428L35.1123 34.1668C34.8053 33.774 34.4941 33.3605 34.1664 32.9609C33.8898 32.6262 33.8898 32.2943 34.0613 31.9057C34.3196 31.3612 34.5445 30.8014 34.7348 30.2296C34.8841 29.7497 35.1648 29.5187 35.6489 29.4565C36.155 29.3915 36.6556 29.2864 37.1355 29.2021V27.4042C36.5823 27.3365 36.072 27.2659 35.5576 27.2162C35.0971 27.1761 34.8661 26.9257 34.714 26.5053C34.5246 25.9514 34.2983 25.4108 34.0364 24.8873C33.8192 24.4641 33.8262 24.1101 34.1055 23.7339C34.4194 23.3094 34.714 22.8696 34.9505 22.5335L33.7363 21.1713C33.3089 21.5143 32.9065 21.8324 32.5027 22.1629C32.1556 22.4533 31.8112 22.4658 31.406 22.268C30.8857 22.0009 30.344 21.7775 29.7866 21.6001C29.2998 21.4618 29.0675 21.1769 29.0011 20.6984C28.943 20.2835 28.8794 19.8769 28.7881 19.4745C28.7605 19.3569 28.6291 19.1799 28.5378 19.1758C28.0123 19.1467 27.4826 19.1606 26.9461 19.1606C26.8797 19.729 26.8078 20.2227 26.7663 20.7205C26.7248 21.2184 26.4676 21.4797 26.0001 21.6346C25.4621 21.8144 24.9387 22.0354 24.4347 22.2957C24.0198 22.5114 23.6602 22.51 23.2841 22.2251C22.8692 21.9057 22.4253 21.6097 22.0795 21.365L20.756 22.6165C21.0492 22.9871 21.3369 23.3771 21.6536 23.7408C22.0062 24.1474 22.0325 24.5374 21.7767 25.0173C21.5179 25.5018 21.3093 26.0115 21.1543 26.5385C21.016 27.0225 20.7395 27.2673 20.2637 27.3392C19.7576 27.4139 19.2542 27.5135 18.7425 27.6034V29.3915C19.2694 29.4524 19.7783 29.5173 20.29 29.5685C20.4891 29.5751 20.6806 29.6461 20.836 29.7707C20.9913 29.8954 21.102 30.0671 21.1516 30.26C21.3499 30.8277 21.5846 31.382 21.8541 31.9195C22.0615 32.3344 22.0602 32.6995 21.778 33.0757C21.4683 33.4905 21.1806 33.9179 20.9123 34.2982L22.1805 35.5912C22.5677 35.287 22.9784 34.9744 23.3753 34.6453C23.7211 34.359 24.0668 34.33 24.4734 34.525C25.0331 34.7894 25.6064 35.0239 26.191 35.2275C26.5782 35.3658 26.7967 35.5829 26.8576 35.9895C26.9405 36.533 27.0456 37.0737 27.1438 37.6255H28.9416C28.9983 37.0917 29.0606 36.5814 29.1076 36.0683C29.1505 35.6009 29.3842 35.3312 29.8378 35.1736C30.4042 34.9763 30.9584 34.7454 31.4973 34.4821C31.8831 34.2926 32.2109 34.2899 32.5566 34.5471C32.9867 34.8679 33.4279 35.1777 33.7888 35.428ZM1.55678 42.546C1.55678 43.987 1.54986 45.399 1.55678 46.8123C1.55678 47.7804 2.21229 48.4387 3.18725 48.4387C10.6385 48.4442 18.0898 48.4442 25.541 48.4387C26.5174 48.4387 27.1411 47.7901 27.1507 46.7957C27.1618 45.482 27.1507 44.1682 27.1507 42.8558C27.1452 42.7519 27.1337 42.6485 27.1162 42.546H1.55678Z" fill="black"/>
<path d="M27.1539 7.46369H1.55719V37.5619C1.55719 38.3916 1.30549 38.7844 0.770295 38.7789C0.2351 38.7733 0 38.3944 0 37.5494C0 26.19 0 14.8297 0 3.46839C0 1.264 1.26262 0 3.46563 0C10.7989 0 18.1321 0 25.4654 0C27.0364 0 28.2312 0.89338 28.6115 2.33855C28.6813 2.6236 28.7148 2.91633 28.7111 3.20979C28.7111 5.88991 28.7111 8.57004 28.7014 11.2502C28.7014 11.4922 28.6392 11.8172 28.4788 11.9513C28.2536 12.1158 27.9739 12.1876 27.6974 12.1518C27.3116 12.091 27.1594 11.7453 27.1567 11.3677C27.1484 10.2959 27.1567 9.22416 27.1567 8.15239L27.1539 7.46369ZM27.0931 5.84151C27.1153 5.79763 27.132 5.75118 27.1428 5.70322C27.1428 4.94399 27.1539 4.18199 27.1525 3.42276C27.1525 2.1394 26.5745 1.56824 25.2828 1.56824H3.39233C3.25413 1.56128 3.11566 1.56128 2.97745 1.56824C2.28599 1.64154 1.6443 2.1477 1.59452 2.83502C1.52537 3.8252 1.57654 4.82367 1.57654 5.84151H27.0931Z" fill="black"/>
<path d="M16.326 9.29883C16.9303 9.285 17.2636 9.83126 17.0175 10.4757C16.4643 11.8905 15.9014 13.2969 15.3427 14.7075C14.4429 16.9838 13.5417 19.2596 12.6391 21.535C12.6018 21.6318 12.5672 21.73 12.5243 21.8241C12.303 22.3095 11.9131 22.4948 11.4885 22.3205C11.0639 22.1463 10.8911 21.7383 11.0819 21.2502C11.6254 19.852 12.1883 18.4594 12.7414 17.0654C13.6754 14.7107 14.6084 12.3547 15.5405 9.99722C15.676 9.62106 15.8641 9.31681 16.326 9.29883Z" fill="black"/>
<path d="M22.0271 15.8581C21.1157 14.9841 20.3205 14.2207 19.5253 13.4546C19.3982 13.3378 19.2781 13.2136 19.1658 13.0825C18.8712 12.7271 18.8726 12.3039 19.1658 12.0052C19.459 11.7065 19.9222 11.6678 20.2721 12.0052C20.7506 12.4533 21.2028 12.9318 21.6634 13.3979C22.2594 13.9994 22.8596 14.5969 23.4446 15.2081C23.8595 15.6424 23.8595 16.0462 23.4446 16.479C22.4194 17.5301 21.3863 18.5733 20.3454 19.6086C19.9458 20.0069 19.4922 20.0152 19.1616 19.6653C18.8532 19.3376 18.8657 18.8909 19.2474 18.5175C20.1325 17.6462 21.0397 16.7971 22.0271 15.8581Z" fill="black"/>
<path d="M6.73073 15.8402C7.65592 16.7349 8.48844 17.537 9.31682 18.3419C9.43366 18.4447 9.53767 18.5613 9.6266 18.689C9.84372 19.0375 9.83127 19.3805 9.53256 19.6805C9.23385 19.9806 8.84109 20.0346 8.55206 19.7483C7.39039 18.6143 6.24902 17.4619 5.12792 16.291C4.85133 15.9937 4.89973 15.5995 5.18876 15.3036C6.27298 14.1899 7.36596 13.0835 8.4677 11.9845C8.53658 11.9118 8.61956 11.8539 8.71158 11.8143C8.8036 11.7747 8.90272 11.7543 9.00289 11.7543C9.10307 11.7543 9.20219 11.7747 9.29421 11.8143C9.38623 11.8539 9.46921 11.9118 9.53809 11.9845C9.61263 12.0573 9.67172 12.1444 9.71181 12.2406C9.75189 12.3368 9.77216 12.4401 9.77138 12.5443C9.77061 12.6485 9.74881 12.7515 9.7073 12.8471C9.66579 12.9426 9.60541 13.0289 9.52979 13.1006C8.82726 13.8377 8.10399 14.5568 7.38348 15.2773C7.21338 15.4502 7.01838 15.5954 6.73073 15.8402Z" fill="black"/>
<path d="M33.7888 35.428C33.4279 35.1708 32.9866 34.8748 32.5592 34.5498C32.2135 34.2926 31.8858 34.2954 31.4999 34.4849C30.961 34.7482 30.4069 34.9791 29.8404 35.1763C29.3923 35.334 29.1489 35.6036 29.1102 36.0711C29.0632 36.5841 29.001 37.0944 28.9443 37.6283H27.1464C27.0483 37.0751 26.9432 36.5357 26.8602 35.9923C26.7993 35.5857 26.5836 35.3644 26.1936 35.2303C25.609 35.0267 25.0357 34.7922 24.476 34.5277C24.0611 34.3327 23.7237 34.3618 23.3779 34.648C22.981 34.9772 22.5703 35.2897 22.1831 35.594L20.9149 34.3009C21.1832 33.9206 21.4681 33.4919 21.7807 33.0784C22.0572 32.7022 22.0642 32.3427 21.8567 31.9223C21.5872 31.3847 21.3525 30.8304 21.1542 30.2627C21.1047 30.0698 20.9939 29.8982 20.8386 29.7735C20.6833 29.6488 20.4917 29.5779 20.2926 29.5713C19.7809 29.5201 19.272 29.4551 18.7451 29.3943V27.6061C19.261 27.5162 19.7643 27.4167 20.2663 27.342C20.7476 27.2701 21.0173 27.0253 21.157 26.5413C21.312 26.0143 21.5205 25.5046 21.7793 25.0201C22.0351 24.5402 22.0088 24.1502 21.6562 23.7436C21.3395 23.3799 21.0519 22.9899 20.7587 22.6193L22.0821 21.3677C22.4279 21.6125 22.8663 21.9084 23.2867 22.2279C23.6628 22.5128 24.0169 22.5142 24.4373 22.2984C24.9413 22.0382 25.4647 21.8172 26.0028 21.6374C26.4702 21.4825 26.7288 21.2225 26.7689 20.7233C26.809 20.224 26.8823 19.7317 26.9487 19.1633C27.4853 19.1633 28.0149 19.1495 28.5404 19.1785C28.6317 19.1785 28.7631 19.3597 28.7908 19.4772C28.882 19.8797 28.9456 20.2904 29.0037 20.7011C29.0701 21.1796 29.3024 21.459 29.7892 21.6028C30.3466 21.7802 30.8883 22.0037 31.4086 22.2708C31.8152 22.4685 32.1582 22.4561 32.5053 22.1657C32.9022 21.8352 33.3116 21.5171 33.7389 21.1741L34.9531 22.5363C34.7166 22.8723 34.4221 23.3121 34.1081 23.7367C33.8316 24.1128 33.8219 24.4669 34.039 24.8901C34.3009 25.4136 34.5273 25.9542 34.7166 26.5081C34.8646 26.923 35.0997 27.1788 35.5602 27.2189C36.0747 27.2632 36.5864 27.3392 37.1381 27.407V29.2048C36.6583 29.2892 36.1576 29.3943 35.6515 29.4593C35.1675 29.5215 34.8867 29.7524 34.7374 30.2323C34.5472 30.8042 34.3222 31.3639 34.0639 31.9084C33.8855 32.297 33.8938 32.629 34.169 32.9636C34.4967 33.3633 34.8079 33.7768 35.1149 34.1695L33.7888 35.428ZM27.9292 24.2636C26.862 24.3113 25.8544 24.7689 25.1162 25.5409C24.3779 26.313 23.9659 27.34 23.9659 28.4082C23.9659 29.4765 24.3779 30.5035 25.1162 31.2756C25.8544 32.0476 26.862 32.5051 27.9292 32.5529C30.1861 32.5681 32.078 30.6735 32.078 28.4041C32.0782 27.8596 31.9709 27.3204 31.7624 26.8174C31.5539 26.3145 31.2481 25.8576 30.8627 25.473C30.4773 25.0883 30.0198 24.7835 29.5164 24.576C29.0131 24.3685 28.4737 24.2623 27.9292 24.2636Z" fill="#FA8A00"/>
<path d="M27.0931 5.84151L1.57974 5.8415C1.57974 4.82366 1.52857 3.82518 1.59772 2.835C1.64612 2.14353 2.28089 1.64152 2.98066 1.56823C3.11886 1.56127 3.25733 1.56127 3.39554 1.56823L25.2828 1.56824C26.5745 1.56824 27.1511 2.1394 27.1525 3.42276C27.1525 4.18338 27.1525 4.94399 27.1428 5.70322C27.132 5.75118 27.1153 5.79763 27.0931 5.84151ZM16.326 4.47654C16.9801 4.47654 17.6356 4.48899 18.2911 4.47654C18.7724 4.46409 19.0559 4.18752 19.0808 3.75881C19.0928 3.6547 19.0824 3.54922 19.0505 3.44942C19.0185 3.34962 18.9656 3.2578 18.8953 3.18006C18.825 3.10232 18.739 3.04045 18.6429 2.9986C18.5468 2.95674 18.4429 2.93586 18.3381 2.93733C17.0105 2.91106 15.6829 2.91244 14.3553 2.93733C14.2507 2.9363 14.147 2.95657 14.0505 2.99693C13.954 3.03728 13.8667 3.09686 13.794 3.17204C13.7213 3.24722 13.6646 3.33642 13.6275 3.43421C13.5904 3.532 13.5736 3.63633 13.5781 3.74083C13.5947 4.16539 13.921 4.47101 14.4078 4.48069C15.0523 4.49176 15.6898 4.47654 16.326 4.47654Z" fill="#FA8A00"/>
<path d="M27.9292 24.2636C28.4737 24.2623 29.0131 24.3685 29.5164 24.576C30.0196 24.7833 30.4767 25.0873 30.862 25.4715C31.2474 25.8557 31.5532 26.3121 31.762 26.8146C31.9708 27.3171 32.0784 27.8558 32.0788 28.3999C32.0788 30.6735 30.1828 32.5681 27.93 32.5487C26.8628 32.501 25.8552 32.0434 25.117 31.2714C24.3787 30.4994 23.9667 29.4723 23.9667 28.4041C23.9667 27.3359 24.3787 26.3088 25.117 25.5368C25.8552 24.7647 26.8628 24.3072 27.93 24.2594L27.9292 24.2636ZM28.7182 30.791C29.8426 30.5338 30.6447 29.3237 30.5078 28.1717C30.3404 26.7542 29.2327 25.7848 27.8276 25.8208C27.2009 25.8493 26.606 26.1053 26.1544 26.5409C25.7028 26.9764 25.4255 27.5616 25.3743 28.187C25.2899 29.415 26.0879 30.5974 27.1569 30.7772C27.1569 30.5006 27.1569 30.224 27.1569 29.9474C27.1569 29.256 27.1403 28.5645 27.1693 27.873C27.1698 27.7687 27.1913 27.6654 27.2325 27.5695C27.2737 27.4736 27.3337 27.3869 27.4091 27.3147C27.4844 27.2424 27.5735 27.1861 27.6711 27.1489C27.7686 27.1118 27.8727 27.0947 27.977 27.0986C28.3836 27.1193 28.6781 27.4319 28.7099 27.891C28.7238 28.0971 28.7169 28.3059 28.7169 28.5133L28.7182 30.791Z" fill="black"/>
<path d="M14.3979 44.9965C15.5042 44.9965 16.6106 44.9965 17.7086 44.9965C18.3406 44.9965 18.6573 45.2731 18.6573 45.7709C18.6573 46.2688 18.3227 46.5537 17.7072 46.5551C15.4826 46.5624 13.2579 46.5624 11.0332 46.5551C10.3998 46.5551 10.0347 46.2411 10.0513 45.7433C10.0665 45.2675 10.4081 44.9979 11.0346 44.9937C12.1548 44.9882 13.2832 44.9965 14.3979 44.9965Z" fill="black"/>
<path d="M16.326 4.47654C15.6871 4.47654 15.0493 4.48762 14.4103 4.47656C13.9208 4.46688 13.5944 4.16125 13.5806 3.73669C13.5761 3.63219 13.5929 3.52786 13.63 3.43007C13.6671 3.33228 13.7238 3.24308 13.7965 3.1679C13.8692 3.09272 13.9565 3.03314 14.053 2.99279C14.1495 2.95244 14.2532 2.93216 14.3578 2.9332C15.6854 2.91107 17.013 2.90969 18.3406 2.9332C18.4454 2.93172 18.5493 2.95261 18.6454 2.99446C18.7415 3.03631 18.8275 3.09818 18.8978 3.17592C18.9681 3.25366 19.021 3.34548 19.053 3.44528C19.085 3.54508 19.0953 3.65056 19.0833 3.75467C19.0584 4.18338 18.7749 4.45996 18.2936 4.4724C17.6381 4.49315 16.9829 4.47654 16.326 4.47654Z" fill="black"/>
<path d="M28.7182 30.791L28.7178 28.5175C28.7178 28.3101 28.7178 28.1026 28.7109 27.8952C28.6791 27.436 28.3845 27.1235 27.9779 27.1028C27.8736 27.0989 27.7696 27.116 27.672 27.1531C27.5745 27.1902 27.4854 27.2466 27.41 27.3188C27.3347 27.3911 27.2746 27.4777 27.2334 27.5737C27.1923 27.6696 27.1708 27.7728 27.1703 27.8772C27.1413 28.5687 27.1592 29.2601 27.1579 29.9516C27.1579 30.2282 27.1579 30.5048 27.1579 30.7814C26.0889 30.6016 25.2909 29.4192 25.3753 28.1911C25.4264 27.5658 25.7038 26.9806 26.1554 26.545C26.6069 26.1095 27.2018 25.8535 27.8286 25.8249C29.2336 25.7848 30.3414 26.7543 30.5087 28.1759C30.6442 29.3238 29.8426 30.5338 28.7182 30.791Z" fill="white"/>
</svg>
