<svg width="51" height="50" viewBox="0 0 51 50" fill="none" xmlns="http://www.w3.org/2000/svg">
<path d="M1.67353 31.6413H48.4322V7.85298C48.4322 6.89032 48.2027 6.66497 47.2303 6.66357C46.7948 6.66357 46.3594 6.6747 45.9254 6.66357C45.3856 6.64271 45.074 6.3144 45.0907 5.80942C45.1018 5.33087 45.4079 5.02065 45.9254 5.00673C46.5333 4.99143 47.144 4.98169 47.7519 5.00673C48.3651 5.04441 48.943 5.30618 49.3757 5.74224C49.8085 6.1783 50.0658 6.75822 50.0988 7.37166C50.1085 7.54555 50.0988 7.71944 50.0988 7.89194V37.1057C50.0988 39.0157 49.125 39.9909 47.2122 39.9909H2.90885C0.968692 39.9909 -0.000926755 39.0171 6.64658e-07 37.0695V7.85577C6.64658e-07 5.97635 0.982139 4.99143 2.85182 4.99004C3.30533 4.99004 3.75744 4.97753 4.20956 4.997C4.71872 5.02065 5.0192 5.34757 5.01502 5.83168C5.01085 6.3158 4.70758 6.63157 4.19286 6.65104C3.67815 6.67052 3.1843 6.65104 2.68071 6.65104C1.95732 6.65939 1.67214 6.9404 1.67075 7.66518C1.67075 10.3046 1.67075 12.9431 1.67075 15.5807V31.6246L1.67353 31.6413ZM1.67353 33.3482V37.0319C1.67353 38.1337 1.86829 38.3257 2.98119 38.3257H47.1148C47.2372 38.3257 47.3582 38.3257 47.4807 38.3257C48.1317 38.3076 48.4252 38.0183 48.4294 37.3519C48.4378 36.0999 48.4294 34.8479 48.4294 33.6042C48.424 33.5174 48.4133 33.431 48.3974 33.3454L1.67353 33.3482Z" fill="black"/>
<path d="M41.7506 8.36208H8.351V8.97279C8.351 15.5686 8.351 22.1635 8.351 28.7574C8.351 29.6311 8.10755 29.9942 7.52327 29.9997C6.939 30.0053 6.68164 29.6325 6.68164 28.77V2.83373C6.68164 0.991875 7.67073 0 9.50981 0H40.6071C42.4156 0 43.42 1.00022 43.42 2.79895C43.42 11.4954 43.42 20.1904 43.42 28.884C43.42 29.6575 43.1557 30.0053 42.5784 29.9969C42.3763 30.007 42.1782 29.9383 42.0259 29.8051C41.8735 29.672 41.7788 29.4849 41.7618 29.2833C41.7469 29.0926 41.7432 28.9012 41.7506 28.7101V8.36208ZM41.7506 6.64959V2.92555C41.7506 1.88499 41.5406 1.67353 40.507 1.67353H9.56963C9.41332 1.66633 9.2567 1.66958 9.10082 1.68326C8.66679 1.7403 8.37326 1.99487 8.36491 2.42752C8.34265 3.82699 8.35656 5.22786 8.35656 6.64959H41.7506Z" fill="black"/>
<path d="M19.7209 44.971H30.4326C30.2183 44.6859 30.0152 44.4452 29.8455 44.1837C29.5673 43.7468 29.2765 43.31 29.0373 42.851C28.798 42.3919 28.9566 41.9022 29.3711 41.6921C29.7857 41.4821 30.2642 41.6254 30.5077 42.1095C31.0044 43.0891 31.6916 43.9598 32.529 44.6705C32.7698 44.8482 33.0536 44.9587 33.3512 44.9905C33.8297 45.0587 34.325 44.9905 34.8007 45.0865C35.3492 45.2042 35.8409 45.5062 36.1938 45.9424C36.5466 46.3785 36.7394 46.9224 36.74 47.4834C36.7497 47.9856 36.74 48.4892 36.74 48.9928C36.7316 49.7023 36.4353 49.9986 35.7161 50C33.1944 50 30.6723 50 28.1497 50H14.5848C13.5957 50 13.3634 49.7649 13.362 48.7688C13.362 48.3181 13.3495 47.866 13.362 47.4152C13.3874 46.7749 13.6565 46.1684 14.1141 45.7198C14.5718 45.2711 15.1836 45.0143 15.8243 45.0016C15.8414 44.9995 15.8587 44.9995 15.8758 45.0016C17.0527 45.2548 17.8234 44.6372 18.4591 43.776C18.8305 43.2752 19.1853 42.7605 19.5066 42.2263C19.8405 41.6699 20.2731 41.4612 20.7322 41.7033C21.1913 41.9453 21.3054 42.4364 20.9757 43.0054C20.6001 43.6564 20.1646 44.2838 19.7209 44.971ZM35.0442 48.3098C35.1499 46.8463 34.983 46.6613 33.6016 46.6613H16.2806C16.1234 46.6613 15.9662 46.6613 15.8118 46.6613C15.3736 46.7002 15.0995 46.9478 15.0439 47.3763C15.025 47.6848 15.025 47.9942 15.0439 48.3028L35.0442 48.3098Z" fill="black"/>
<path d="M28.4109 12.5021C28.3595 12.6843 28.315 12.8679 28.2551 13.0488L23.4502 27.4317C23.4168 27.5304 23.3876 27.6306 23.3486 27.7266C23.1469 28.2302 22.7365 28.4416 22.2788 28.2831C21.8212 28.1245 21.6028 27.7127 21.7697 27.198C22.1689 25.9613 22.5849 24.7315 22.9967 23.499C24.2088 19.87 25.4219 16.241 26.6359 12.612C26.6907 12.4117 26.7697 12.2188 26.871 12.0374C27.0935 11.6883 27.4608 11.5408 27.8169 11.7189C28.0952 11.858 28.2732 12.1626 28.4972 12.3936L28.4109 12.5021Z" fill="black"/>
<path d="M14.6671 19.9975C16.0583 21.1494 17.3868 22.2525 18.7139 23.3668C18.9092 23.508 19.0699 23.6916 19.1841 23.9038C19.3455 24.278 19.2119 24.6258 18.8836 24.8665C18.5261 25.128 18.1672 25.0737 17.8347 24.7983L14.5517 22.0703C14.0189 21.6265 13.4805 21.1869 12.9519 20.7376C12.3787 20.2507 12.3773 19.7415 12.9519 19.2602C14.5359 17.9349 16.1227 16.6133 17.7123 15.2955C18.1895 14.899 18.6778 14.9004 19.0033 15.2802C19.3288 15.6599 19.262 16.1691 18.7668 16.5837C17.423 17.7077 16.075 18.8262 14.6671 19.9975Z" fill="black"/>
<path d="M35.4209 19.9892C34.251 19.0154 33.1089 18.0583 31.9654 17.1054C31.7122 16.8939 31.4493 16.6881 31.2058 16.471C30.8344 16.1344 30.7885 15.6683 31.0764 15.3108C31.1415 15.2224 31.2239 15.1482 31.3188 15.0929C31.4136 15.0376 31.5188 15.0024 31.6278 14.9893C31.7368 14.9763 31.8473 14.9857 31.9525 15.0171C32.0577 15.0485 32.1554 15.1011 32.2394 15.1717C33.9292 16.5628 35.6092 17.9637 37.2795 19.3743C37.7093 19.7388 37.6899 20.2688 37.2475 20.643C35.5902 22.0425 33.9208 23.4304 32.2394 24.8067C32.1558 24.8841 32.0565 24.9427 31.9483 24.9785C31.84 25.0143 31.7254 25.0264 31.6121 25.014C31.4988 25.0016 31.3895 24.9649 31.2915 24.9066C31.1936 24.8483 31.1093 24.7696 31.0444 24.6759C30.7551 24.2989 30.8177 23.8412 31.235 23.4865C32.4996 22.4265 33.7697 21.3748 35.037 20.3189C35.158 20.2271 35.2693 20.1227 35.4209 19.9892Z" fill="black"/>
<path d="M1.67312 33.3481H48.4012C48.4171 33.4337 48.4278 33.5201 48.4332 33.6069C48.4332 34.8589 48.4415 36.1109 48.4332 37.3546C48.4332 38.0182 48.1355 38.3075 47.4844 38.3284C47.362 38.3284 47.241 38.3284 47.1186 38.3284H2.97661C1.8637 38.3284 1.66895 38.1364 1.66895 37.0346L1.67312 33.3481ZM25.0733 36.659C25.6298 36.659 26.1862 36.659 26.7427 36.659C27.2991 36.659 27.6219 36.3321 27.6246 35.8438C27.6274 35.3556 27.2866 35.0092 26.751 35.0092C25.6562 34.9939 24.56 34.9953 23.4638 35.0092C22.931 35.0092 22.5776 35.3667 22.5748 35.8438C22.5721 36.321 22.9157 36.6563 23.4554 36.6702C23.9952 36.6841 24.5294 36.6576 25.0691 36.659H25.0733Z" fill="#25B800"/>
<path d="M41.7506 6.64264H8.35097C8.35097 5.2209 8.33706 3.82004 8.35932 2.42056C8.36767 1.98792 8.6612 1.73333 9.09523 1.67629C9.25111 1.66261 9.40773 1.65936 9.56404 1.66656H40.507C41.5406 1.66656 41.7506 1.87802 41.7506 2.91858V6.64264ZM34.1829 4.99971C35.8174 4.99971 37.4506 4.99971 39.0852 4.99971C39.707 4.99971 40.066 4.68114 40.059 4.16503C40.052 3.64892 39.7001 3.33035 39.0755 3.33035C35.8416 3.33035 32.6076 3.33035 29.3737 3.33035C28.7143 3.33035 28.3624 3.64615 28.3777 4.19425C28.393 4.74236 28.7171 4.99137 29.3779 4.99276C30.9833 5.0025 32.5831 4.99971 34.1829 4.99971ZM11.6897 4.18868C11.6952 4.0233 11.6514 3.86003 11.5638 3.7196C11.4763 3.57917 11.349 3.46791 11.1982 3.39997C11.0473 3.33204 10.8796 3.31048 10.7164 3.33804C10.5533 3.3656 10.402 3.44104 10.2818 3.55476C10.1616 3.66849 10.0779 3.81538 10.0414 3.97677C10.0049 4.13816 10.0171 4.30675 10.0766 4.46115C10.1361 4.61556 10.2401 4.7488 10.3755 4.84395C10.5109 4.9391 10.6715 4.99187 10.8369 4.99555C11.0567 5.00043 11.2695 4.91843 11.4291 4.76736C11.5888 4.6163 11.6824 4.40836 11.6897 4.18868ZM14.2174 4.99555C14.3825 4.99078 14.5426 4.93709 14.6772 4.8413C14.8118 4.74551 14.915 4.61191 14.9736 4.45743C15.0323 4.30296 15.0437 4.13456 15.0066 3.97356C14.9694 3.81256 14.8853 3.66621 14.765 3.55305C14.6446 3.43988 14.4933 3.36499 14.3303 3.33786C14.1673 3.31073 14 3.33259 13.8494 3.40065C13.6989 3.46872 13.5719 3.57995 13.4846 3.72023C13.3973 3.86051 13.3536 4.02355 13.359 4.18868C13.3667 4.40836 13.4606 4.61617 13.6206 4.76697C13.7805 4.91778 13.9934 4.99941 14.2132 4.99415L14.2174 4.99555ZM17.5338 4.99555C17.6993 4.99748 17.8616 4.95016 18.0002 4.85963C18.1387 4.76909 18.2472 4.63942 18.3119 4.48708C18.3765 4.33475 18.3945 4.16663 18.3634 4.00408C18.3323 3.84153 18.2536 3.6919 18.1372 3.57419C18.0209 3.45648 17.8722 3.376 17.71 3.343C17.5478 3.31 17.3795 3.32596 17.2264 3.38883C17.0733 3.45171 16.9424 3.55869 16.8503 3.69615C16.7581 3.83362 16.7089 3.99537 16.7089 4.16087C16.7092 4.38008 16.7958 4.59036 16.9499 4.74627C17.104 4.90219 17.3132 4.99123 17.5324 4.99415L17.5338 4.99555Z" fill="#25B800"/>
<path d="M35.0441 48.3098H15.0425C15.0236 48.0013 15.0236 47.6919 15.0425 47.3833C15.0981 46.9549 15.3722 46.7072 15.8104 46.6683C15.9648 46.6544 16.122 46.6683 16.2792 46.6683H33.6015C34.9829 46.6613 35.1498 46.8464 35.0441 48.3098Z" fill="white"/>
<path d="M25.0698 36.6591C24.53 36.6591 23.9903 36.6688 23.4519 36.6591C22.9135 36.6494 22.5685 36.3099 22.5713 35.8328C22.5741 35.3556 22.9274 35.012 23.4602 34.9981C24.5565 34.9856 25.6527 34.9842 26.7475 34.9981C27.2831 35.0064 27.6239 35.3584 27.6211 35.8328C27.6183 36.3071 27.2858 36.6382 26.7391 36.648C26.1924 36.6577 25.6262 36.6591 25.0698 36.6591Z" fill="black"/>
<path d="M34.1829 4.99967C32.5831 4.99967 30.9833 4.99967 29.3835 4.99967C28.7227 4.99967 28.3986 4.73258 28.3833 4.20117C28.368 3.66975 28.7199 3.33728 29.3793 3.33728C32.6123 3.33728 35.8462 3.33728 39.0811 3.33728C39.7057 3.33728 40.0632 3.65028 40.0646 4.17196C40.066 4.69363 39.7071 5.00664 39.0908 5.00664C37.4507 5.00385 35.8175 4.99967 34.1829 4.99967Z" fill="black"/>
<path d="M11.6897 4.18865C11.6866 4.35415 11.6343 4.51499 11.5396 4.65072C11.4448 4.78645 11.3119 4.89095 11.1576 4.95092C11.0033 5.01089 10.8346 5.02363 10.6731 4.98751C10.5115 4.9514 10.3644 4.86807 10.2503 4.74811C10.1362 4.62815 10.0604 4.47698 10.0325 4.31382C10.0045 4.15066 10.0257 3.98288 10.0934 3.8318C10.1611 3.68072 10.2721 3.55318 10.4124 3.46537C10.5528 3.37756 10.716 3.33346 10.8815 3.33867C11.1009 3.34558 11.3088 3.43866 11.4601 3.59776C11.6113 3.75685 11.6938 3.96915 11.6897 4.18865Z" fill="black"/>
<path d="M14.2133 4.99414C14.0479 4.99853 13.8849 4.95365 13.745 4.8652C13.6051 4.77675 13.4947 4.64873 13.4278 4.4974C13.3608 4.34606 13.3404 4.17824 13.369 4.01525C13.3977 3.85227 13.4741 3.70148 13.5887 3.58204C13.7032 3.4626 13.8507 3.3799 14.0123 3.34445C14.174 3.309 14.3425 3.3224 14.4965 3.38295C14.6505 3.44349 14.783 3.54844 14.8773 3.68447C14.9715 3.8205 15.0232 3.98147 15.0257 4.14693C15.0291 4.36666 14.9457 4.57885 14.7936 4.73746C14.6415 4.89607 14.433 4.98831 14.2133 4.99414Z" fill="black"/>
<path d="M17.5328 4.99419C17.3673 4.99417 17.2055 4.94491 17.068 4.85269C16.9305 4.76048 16.8235 4.62947 16.7607 4.4763C16.6979 4.32313 16.682 4.15474 16.7151 3.99253C16.7482 3.83032 16.8288 3.68162 16.9467 3.56534C17.0645 3.44906 17.2143 3.37047 17.3769 3.33954C17.5396 3.3086 17.7077 3.32672 17.86 3.3916C18.0124 3.45649 18.1419 3.56519 18.2323 3.70391C18.3227 3.84263 18.3697 4.00509 18.3675 4.17063C18.3646 4.39007 18.2754 4.59952 18.1192 4.75366C17.9629 4.90779 17.7523 4.9942 17.5328 4.99419Z" fill="black"/>
</svg>
