<svg width="50" height="50" viewBox="0 0 50 50" fill="none" xmlns="http://www.w3.org/2000/svg">
<path d="M25.0516 35L28.454 33.3594C30.1476 32.5413 31.84 31.7187 33.5357 30.9051C33.8156 30.7708 34.0022 30.6376 34 30.2602C33.9846 26.6548 33.9912 23.045 33.989 19.444C33.989 19.3175 33.966 19.1909 33.9484 19C33.7684 19.071 33.6191 19.1199 33.4753 19.1876C30.8119 20.4752 28.1482 21.7629 25.484 23.0505C25.1822 23.1948 24.9978 23.3402 25 23.7376C25.0176 27.3252 25.0099 30.9129 25.0121 34.5049C25.0066 34.6459 25.0318 34.7858 25.0516 35Z" fill="#1487E3"/>
<path d="M38.5952 0.00390395C38.9995 0.26073 39.474 0.448223 39.7934 0.785123C40.7269 1.78899 40.435 3.40514 39.228 4.08968C38.9653 4.23909 38.85 4.38264 38.8735 4.68927C38.9008 5.02812 38.8813 5.37283 38.8803 5.71364C38.8803 6.50462 38.6479 6.73899 37.8725 6.73997H31.615V8.20475H33.5768C33.82 8.20475 34.0651 8.19304 34.3073 8.20475C34.736 8.23307 35.0172 8.52115 35.025 8.91664C35.0328 9.33167 34.7418 9.65001 34.2887 9.65782C33.4098 9.67442 32.531 9.65782 31.6228 9.65782V11.1226H45.9318C46.7579 11.1226 46.9757 11.3384 46.9767 12.1558C46.9767 20.4237 46.9767 28.6916 46.9767 36.9595C46.9767 37.7485 46.7501 37.978 45.966 37.978H3.95981C3.14148 37.978 2.92469 37.7593 2.92371 36.9361C2.92371 36.1392 2.92371 35.3417 2.92371 34.5436C2.92371 33.9401 3.203 33.5915 3.6649 33.5993C4.12679 33.6071 4.38167 33.9518 4.38362 34.567C4.38362 35.1978 4.38362 35.8287 4.38362 36.4859H45.4767V12.6333H31.5847V13.0805C31.5847 14.0571 31.6101 15.0336 31.573 16.0101C31.5564 16.4261 31.7175 16.6107 32.0691 16.7669C32.8981 17.137 33.7067 17.554 34.5328 17.9309C34.9557 18.1262 35.1393 18.4192 35.1393 18.884C35.1321 22.7413 35.1321 26.5986 35.1393 30.4558C35.1393 30.8953 34.9752 31.196 34.5602 31.3728C34.1285 31.5574 33.7145 31.7868 33.2839 31.9753C32.8269 32.1765 32.4362 32.0456 32.2497 31.655C32.0632 31.2644 32.196 30.8132 32.6726 30.6785C33.5924 30.4099 33.7106 29.8182 33.694 28.9637C33.6413 26.1484 33.6745 23.3321 33.6745 20.5168V19.8645C33.3532 20.0148 33.1218 20.1213 32.8933 20.2307C30.6248 21.3156 28.3583 22.4054 26.0859 23.4825C25.8047 23.6153 25.6748 23.7627 25.6758 24.0996C25.6904 27.2401 25.6845 30.3816 25.6855 33.5231C25.6855 33.6501 25.7041 33.777 25.7177 33.9674C26.0625 33.8083 26.3681 33.6745 26.6708 33.528C27.7255 33.0261 28.7762 32.5153 29.8338 32.0202C30.3562 31.7751 30.8103 31.9294 30.9539 32.3933C31.0818 32.7976 30.9177 33.111 30.5574 33.2858C28.8065 34.1364 27.0536 34.983 25.2842 35.7955C25.0723 35.8931 24.7256 35.8472 24.5029 35.7408C21.4367 34.2946 18.3821 32.822 15.3236 31.365C14.933 31.1804 14.7719 30.8982 14.7719 30.4793C14.7758 26.6064 14.7758 22.7328 14.7719 18.8586C14.7719 18.4163 14.9525 18.1341 15.3578 17.9485C16.2432 17.5449 17.1221 17.1217 17.9944 16.679C18.136 16.6068 18.3079 16.4134 18.3108 16.2728C18.3362 15.0717 18.3255 13.8696 18.3255 12.6343H4.38557V30.7976C4.39527 30.9604 4.39168 31.1237 4.37483 31.2859C4.3094 31.6892 4.07211 31.9363 3.6522 31.9353C3.2323 31.9343 2.99891 31.6872 2.9325 31.283C2.91925 31.1532 2.91631 31.0226 2.92371 30.8924V12.1919C2.92371 11.3414 3.13367 11.1334 3.99008 11.1334H18.2864V9.66856H2.5292C1.70794 9.66856 1.46186 9.91954 1.46186 10.7515V38.3872C1.46186 39.2055 1.71478 39.4526 2.54677 39.4526H47.3312C48.1934 39.4526 48.4385 39.2114 48.4385 38.3598V10.773C48.4385 9.90977 48.1993 9.66954 47.3429 9.66856H37.7915C37.6286 9.67993 37.465 9.67437 37.3032 9.65197C36.9234 9.57092 36.7036 9.32483 36.7076 8.93032C36.7115 8.5358 36.9341 8.2946 37.3159 8.22038C37.4778 8.1998 37.6413 8.19457 37.8042 8.20475C40.8744 8.20475 43.9456 8.24479 47.0148 8.1862C48.4151 8.15983 49.4024 8.61196 49.9004 9.9625V39.1606C49.4024 40.5111 48.4132 40.9496 47.0148 40.9369C42.1429 40.89 37.27 40.9183 32.3982 40.9183H31.8122C32.0427 42.8011 32.8864 44.2727 34.2535 45.4552C34.3805 45.5656 34.608 45.5969 34.7906 45.5988C35.7164 45.6135 36.646 45.5929 37.5679 45.6105C38.0682 45.6178 38.5507 45.7977 38.9336 46.1198C39.3165 46.4419 39.5764 46.8864 39.6693 47.378C39.8559 48.4454 39.3354 49.4102 38.3481 49.833C38.2329 49.8828 38.1235 49.9443 38.0112 50H11.8902C11.8248 49.959 11.757 49.9222 11.687 49.8897C10.5943 49.461 10.0357 48.4981 10.231 47.378C10.4117 46.338 11.3267 45.6144 12.4771 45.6066C13.143 45.6066 13.8168 45.5431 14.4731 45.6213C15.3178 45.7189 15.8763 45.3654 16.388 44.7541C17.3167 43.6448 17.9309 42.4105 18.0794 40.9183H2.50283C0.904262 40.9183 0 40.0092 0 38.4048C0 29.1792 0 19.9533 0 10.7271C0 9.09731 0.900355 8.20475 2.53896 8.20475H18.2844V6.73997H12.0728C11.2339 6.73997 11.022 6.52123 11.0201 5.66579C11.0201 5.35721 11.0045 5.04668 11.0201 4.73907C11.0357 4.43146 10.9605 4.25081 10.6676 4.08871C9.51916 3.43737 9.17445 1.95305 9.98398 0.944297C10.3092 0.540016 10.8531 0.312487 11.2974 0.00488143H12.1763C12.3091 0.0605433 12.4429 0.116202 12.5747 0.172841C13.3559 0.510718 13.8217 1.10542 13.9194 1.94524C14.017 2.78505 13.7387 3.54966 13.0073 3.95981C12.4058 4.29768 12.436 4.71466 12.5122 5.27811H13.0542C14.9695 5.27811 16.8844 5.27811 18.7991 5.27811C19.5197 5.27811 19.7668 5.52322 19.7707 6.23804C19.7707 6.88254 19.7707 7.52705 19.7707 8.1696H24.2119C24.2119 7.02902 24.2002 5.92359 24.2188 4.81915C24.2246 4.46271 24.1416 4.2469 23.8028 4.05062C23.0509 3.61607 22.711 2.90906 22.7696 2.04093C22.8282 1.1728 23.2882 0.559545 24.0733 0.185536C24.2022 0.124992 24.3282 0.061521 24.4561 0H25.4326L25.8603 0.202141C27.3603 0.89938 27.6093 3.01355 26.2363 3.92562C25.7314 4.26155 25.6455 4.60334 25.6728 5.10918C25.6943 5.51443 25.6728 5.92164 25.6728 6.32788V8.16765H30.1258C30.1258 7.49873 30.1258 6.86594 30.1258 6.23315C30.1258 5.51833 30.3758 5.2742 31.0974 5.2742C33.029 5.2742 34.9602 5.2742 36.8911 5.2742H37.3794C37.4849 4.65704 37.4292 4.25862 36.8521 3.92562C36.1265 3.50572 35.8677 2.73036 35.983 1.8925C36.0953 1.07613 36.5621 0.498026 37.3228 0.168937C37.4556 0.111322 37.5884 0.0566334 37.7212 0.000971518L38.5952 0.00390395ZM24.1768 33.9723C24.1944 33.7838 24.2168 33.6608 24.2168 33.5368C24.2168 30.3816 24.2168 27.2255 24.2276 24.0645C24.2276 23.7149 24.0655 23.587 23.7969 23.46C21.4246 22.3312 19.0546 21.1984 16.6868 20.0617C16.5609 20.0021 16.4261 19.9641 16.266 19.8967C16.2503 20.0598 16.2298 20.1711 16.2298 20.2873C16.2298 23.459 16.2298 26.6347 16.2201 29.8025C16.2201 30.1346 16.3841 30.2517 16.6331 30.3699C18.1419 31.0857 19.6477 31.8093 21.1544 32.529L24.1768 33.9723ZM17.1985 18.6877C19.3332 19.7102 21.3976 20.6183 23.3839 21.6847C24.4893 22.2784 25.4541 22.4444 26.4902 21.672C26.6005 21.6035 26.7173 21.5459 26.8388 21.5001L32.6647 18.7131C32.5901 18.6567 32.5122 18.6049 32.4314 18.5579C30.033 17.4075 27.6366 16.2542 25.2285 15.1234C25.0605 15.0443 24.7842 15.0736 24.6055 15.1566C23.3243 15.7484 22.0558 16.3666 20.7834 16.9759C19.6135 17.5355 18.4446 18.093 17.1985 18.6877ZM30.3211 40.9398H19.677C19.426 41.7835 19.2532 42.6165 18.928 43.3811C18.6028 44.1457 18.1302 44.8459 17.7298 45.5597H32.28C31.1541 44.1848 30.5037 42.6683 30.3211 40.9398ZM37.1265 48.5372C37.2893 48.5478 37.4527 48.5436 37.6147 48.5245C38.0171 48.4483 38.2495 48.1973 38.2387 47.7794C38.228 47.3888 37.9936 47.1534 37.6128 47.0841C37.4676 47.067 37.3212 47.063 37.1753 47.0724H12.7241C12.5785 47.0635 12.4325 47.0675 12.2876 47.0841C11.9068 47.1544 11.6734 47.3858 11.6636 47.7813C11.6538 48.1993 11.8863 48.4493 12.2896 48.5245C12.4516 48.5436 12.615 48.5478 12.7778 48.5372H37.1265ZM24.2168 12.6284H19.802V15.8177C21.2462 15.1254 22.6456 14.4584 24.0372 13.7758C24.086 13.7401 24.1265 13.6943 24.1562 13.6416C24.1858 13.5889 24.2038 13.5304 24.209 13.4702C24.2334 13.1997 24.2168 12.9253 24.2168 12.6284ZM30.0916 15.8099V12.6352H25.6826C25.6692 12.8887 25.6721 13.1428 25.6914 13.396C25.709 13.5337 25.7812 13.729 25.8867 13.7807C27.2636 14.4565 28.6503 15.1185 30.0916 15.8099ZM19.7971 11.0953H24.1866V9.70274H19.7971V11.0953ZM25.6972 11.105H30.0857V9.71154H25.6972V11.105ZM12.478 2.2089C12.4798 2.0209 12.4091 1.83946 12.2805 1.70231C12.1519 1.56517 11.9753 1.48289 11.7876 1.47259C11.5939 1.46988 11.407 1.54423 11.2681 1.67929C11.1292 1.81435 11.0497 1.99906 11.0469 2.19278C11.0442 2.38651 11.1186 2.57338 11.2536 2.71229C11.3887 2.85119 11.5734 2.93076 11.7671 2.93348C11.9563 2.92794 12.1359 2.8494 12.2685 2.71433C12.401 2.57925 12.4761 2.39812 12.478 2.2089ZM38.1333 2.93348C38.2309 2.93829 38.3286 2.92342 38.4204 2.88975C38.5122 2.85607 38.5963 2.80428 38.6677 2.73745C38.7391 2.67062 38.7963 2.59012 38.836 2.50073C38.8757 2.41134 38.8969 2.31489 38.8986 2.21711C38.9002 2.11933 38.8822 2.02222 38.8455 1.93156C38.8089 1.84089 38.7544 1.75852 38.6853 1.68934C38.6162 1.62016 38.5338 1.56557 38.4432 1.52884C38.3526 1.49211 38.2555 1.47398 38.1577 1.47553C37.9684 1.47852 37.7876 1.55501 37.6536 1.68884C37.5197 1.82268 37.443 2.00336 37.4398 2.19269C37.4367 2.38202 37.5073 2.56516 37.6367 2.7034C37.7661 2.84164 37.9441 2.92415 38.1333 2.93348ZM25.6699 2.21182C25.6695 2.06887 25.6265 1.92928 25.5464 1.81085C25.4663 1.69242 25.3528 1.60052 25.2203 1.54687C25.0878 1.49322 24.9423 1.48025 24.8024 1.50961C24.6625 1.53898 24.5345 1.60934 24.4347 1.71174C24.335 1.81413 24.2679 1.94392 24.2422 2.08454C24.2165 2.22517 24.2333 2.37027 24.2904 2.50134C24.3474 2.6324 24.4423 2.74351 24.5627 2.82047C24.6832 2.89744 24.8239 2.93677 24.9668 2.93348C25.1552 2.92763 25.3339 2.84859 25.465 2.71312C25.5961 2.57765 25.6693 2.39643 25.6689 2.20792L25.6699 2.21182Z" fill="black"/>
<path d="M24.1768 33.9723L21.1492 32.529C19.6425 31.8093 18.1367 31.0857 16.6279 30.3699C16.3789 30.2517 16.2129 30.1346 16.2149 29.8025C16.2285 26.6308 16.2227 23.4551 16.2246 20.2873C16.2246 20.176 16.2451 20.0646 16.2608 19.8967C16.4209 19.9592 16.5537 20.0021 16.6816 20.0617C19.0513 21.1945 21.4214 22.3272 23.7917 23.46C24.0603 23.587 24.2243 23.7149 24.2224 24.0645C24.2067 27.2206 24.2136 30.3767 24.2116 33.5368C24.2165 33.6608 24.1944 33.7838 24.1768 33.9723Z" fill="#1487E3"/>
<path d="M17.1985 18.6877C18.4446 18.093 19.6132 17.5354 20.7801 16.9759C22.0496 16.3665 23.3191 15.7484 24.6023 15.1566C24.781 15.0736 25.0573 15.0443 25.2253 15.1234C27.6334 16.2542 30.0298 17.4075 32.4281 18.5579C32.509 18.6049 32.5869 18.6567 32.6615 18.7131L26.8388 21.5001C26.7173 21.5459 26.6005 21.6035 26.4902 21.672C25.4541 22.4444 24.4893 22.2784 23.3839 21.6847C21.4005 20.6183 19.3332 19.7102 17.1985 18.6877Z" fill="#1487E3"/>
<path d="M12.478 2.2089C12.4761 2.39812 12.401 2.57925 12.2685 2.71433C12.1359 2.8494 11.9563 2.92794 11.7671 2.93348C11.6715 2.93232 11.5774 2.91233 11.4895 2.87465C11.4015 2.83697 11.3219 2.78235 11.2551 2.71389C11.1882 2.64542 11.1355 2.56446 11.1 2.47564C11.0645 2.38681 11.0468 2.29186 11.0479 2.19619C11.0491 2.10053 11.069 2.00602 11.1067 1.91808C11.1444 1.83014 11.199 1.75048 11.2675 1.68365C11.336 1.61682 11.4169 1.56412 11.5057 1.52858C11.5946 1.49304 11.6895 1.47534 11.7852 1.47649C11.9727 1.48603 12.1494 1.56745 12.2785 1.70383C12.4076 1.84021 12.4788 2.0211 12.478 2.2089Z" fill="#1487E3"/>
<path d="M38.1333 2.93348C37.9441 2.92415 37.7661 2.84164 37.6367 2.7034C37.5073 2.56516 37.4367 2.38202 37.4398 2.19269C37.443 2.00336 37.5197 1.82268 37.6536 1.68884C37.7876 1.55501 37.9684 1.47852 38.1577 1.47553C38.2555 1.47398 38.3526 1.49211 38.4432 1.52884C38.5338 1.56557 38.6162 1.62016 38.6853 1.68934C38.7544 1.75852 38.8089 1.84089 38.8455 1.93156C38.8822 2.02222 38.9002 2.11933 38.8986 2.21711C38.8969 2.31489 38.8757 2.41134 38.836 2.50073C38.7963 2.59012 38.7391 2.67062 38.6677 2.73745C38.5963 2.80428 38.5122 2.85607 38.4204 2.88975C38.3286 2.92342 38.2309 2.93829 38.1333 2.93348Z" fill="#1487E3"/>
<path d="M25.6689 2.20792C25.6658 2.34884 25.6214 2.48575 25.5412 2.60166C25.461 2.71756 25.3485 2.80736 25.2177 2.85991C25.0869 2.91246 24.9436 2.92545 24.8055 2.89726C24.6674 2.86907 24.5406 2.80094 24.4409 2.70134C24.3411 2.60174 24.2728 2.47504 24.2445 2.33697C24.2161 2.1989 24.2289 2.05554 24.2813 1.92467C24.3336 1.79381 24.4233 1.68121 24.5391 1.60084C24.6549 1.52048 24.7917 1.47588 24.9326 1.4726C25.0295 1.47169 25.1256 1.49008 25.2153 1.5267C25.3049 1.56332 25.3864 1.61743 25.455 1.68588C25.5235 1.75433 25.5777 1.83575 25.6145 1.92538C25.6512 2.01501 25.6697 2.11106 25.6689 2.20792Z" fill="#1487E3"/>
</svg>
