<svg width="54" height="50" viewBox="0 0 54 50" fill="none" xmlns="http://www.w3.org/2000/svg">
<path d="M30.4999 27.0027C31.6359 27.0027 32.7718 26.9967 33.9068 27.0027C34.6579 27.0027 34.9938 27.3716 34.9938 28.2038C35.0003 30.6992 35.0036 33.1935 34.9938 35.6889C34.9938 36.6441 33.8741 37.3306 33.1306 36.8339C33.0132 36.7551 32.9719 36.5402 32.8958 36.3874C32.3838 35.3558 31.5913 34.8256 30.5216 34.8245C29.4519 34.8233 28.5953 35.308 28.1572 36.3766C27.8311 37.1682 27.2876 36.8542 26.8343 36.8363C26.3505 36.8184 26.0733 36.4184 26.0168 35.8883C25.9996 35.65 25.9956 35.4107 26.0048 35.1719L26.0048 28.5847C26.0048 27.2641 26.2472 27.0027 27.4691 27.0027L30.4999 27.0027Z" fill="#AD00FE"/>
<path d="M0 47.7167V2.30943C0.716137 0.602201 2.01982 -0.00416036 3.83787 2.14624e-05C19.0743 0.0327791 34.3108 0.0393942 49.5473 0.019879C49.8593 0.0082307 50.1717 0.0239742 50.4809 0.0669258C52.1756 0.366972 53.2179 1.68948 53.2179 3.52634C53.2179 17.7912 53.2179 32.0561 53.2179 46.321C53.2179 48.6911 51.9163 50 49.5588 50H16.8622C12.3514 50 7.83952 50 3.32664 50C1.80027 50 0.713 49.2995 0.106635 47.8892C0.0761966 47.8287 0.0405158 47.771 0 47.7167ZM51.656 10.8947H9.2941C9.0687 10.9014 8.8431 10.8933 8.61874 10.8707C8.19428 10.8153 7.96533 10.533 7.95801 10.1284C7.94314 9.94272 8.00173 9.75863 8.12119 9.61572C8.24064 9.4728 8.41142 9.38247 8.59678 9.36416C8.82038 9.33607 9.04591 9.32628 9.2711 9.3349H51.656V3.68943C51.656 2.18398 51.0559 1.58806 49.5379 1.58806H3.56396C3.42491 1.58806 3.28587 1.58806 3.14578 1.58806C2.18605 1.62361 1.47305 2.31989 1.46259 3.28484C1.44796 5.21162 1.45736 7.13839 1.46259 9.06412C1.47233 9.15715 1.49017 9.24915 1.51591 9.33908H2.15259C3.33291 9.33908 4.51323 9.32966 5.69355 9.3443C6.27483 9.35057 6.58846 9.65794 6.57801 10.1409C6.56755 10.6093 6.2696 10.8832 5.7061 10.8958C5.01191 10.9114 4.31773 10.8958 3.62355 10.8958H1.45946V46.4057C1.45946 47.8056 2.093 48.4381 3.49496 48.4381H49.6236C51.0224 48.4381 51.656 47.8035 51.656 46.4026V10.8947Z" fill="black"/>
<path d="M29.598 39.352C28.9007 39.007 28.3905 38.5156 28.1062 37.8036C28.0717 37.7158 27.8971 37.6479 27.78 37.6353C27.5395 37.6102 27.2949 37.6353 27.0482 37.627C25.619 37.6081 24.6039 36.594 24.5798 35.1586C24.5798 34.8638 24.5798 34.5701 24.5798 34.2407C24.1871 34.0982 23.8309 33.8703 23.5369 33.5735C23.243 33.2766 23.0186 32.9182 22.8799 32.5241C20.5339 32.5241 18.2067 32.4614 15.8848 32.5439C14.0312 32.6109 12.44 31.2758 12.5487 29.2173C12.5926 28.4039 12.5487 27.5854 12.5613 26.7699C12.5613 26.4981 12.4567 26.3747 12.2372 26.2033C11.7835 25.852 11.4144 25.3941 10.9941 24.9968C10.8582 24.8489 10.6848 24.7405 10.4923 24.6832C10.1546 24.6184 9.79813 24.6623 9.45941 24.6037C8.37004 24.4155 7.5044 23.5311 7.48349 22.4292C7.43854 20.0006 7.43227 17.5699 7.48349 15.1413C7.51068 13.8962 8.55718 12.9291 9.80336 12.9145C12.1466 12.8873 14.4894 12.8873 16.832 12.9145C18.1607 12.9291 19.1696 13.939 19.1989 15.319C19.2135 15.9536 19.2951 16.4 19.937 16.7095C20.2767 16.8736 20.5391 17.2813 20.7326 17.6358C20.8946 17.9337 21.0619 18.0048 21.3755 18.0027C25.1238 17.9734 28.8721 17.9546 32.6204 17.9462C32.9539 17.9462 33.1045 17.8302 33.301 17.5542C33.6266 17.1149 34.0197 16.7299 34.4657 16.4136C34.6915 16.2484 34.8117 16.1324 34.7939 15.8543C34.7716 15.5757 34.7769 15.2955 34.8096 15.0179C34.9706 13.7812 35.9513 12.8549 37.2142 12.8382C39.5211 12.8082 41.8292 12.8082 44.1382 12.8382C45.5276 12.858 46.548 13.9317 46.5564 15.3222C46.5703 17.595 46.5703 19.8685 46.5564 22.1427C46.5614 22.4652 46.5018 22.7854 46.3809 23.0843C46.2601 23.3833 46.0805 23.6551 45.8528 23.8834C45.6251 24.1118 45.3539 24.2922 45.0553 24.4139C44.7567 24.5357 44.4366 24.5963 44.1142 24.5922C41.8414 24.6103 39.5678 24.6103 37.2936 24.5922C35.854 24.5839 34.8201 23.53 34.7919 22.0831C34.7819 21.9272 34.7819 21.7707 34.7919 21.6148C34.8243 21.322 34.7323 21.1537 34.4385 21.0272C33.7663 20.7376 33.3617 20.1752 33.0961 19.5165C31.0606 19.5165 29.0492 19.5165 27.0325 19.5165C25.1757 19.5218 23.319 19.5437 21.4623 19.5458C21.1079 19.5458 20.8998 19.6253 20.6876 19.9713C20.405 20.4034 20.0363 20.7725 19.6045 21.0554C19.3201 21.2489 19.2125 21.4151 19.2135 21.7454C19.2274 22.1434 19.1859 22.5413 19.0901 22.9278C18.7765 24.012 17.8231 24.6748 16.5978 24.6664C16.1043 24.6664 15.7614 24.6999 15.4875 25.2404C15.2784 25.6513 14.7682 25.9043 14.4076 26.244C14.2863 26.358 14.1336 26.5211 14.1305 26.6622C14.1086 27.6335 14.1012 28.6057 14.1305 29.5769C14.1556 30.3558 14.6888 30.936 15.4258 30.9423C17.9056 30.9653 20.3865 30.9507 22.8778 30.9507C23.1831 30.2241 23.6462 29.6669 24.376 29.3511C24.4286 29.3157 24.4729 29.2694 24.5059 29.2152C24.5389 29.1611 24.5599 29.1005 24.5673 29.0375C24.5966 28.7981 24.5725 28.5524 24.5777 28.3057C24.607 26.932 25.6044 25.8771 26.9718 25.8604C29.2969 25.8325 31.6224 25.8325 33.9482 25.8604C35.324 25.875 36.3234 26.9205 36.3444 28.2952C36.3548 28.9549 36.3559 29.6146 36.3444 30.2732C36.3339 30.7709 36.0307 31.0929 35.5989 31.1096C35.1672 31.1263 34.8054 30.7865 34.7919 30.2732C34.7741 29.6669 34.7919 29.0584 34.7845 28.451C34.7783 27.7422 34.4709 27.417 33.7809 27.4149C31.5757 27.4073 29.3715 27.4073 27.1684 27.4149C26.4637 27.4149 26.1742 27.739 26.1334 28.4353C26.1031 28.9486 26.1721 29.2947 26.7209 29.579C27.5834 30.0265 27.9661 30.8524 27.9358 31.8362C27.9044 32.8492 27.413 33.6135 26.5202 34.0316C25.8354 34.361 26.1898 34.8962 26.1762 35.3311C26.1637 35.719 26.4711 35.9825 26.884 36.04C27.0377 36.0609 27.1977 36.0326 27.3513 36.0546C27.8448 36.1246 28.126 35.9563 28.4052 35.4921C29.391 33.8539 31.8677 33.9658 32.8065 35.6511C33.024 36.0421 33.5383 36.1968 34.1468 36.0253C34.565 35.9093 34.7793 35.6145 34.7824 35.1796C34.7887 34.5523 34.7824 33.925 34.7824 33.305C34.7908 32.728 35.0752 32.3934 35.5477 32.383C36.0464 32.3725 36.337 32.7102 36.3412 33.3239C36.3412 33.9668 36.3527 34.6087 36.3412 35.2506C36.3355 35.8738 36.0863 36.47 35.6467 36.9118C35.2071 37.3535 34.6121 37.6057 33.9889 37.6144C33.6753 37.6228 33.3669 37.6144 33.0533 37.6144C32.7469 38.4508 32.2169 39.0352 31.4119 39.3624C31.2958 39.4084 31.2028 39.5778 31.1516 39.7095C30.6288 40.9641 29.6398 41.6467 28.2891 41.6499C25.6511 41.6555 23.013 41.6555 20.375 41.6499C20.0614 41.6499 19.9025 41.7544 19.7112 42.0022C19.4316 42.3722 19.0873 42.6885 18.695 42.9358C18.3939 43.1187 18.3165 43.2954 18.304 43.6206C18.2872 44.0816 18.2684 44.5719 18.1064 44.9943C17.7206 46.0011 16.9135 46.5259 15.8492 46.5405C13.5764 46.5705 11.3029 46.5705 9.02868 46.5405C7.58386 46.5248 6.55513 45.4574 6.54886 44.0095C6.5384 41.7715 6.5384 39.5328 6.54886 37.2935C6.55513 35.8298 7.57445 34.7938 9.03391 34.7844C11.29 34.7655 13.5461 34.7655 15.8022 34.7844C17.2784 34.7959 18.3113 35.8497 18.3061 37.3353C18.3061 37.8643 18.3541 38.2208 18.9135 38.524C19.3557 38.7644 19.6589 39.3143 19.9391 39.7785C20.0791 40.0075 20.1816 40.1005 20.4388 40.0995C23.0597 40.0932 25.6807 40.0995 28.3017 40.0942C28.8641 40.0984 29.3105 39.8925 29.598 39.352ZM44.9997 18.7324C44.9997 17.687 44.9997 16.653 44.9997 15.6128C44.9997 14.698 44.7017 14.4001 43.7838 14.399C42.0337 14.399 40.2833 14.399 38.5325 14.399C38.1342 14.399 37.7348 14.3927 37.3365 14.399C36.8483 14.4116 36.5106 14.6437 36.383 15.1308C36.2105 15.7811 36.3611 16.2045 36.8221 16.4743C37.7034 16.9907 38.1676 17.7622 38.1499 18.7847C38.1321 19.8072 37.6324 20.5547 36.7374 21.045C36.6078 21.1161 36.4238 21.1798 36.3747 21.2948C35.992 22.1783 36.5754 23.047 37.5393 23.0481C39.6365 23.0481 41.7337 23.0481 43.8309 23.0481C44.7143 23.0481 44.9976 22.7553 44.9997 21.8542C45.0018 20.8118 44.9997 19.7727 44.9997 18.7324ZM8.11495 40.6734V43.5871C8.11495 44.7622 8.34391 44.9953 9.50018 44.9953H15.2742C15.4834 45.0042 15.6928 45.0004 15.9015 44.9838C16.3657 44.9263 16.7159 44.6629 16.7316 44.1977C16.7473 43.7575 17.0222 43.2369 16.3291 42.9253C15.3882 42.5072 14.97 41.6708 14.97 40.6515C14.97 39.6321 15.4352 38.8606 16.3385 38.3682C16.4723 38.295 16.6605 38.2553 16.7295 38.1424C17.1644 37.4273 16.5664 36.3536 15.7269 36.3505C13.5419 36.339 11.358 36.3421 9.17295 36.3505C8.44113 36.3505 8.1275 36.6766 8.12122 37.3959C8.10972 38.4884 8.11495 39.5809 8.11495 40.6734ZM13.384 14.468H10.3669C9.2315 14.468 9.01509 14.6876 9.01509 15.847C9.01509 17.8062 9.01509 19.765 9.01509 21.7235C9.01509 21.897 9.01509 22.0706 9.02763 22.2462C9.06631 22.7261 9.34127 23.0021 9.80232 23.0941C10.5059 23.2342 10.8091 23.1265 11.0569 22.6665C11.9873 20.9268 14.4797 20.8443 15.5272 22.5191C15.8942 23.1045 16.281 23.2509 16.9553 23.0742C17.3955 22.955 17.6485 22.656 17.6474 22.2117C17.6474 21.7935 17.8659 21.321 17.2292 21.0429C16.2768 20.631 15.8701 19.7716 15.8649 18.7701C15.8597 17.7685 16.3626 16.9928 17.2522 16.4899C17.384 16.4147 17.5659 16.3624 17.6317 16.2474C18.0499 15.5062 17.4624 14.4816 16.6145 14.4701C15.5335 14.4607 14.4588 14.4691 13.384 14.468ZM18.4336 17.756C18.2314 17.7578 18.0342 17.8196 17.867 17.9334C17.6998 18.0472 17.5701 18.208 17.4943 18.3955C17.4184 18.583 17.3998 18.7887 17.4407 18.9868C17.4817 19.1848 17.5805 19.3663 17.7245 19.5083C17.8685 19.6503 18.0514 19.7464 18.25 19.7846C18.4486 19.8227 18.6541 19.8012 18.8405 19.7226C19.0268 19.6441 19.1858 19.5121 19.2972 19.3433C19.4086 19.1745 19.4675 18.9765 19.4665 18.7743C19.4595 18.5039 19.348 18.2467 19.1554 18.0569C18.9628 17.867 18.704 17.7591 18.4336 17.756ZM13.3171 22.8662C13.1805 22.865 13.0449 22.8912 12.9185 22.9433C12.7921 22.9953 12.6775 23.0722 12.5813 23.1693C12.485 23.2664 12.4093 23.3818 12.3584 23.5086C12.3075 23.6355 12.2825 23.7713 12.285 23.9079C12.2874 24.0446 12.3172 24.1794 12.3726 24.3044C12.428 24.4293 12.5079 24.5419 12.6075 24.6355C12.7071 24.7291 12.8245 24.8018 12.9526 24.8493C13.0808 24.8968 13.2172 24.9182 13.3537 24.9121C13.6239 24.9045 13.8803 24.7917 14.0686 24.5978C14.2568 24.4039 14.3619 24.1442 14.3616 23.874C14.3518 23.6035 14.2375 23.3473 14.0427 23.1593C13.8479 22.9713 13.5878 22.8663 13.3171 22.8662ZM24.3551 31.7369C24.3551 31.9996 24.4574 32.252 24.6402 32.4408C24.823 32.6295 25.072 32.7397 25.3346 32.7481C25.5973 32.7566 25.8528 32.6625 26.0474 32.4859C26.2419 32.3093 26.3601 32.0639 26.377 31.8017C26.3857 31.6663 26.3671 31.5306 26.3223 31.4025C26.2775 31.2745 26.2075 31.1568 26.1163 31.0564C26.0251 30.9559 25.9147 30.8749 25.7915 30.818C25.6684 30.7611 25.5351 30.7295 25.3995 30.7252C25.2639 30.7208 25.1289 30.7438 25.0023 30.7927C24.8758 30.8416 24.7604 30.9154 24.663 31.0098C24.5655 31.1041 24.4881 31.2171 24.4352 31.342C24.3823 31.467 24.355 31.6012 24.3551 31.7369ZM18.5496 40.6776C18.5489 40.4134 18.4448 40.1601 18.2597 39.9716C18.0746 39.7831 17.8232 39.6744 17.5591 39.6688C17.295 39.6633 17.0392 39.7611 16.8463 39.9416C16.6534 40.1221 16.5387 40.3708 16.5267 40.6347C16.5206 40.7696 16.5415 40.9042 16.5882 41.0309C16.6349 41.1575 16.7064 41.2735 16.7986 41.372C16.8909 41.4706 17.0018 41.5497 17.1251 41.6047C17.2483 41.6597 17.3813 41.6895 17.5162 41.6924C17.6511 41.6953 17.7853 41.6711 17.9107 41.6213C18.0362 41.5716 18.1504 41.4973 18.2467 41.4027C18.343 41.3081 18.4194 41.1953 18.4714 41.0708C18.5235 40.9462 18.55 40.8126 18.5496 40.6776ZM34.565 18.6896C34.5574 18.889 34.609 19.0861 34.7132 19.2563C34.8173 19.4265 34.9695 19.5621 35.1505 19.646C35.3315 19.7299 35.5333 19.7585 35.7305 19.7281C35.9277 19.6977 36.1115 19.6097 36.2588 19.4751C36.4061 19.3405 36.5104 19.1654 36.5585 18.9717C36.6065 18.7781 36.5963 18.5745 36.529 18.3867C36.4617 18.1988 36.3404 18.0351 36.1803 17.916C36.0202 17.7969 35.8285 17.7277 35.6293 17.7173C35.4949 17.7082 35.36 17.7265 35.2328 17.7709C35.1057 17.8154 34.9889 17.8852 34.8894 17.976C34.7899 18.0669 34.7099 18.177 34.6542 18.2996C34.5984 18.4222 34.5681 18.5549 34.565 18.6896ZM30.5253 37.9364C30.7871 37.947 31.0425 37.8543 31.2365 37.6783C31.4305 37.5022 31.5476 37.257 31.5624 36.9955C31.5687 36.857 31.5474 36.7186 31.4997 36.5884C31.452 36.4582 31.3789 36.3388 31.2847 36.2371C31.1904 36.1355 31.0768 36.0536 30.9506 35.9962C30.8244 35.9388 30.688 35.9072 30.5494 35.903C30.4149 35.9045 30.2821 35.9326 30.1586 35.9856C30.035 36.0386 29.9231 36.1155 29.8294 36.2118C29.7356 36.3082 29.6618 36.4221 29.6123 36.5471C29.5627 36.6721 29.5383 36.8057 29.5405 36.9401C29.541 37.2022 29.6446 37.4536 29.8289 37.64C30.0131 37.8264 30.2633 37.9329 30.5253 37.9364Z" fill="black"/>
<path d="M37.4899 4.68574H46.5415C46.715 4.68574 46.8896 4.67947 47.0642 4.6941C47.4897 4.72965 47.7375 4.98788 47.7762 5.39142C47.8149 5.79497 47.5985 6.09606 47.1928 6.19852C46.9902 6.23853 46.7834 6.25363 46.577 6.24347C40.5246 6.24347 34.4724 6.24347 28.4206 6.24347C28.1812 6.24347 27.8759 6.28006 27.7181 6.15356C27.4902 5.97061 27.2602 5.66533 27.2319 5.39247C27.1943 5.02865 27.4713 4.75474 27.8707 4.70038C28.0444 4.68345 28.219 4.67821 28.3934 4.6847L37.4899 4.68574Z" fill="black"/>
<path d="M9.49683 5.44472C9.49975 6.1379 9.22717 6.80385 8.73908 7.29606C8.25099 7.78827 7.58735 8.06643 6.89417 8.06934C6.20099 8.07226 5.53504 7.79968 5.04283 7.31159C4.55062 6.82349 4.27247 6.15986 4.26955 5.46668C4.26811 5.12345 4.33429 4.7833 4.4643 4.46565C4.59432 4.14799 4.78563 3.85906 5.02731 3.61534C5.5154 3.12313 6.17904 2.84498 6.87222 2.84206C7.5654 2.83915 8.23134 3.11172 8.72355 3.59982C9.21577 4.08791 9.49392 4.75154 9.49683 5.44472ZM6.86438 6.49854C7.00333 6.50527 7.14218 6.48346 7.27237 6.43445C7.40257 6.38544 7.52133 6.31026 7.62135 6.21358C7.72137 6.11689 7.80052 6.00073 7.85391 5.87227C7.9073 5.74381 7.93381 5.60578 7.93179 5.46668C7.93443 5.32773 7.90934 5.18964 7.85798 5.0605C7.80663 4.93136 7.73004 4.81375 7.63269 4.71456C7.53535 4.61536 7.4192 4.53657 7.29105 4.48279C7.1629 4.42902 7.02531 4.40133 6.88633 4.40136C6.61567 4.40763 6.35741 4.51612 6.16347 4.70502C5.96952 4.89392 5.85427 5.14923 5.84087 5.41963C5.83542 5.55813 5.85775 5.69632 5.90656 5.82605C5.95536 5.95578 6.02965 6.07442 6.12505 6.17498C6.22044 6.27554 6.33501 6.35597 6.46198 6.41155C6.58896 6.46712 6.72578 6.4967 6.86438 6.49854Z" fill="black"/>
<path d="M19.3148 8.06576C18.6217 8.05953 17.9593 7.77818 17.4736 7.28361C16.9879 6.78905 16.7185 6.12178 16.7247 5.4286C16.731 4.73542 17.0123 4.07311 17.5069 3.58737C18.0014 3.10163 18.6687 2.83225 19.3619 2.83848C19.7051 2.84157 20.0444 2.91224 20.3603 3.04644C20.6762 3.18064 20.9626 3.37575 21.2031 3.62064C21.4436 3.86552 21.6336 4.15538 21.7621 4.47366C21.8905 4.79195 21.9551 5.13242 21.952 5.47565C21.9489 5.81888 21.8782 6.15813 21.744 6.47405C21.6098 6.78997 21.4147 7.07637 21.1698 7.31688C20.925 7.5574 20.6351 7.74732 20.3168 7.87582C19.9985 8.00431 19.6581 8.06885 19.3148 8.06576ZM19.3608 6.49758C19.4998 6.49611 19.6371 6.46694 19.7647 6.41177C19.8923 6.3566 20.0076 6.27654 20.1039 6.17627C20.2002 6.07601 20.2755 5.95754 20.3254 5.82782C20.3754 5.69809 20.399 5.55971 20.3948 5.42076C20.3792 5.14958 20.2623 4.89413 20.0674 4.70499C19.8724 4.51584 19.6135 4.40676 19.342 4.39935C19.2031 4.39933 19.0656 4.42698 18.9375 4.48069C18.8095 4.53441 18.6934 4.6131 18.596 4.71218C18.4987 4.81126 18.4221 4.92874 18.3707 5.05776C18.3193 5.18678 18.2941 5.32476 18.2966 5.46362C18.2952 5.60241 18.322 5.74004 18.3754 5.86816C18.4288 5.99629 18.5076 6.11224 18.6071 6.20901C18.7066 6.30577 18.8247 6.38134 18.9543 6.43112C19.0838 6.48091 19.2221 6.50387 19.3608 6.49863V6.49758Z" fill="black"/>
<path d="M13.1225 8.06468C12.4294 8.06704 11.7636 7.79394 11.2718 7.30545C10.78 6.81696 10.5024 6.15311 10.5 5.45993C10.4977 4.76675 10.7708 4.10102 11.2592 3.6092C11.7477 3.11739 12.4116 2.83976 13.1048 2.8374C13.7986 2.83795 14.4641 3.11319 14.9556 3.60296C15.4471 4.09272 15.7248 4.75717 15.7278 5.45104C15.7299 5.79414 15.664 6.13426 15.5339 6.45175C15.4038 6.76925 15.2121 7.05782 14.9699 7.30082C14.7277 7.54383 14.4397 7.73644 14.1226 7.86755C13.8055 7.99866 13.4656 8.06565 13.1225 8.06468ZM13.0891 6.4965C13.228 6.50225 13.3667 6.47999 13.4968 6.43104C13.6269 6.38208 13.7459 6.30743 13.8465 6.21153C13.9472 6.11564 14.0276 6.00045 14.0828 5.87286C14.138 5.74526 14.167 5.60785 14.168 5.46882C14.1683 5.18834 14.0581 4.91903 13.8612 4.71924C13.6644 4.51944 13.3967 4.40526 13.1163 4.40141C12.844 4.4013 12.5824 4.50742 12.3872 4.69719C12.1919 4.88696 12.0784 5.14542 12.0708 5.41759C12.0627 5.55638 12.083 5.69538 12.1305 5.82605C12.178 5.95672 12.2517 6.07633 12.347 6.17753C12.4423 6.27874 12.5573 6.35942 12.6849 6.41462C12.8125 6.46983 12.9501 6.4984 13.0891 6.49859V6.4965Z" fill="black"/>
<path d="M44.9996 18.7325C44.9996 19.7779 44.9996 20.8119 44.9996 21.8521C44.9996 22.7533 44.7141 23.045 43.8307 23.046C41.7336 23.046 39.6364 23.046 37.5392 23.046C36.5753 23.046 35.9919 22.1762 36.3745 21.2928C36.4237 21.1778 36.6077 21.114 36.7373 21.043C37.6322 20.5526 38.133 19.8072 38.1497 18.7827C38.1665 17.7581 37.7033 16.9887 36.822 16.4722C36.361 16.2025 36.2104 15.7791 36.3829 15.1288C36.5105 14.6468 36.8481 14.4148 37.3364 14.397C37.7347 14.3865 38.1341 14.397 38.5324 14.397C40.2825 14.397 42.0329 14.397 43.7837 14.397C44.7016 14.397 44.9975 14.696 44.9996 15.6108C45.0016 16.6531 44.9996 17.6923 44.9996 18.7325Z" fill="#AD00FE"/>
<path d="M8.11463 40.6734C8.11463 39.5809 8.1094 38.4884 8.11463 37.397C8.11463 36.6746 8.43767 36.3515 9.16636 36.3515C11.3514 36.3452 13.5353 36.3421 15.7203 36.3515C16.5567 36.3515 17.1578 37.4283 16.7229 38.1434C16.6539 38.2563 16.4657 38.2961 16.3319 38.3693C15.4286 38.8617 14.9645 39.6238 14.9634 40.6525C14.9624 41.6813 15.3868 42.5051 16.3225 42.9264C17.0156 43.24 16.7407 43.7628 16.725 44.1987C16.7093 44.6639 16.3591 44.9305 15.8949 44.9849C15.6862 45.0014 15.4768 45.0053 15.2676 44.9964H9.49986C8.34358 44.9964 8.11463 44.7633 8.11463 43.5882V40.6734Z" fill="#AD00FE"/>
<path d="M13.384 14.4681C14.4588 14.4681 15.5335 14.4608 16.6082 14.4681C17.4561 14.4754 18.0468 15.5 17.6255 16.2454C17.5596 16.3604 17.3777 16.4126 17.246 16.4879C16.3563 16.9887 15.8555 17.7529 15.8586 18.7681C15.8618 19.7832 16.2705 20.629 17.223 21.0409C17.8649 21.319 17.6411 21.7884 17.6411 22.2097C17.6411 22.6519 17.3892 22.953 16.949 23.0722C16.2747 23.2531 15.8879 23.1025 15.521 22.5171C14.4755 20.8443 11.981 20.9248 11.0506 22.6645C10.8039 23.1245 10.5007 23.2322 9.79604 23.0921C9.33604 23.0001 9.06422 22.7241 9.02135 22.2442C9.00776 22.0717 9.00881 21.8982 9.00881 21.7215C9.00881 19.7623 9.00881 17.8034 9.00881 15.845C9.00881 14.6855 9.22522 14.467 10.3606 14.466L13.384 14.4681Z" fill="#AD00FE"/>
<path d="M18.4337 17.756C18.6357 17.7562 18.8331 17.8162 19.0011 17.9283C19.169 18.0405 19.3001 18.1999 19.3776 18.3864C19.4552 18.5729 19.4759 18.7782 19.437 18.9764C19.3982 19.1746 19.3015 19.3569 19.1593 19.5003C19.0171 19.6437 18.8356 19.7418 18.6377 19.7822C18.4398 19.8227 18.2344 19.8037 18.0472 19.7276C17.8601 19.6516 17.6997 19.5219 17.5862 19.3548C17.4726 19.1878 17.411 18.9909 17.4092 18.7889C17.4124 18.5174 17.5211 18.2578 17.7123 18.065C17.9035 17.8722 18.1623 17.7614 18.4337 17.756Z" fill="white"/>
<path d="M13.3174 22.8662C13.5883 22.866 13.8486 22.971 14.0436 23.159C14.2387 23.347 14.3531 23.6033 14.3628 23.874C14.3652 24.0089 14.3409 24.1428 14.2915 24.2683C14.2421 24.3937 14.1684 24.5082 14.0747 24.6052C13.981 24.7022 13.8692 24.7797 13.7455 24.8335C13.6218 24.8872 13.4888 24.9161 13.354 24.9184C13.2192 24.9208 13.0852 24.8965 12.9598 24.8471C12.8343 24.7977 12.7198 24.724 12.6228 24.6303C12.5259 24.5366 12.4483 24.4248 12.3945 24.3011C12.3408 24.1774 12.3119 24.0444 12.3096 23.9096C12.3099 23.6391 12.4151 23.3792 12.6031 23.1847C12.791 22.9901 13.0471 22.8759 13.3174 22.8662Z" fill="white"/>
<path d="M24.3551 31.7317C24.3617 31.5328 24.4267 31.3403 24.5421 31.1782C24.6575 31.0161 24.8181 30.8917 25.0039 30.8204C25.1897 30.7491 25.3923 30.7341 25.5865 30.7774C25.7807 30.8206 25.9579 30.9202 26.0958 31.0636C26.2338 31.207 26.3264 31.3878 26.3621 31.5836C26.3978 31.7793 26.375 31.9813 26.2966 32.1641C26.2181 32.347 26.0875 32.5027 25.9211 32.6117C25.7547 32.7207 25.5598 32.7783 25.3608 32.7772C25.2255 32.7765 25.0918 32.7488 24.9674 32.6955C24.8431 32.6423 24.7307 32.5646 24.6369 32.4671C24.5431 32.3696 24.4698 32.2543 24.4214 32.128C24.373 32.0016 24.3505 31.8669 24.3551 31.7317Z" fill="white"/>
<path d="M18.5493 40.6724C18.546 40.8716 18.4839 41.0654 18.371 41.2295C18.258 41.3936 18.0992 41.5207 17.9143 41.5949C17.7294 41.6691 17.5267 41.687 17.3317 41.6466C17.1366 41.6061 16.9579 41.5089 16.8178 41.3672C16.6777 41.2256 16.5826 41.0457 16.5443 40.8502C16.506 40.6547 16.5262 40.4523 16.6025 40.2683C16.6788 40.0842 16.8076 39.9268 16.973 39.8157C17.1383 39.7046 17.3328 39.6447 17.532 39.6437C17.6667 39.6431 17.8002 39.6694 17.9246 39.7211C18.0491 39.7727 18.162 39.8486 18.2567 39.9444C18.3514 40.0402 18.4261 40.1539 18.4763 40.2789C18.5265 40.4039 18.5513 40.5377 18.5493 40.6724Z" fill="white"/>
<path d="M34.5647 18.6897C34.5739 18.4906 34.6416 18.2986 34.7594 18.1379C34.8772 17.9771 35.0398 17.8547 35.2269 17.786C35.414 17.7173 35.6171 17.7054 35.811 17.7517C36.0048 17.7981 36.1806 17.9006 36.3164 18.0465C36.4522 18.1924 36.5419 18.3751 36.5743 18.5717C36.6066 18.7684 36.5802 18.9702 36.4983 19.1519C36.4164 19.3336 36.2826 19.487 36.1139 19.593C35.9451 19.699 35.7488 19.7528 35.5496 19.7477C35.4148 19.7448 35.282 19.7149 35.1591 19.6597C35.0361 19.6046 34.9254 19.5254 34.8336 19.4267C34.7418 19.3281 34.6707 19.212 34.6245 19.0854C34.5783 18.9588 34.558 18.8243 34.5647 18.6897Z" fill="white"/>
<path d="M30.525 37.9365C30.2626 37.9329 30.0121 37.8262 29.8278 37.6393C29.6435 37.4525 29.5402 37.2005 29.5402 36.9381C29.538 36.8037 29.5623 36.6701 29.6119 36.5451C29.6615 36.4201 29.7353 36.3062 29.829 36.2098C29.9228 36.1134 30.0346 36.0365 30.1582 35.9835C30.2818 35.9305 30.4146 35.9025 30.549 35.901C30.6876 35.9052 30.824 35.9368 30.9502 35.9942C31.0765 36.0516 31.19 36.1335 31.2843 36.2351C31.3786 36.3368 31.4517 36.4562 31.4994 36.5864C31.5471 36.7166 31.5684 36.855 31.5621 36.9935C31.5477 37.2554 31.4309 37.5011 31.2369 37.6776C31.0428 37.854 30.7871 37.9471 30.525 37.9365Z" fill="white"/>
<path d="M6.86443 6.49855C6.72548 6.49726 6.5882 6.46808 6.46074 6.41276C6.33327 6.35743 6.21821 6.27709 6.12237 6.17647C6.02653 6.07586 5.95187 5.95702 5.90281 5.82702C5.85374 5.69702 5.83128 5.55849 5.83674 5.41964C5.85014 5.14924 5.96539 4.89393 6.15934 4.70503C6.35328 4.51613 6.61153 4.40764 6.8822 4.40137C7.02118 4.40134 7.15877 4.42902 7.28692 4.4828C7.41507 4.53658 7.53121 4.61537 7.62856 4.71456C7.7259 4.81376 7.80249 4.93137 7.85385 5.06051C7.9052 5.18965 7.93029 5.32773 7.92765 5.46669C7.92964 5.60542 7.90326 5.74309 7.85012 5.87125C7.79698 5.99942 7.71822 6.11537 7.61865 6.212C7.51909 6.30863 7.40083 6.38389 7.27113 6.43317C7.14143 6.48244 7.00303 6.50469 6.86443 6.49855Z" fill="white"/>
<path d="M19.3605 6.49862C19.2217 6.50429 19.0831 6.48168 18.9532 6.43216C18.8234 6.38264 18.7049 6.30724 18.6051 6.21054C18.5053 6.11384 18.4262 5.99786 18.3725 5.86964C18.3189 5.74143 18.2919 5.60364 18.2931 5.46466C18.2906 5.3258 18.3158 5.18782 18.3672 5.0588C18.4187 4.92978 18.4953 4.8123 18.5926 4.71322C18.6899 4.61414 18.806 4.53545 18.9341 4.48174C19.0622 4.42802 19.1997 4.40037 19.3386 4.40039C19.6101 4.4078 19.869 4.51687 20.0639 4.70602C20.2589 4.89517 20.3758 5.15062 20.3914 5.4218C20.3955 5.56049 20.3721 5.69862 20.3223 5.82814C20.2726 5.95766 20.1975 6.07598 20.1016 6.1762C20.0056 6.27643 19.8907 6.35656 19.7635 6.41191C19.6363 6.46727 19.4993 6.49674 19.3605 6.49862Z" fill="white"/>
<path d="M13.0893 6.49855C12.9503 6.49836 12.8128 6.46979 12.6852 6.41458C12.5576 6.35938 12.4426 6.2787 12.3473 6.17749C12.2519 6.07629 12.1783 5.95668 12.1308 5.82601C12.0833 5.69534 12.063 5.55635 12.0711 5.41755C12.0787 5.14538 12.1922 4.88692 12.3874 4.69715C12.5827 4.50738 12.8443 4.40126 13.1165 4.40137C13.397 4.40522 13.6646 4.5194 13.8615 4.7192C14.0583 4.91899 14.1686 5.1883 14.1683 5.46878C14.1675 5.60799 14.1388 5.74562 14.0837 5.87347C14.0286 6.00131 13.9483 6.11674 13.8476 6.21286C13.7469 6.30897 13.6278 6.38381 13.4975 6.4329C13.3673 6.48198 13.2284 6.50431 13.0893 6.49855Z" fill="white"/>
</svg>
