<svg width="51" height="50" viewBox="0 0 51 50" fill="none" xmlns="http://www.w3.org/2000/svg">
<path d="M36.682 50H13.4015C12.775 49.6514 12.5412 49.1162 12.5992 48.4111C12.6365 47.9574 12.5992 47.4978 12.6218 47.0422C12.6787 45.9826 13.4074 45.0192 14.4267 44.7246C14.8568 44.6009 15.3233 44.5813 15.775 44.5597C16.3367 44.5332 16.8994 44.5528 17.469 44.5528V41.9328H16.8699C14.8653 41.9328 12.8604 41.9328 10.8551 41.9328C10.66 41.9367 10.4649 41.9212 10.2728 41.8866C9.89669 41.81 9.716 41.5331 9.7268 41.1786C9.73761 40.8241 9.9291 40.558 10.3101 40.502C10.5201 40.4753 10.7318 40.4638 10.9435 40.4676H26.1421V39.1969C26.1421 37.6699 26.5093 37.28 28.0423 37.1769C28.0768 37.1683 28.1098 37.1547 28.1405 37.1366V35.9582H1.46614V38.3426C1.46614 39.8058 2.12016 40.4627 3.57942 40.4676C4.31299 40.4676 5.04655 40.4608 5.78011 40.4676C6.36931 40.4745 6.69829 40.7387 6.70811 41.1815C6.71891 41.6421 6.37619 41.921 5.76145 41.9308C5.1909 41.9406 4.62036 41.9475 4.04981 41.9308C3.51461 41.9131 2.96272 41.9308 2.45011 41.8091C0.878898 41.4221 0 40.1711 0 38.425C0 26.7987 0 15.1734 0 3.54898C0 1.32865 1.33553 0.00098201 3.56764 0H14.8608C25.4075 0 35.9543 0.00523475 46.5011 0.0157095C47.1159 0.0226752 47.7238 0.145268 48.2933 0.377088C49.3263 0.797388 49.7997 1.7136 50.0844 2.7398V35.0283C50.0635 36.1831 50.0435 37.338 50.0245 38.4928C50 40.1347 49.3126 41.1393 47.8042 41.7688C47.7399 41.8009 47.6835 41.8468 47.6389 41.9031C47.5942 41.9594 47.5625 42.0249 47.546 42.0948C47.3987 43.1976 46.9185 43.6356 45.8049 43.6356C41.5842 43.6356 37.3635 43.6356 33.1428 43.6356H32.5831V44.5528C33.2705 44.5528 33.9157 44.541 34.5638 44.5528C36.3314 44.5891 37.4116 45.6801 37.4381 47.4458C37.4381 47.706 37.4195 47.9692 37.4381 48.2314C37.5118 48.963 37.334 49.5797 36.682 50ZM48.5181 34.4234V10.0047H1.49756V34.4096H26.1303C26.1478 34.3677 26.1603 34.3238 26.1676 34.279C26.1617 33.2518 26.1902 32.2227 26.1362 31.1984C26.0694 29.9218 26.5771 29.1244 28.0501 29.1726C28.0776 29.1726 28.1051 29.148 28.1483 29.1293V27.6868C28.0501 27.676 27.9912 27.6652 27.9264 27.6622C26.6223 27.6112 26.146 27.1182 26.145 25.8141C26.145 24.8687 26.145 23.9231 26.145 22.9771C26.145 21.7417 26.6684 21.2094 27.892 21.2094C30.9245 21.2094 33.9569 21.2094 36.9894 21.2094C37.7632 21.2094 38.102 21.4216 38.1187 21.9126C38.1354 22.4212 37.7602 22.6736 36.9835 22.6746H27.6377V26.1588H46.0739C46.0739 25.1365 46.0739 24.1456 46.0739 23.1548C46.0739 23.0114 46.0602 22.869 46.0504 22.6746H45.5004C44.3593 22.6746 43.2182 22.6844 42.0771 22.6687C41.5439 22.6618 41.2218 22.3505 41.2326 21.9175C41.2434 21.4844 41.5488 21.2163 42.0624 21.2134C43.4146 21.2055 44.7678 21.1986 46.1211 21.2193C46.3058 21.2157 46.4894 21.2492 46.6609 21.3179C46.8325 21.3865 46.9885 21.4889 47.1198 21.6189C47.2511 21.7489 47.355 21.904 47.4253 22.0748C47.4957 22.2457 47.531 22.4289 47.5293 22.6137C47.5558 23.8196 47.5538 25.0275 47.5293 26.2334C47.5145 26.9817 47.0078 27.51 46.2674 27.6249C46.0297 27.6612 45.7882 27.6691 45.5417 27.6907V29.1559C45.8215 29.1794 46.0661 29.1853 46.3057 29.2236C46.6238 29.2658 46.918 29.4154 47.1396 29.6475C47.3612 29.8797 47.4969 30.1805 47.5243 30.5002C47.5396 30.7117 47.5435 30.9237 47.5361 31.1356C47.5361 32.2237 47.5361 33.3107 47.5361 34.4214L48.5181 34.4234ZM48.5329 8.47867C48.5417 8.30878 48.5564 8.16541 48.5564 8.02204C48.5564 6.50483 48.5623 4.98861 48.5564 3.47238C48.5505 2.13423 47.8749 1.46548 46.5296 1.46614H3.53916C2.20952 1.46614 1.52899 2.14569 1.5231 3.48711C1.51622 5.00333 1.5231 6.51956 1.5231 8.03676C1.5231 8.17817 1.54274 8.31958 1.55354 8.47867H48.5329ZM35.972 48.5447V47.6608C35.972 46.4481 35.5399 46.017 34.3271 46.017C28.1202 46.017 21.9129 46.017 15.7053 46.017C15.4776 46.0084 15.2497 46.0252 15.0257 46.067C14.519 46.1819 14.1684 46.5148 14.1017 47.0206C14.0349 47.5263 14.0879 48.0193 14.0879 48.5456L35.972 48.5447ZM27.6249 42.1272H46.0445V38.6764H27.6308L27.6249 42.1272ZM46.0474 30.6868H27.6387V34.1347H46.0533L46.0474 30.6868ZM31.0551 44.5224V43.6601C30.9225 43.6503 30.8125 43.6346 30.7025 43.6346C29.692 43.6346 28.6825 43.6425 27.673 43.6346C26.8364 43.6248 26.2982 43.1436 26.1617 42.3325C26.1401 42.2097 26.1175 42.0879 26.0959 41.9711H18.9989V44.5243L31.0551 44.5224ZM29.6567 37.1484H44.0019V35.6754H29.6567V37.1484ZM29.6665 29.1519H43.998V27.6858H29.6665V29.1519ZM45.5466 35.9445V37.1612C45.6448 37.17 45.7066 37.1799 45.7715 37.1808C47.0481 37.2152 47.5391 37.716 47.5391 38.976V40.2712C48.1086 39.9923 48.4632 39.5946 48.4946 39.082C48.5564 38.0489 48.5132 37.009 48.5132 35.9396L45.5466 35.9445Z" fill="black"/>
<path d="M48.5353 8.47871H1.55303C1.54223 8.31963 1.52259 8.17822 1.52259 8.03681C1.52259 6.51961 1.51571 5.00338 1.52259 3.48716C1.52848 2.14573 2.20999 1.46619 3.53865 1.46619H46.531C47.8744 1.46619 48.55 2.13493 48.5579 3.47243C48.5648 4.98865 48.5579 6.50488 48.5579 8.02208C48.5638 8.16546 48.5441 8.30784 48.5353 8.47871ZM7.5423 4.96901C7.54477 4.68779 7.49145 4.40887 7.38541 4.14839C7.27938 3.88791 7.12274 3.65105 6.92456 3.4515C6.72639 3.25196 6.49061 3.09369 6.23086 2.98586C5.97112 2.87804 5.69258 2.82279 5.41134 2.82332C4.84293 2.82328 4.2974 3.04725 3.89299 3.44669C3.48859 3.84614 3.2579 4.38886 3.25092 4.95723C3.25747 5.52581 3.48532 6.06945 3.8861 6.47281C4.28689 6.87616 4.82907 7.10747 5.3976 7.11765C5.96581 7.11353 6.50953 6.8857 6.91096 6.48353C7.3124 6.08137 7.53922 5.53724 7.5423 4.96901ZM13.0209 4.94054C13.019 4.65944 12.9615 4.3815 12.8517 4.12273C12.7419 3.86395 12.582 3.62946 12.3812 3.43275C12.1804 3.23605 11.9426 3.08102 11.6816 2.9766C11.4207 2.87217 11.1416 2.82041 10.8605 2.8243C9.68701 2.83412 8.70991 3.82497 8.73054 4.98472C8.75116 6.14448 9.75084 7.13533 10.9057 7.11667C11.4734 7.10481 12.0135 6.86995 12.4094 6.46289C12.8052 6.05583 13.0249 5.5093 13.0209 4.94151V4.94054ZM16.3774 2.82332C15.8093 2.82039 15.2629 3.04134 14.8566 3.43835C14.4502 3.83535 14.2165 4.37644 14.2062 4.94446C14.1915 6.10422 15.1686 7.09801 16.3411 7.11568C16.9095 7.11573 17.4551 6.89176 17.8595 6.49231C18.2639 6.09287 18.4946 5.55015 18.5015 4.98178C18.5053 4.70022 18.4532 4.42071 18.3482 4.15944C18.2432 3.89816 18.0874 3.66031 17.8898 3.45965C17.6923 3.259 17.4569 3.09952 17.1973 2.99047C16.9377 2.88141 16.659 2.82493 16.3774 2.8243V2.82332Z" fill="#FF5366"/>
<path d="M27.6309 42.1302V38.6794H46.0445V42.1302H27.6309ZM41.6569 41.1374C42.4425 41.1374 43.2183 41.1463 43.998 41.1374C44.547 41.1286 44.87 40.8585 44.8818 40.4333C44.8936 40.0081 44.5548 39.687 43.9911 39.6831C42.4461 39.6732 40.9014 39.6732 39.357 39.6831C38.7796 39.6831 38.4487 39.9688 38.4497 40.4137C38.4506 40.8585 38.7826 41.1305 39.361 41.1384C40.1279 41.1453 40.8929 41.1374 41.6569 41.1374ZM31.2476 41.1374C31.8015 41.1374 32.3553 41.1482 32.9082 41.1374C33.4611 41.1266 33.7655 40.8693 33.7704 40.4205C33.7753 39.9718 33.4827 39.6919 32.9268 39.685C31.8362 39.67 30.7455 39.67 29.6548 39.685C29.1127 39.6919 28.7995 39.9894 28.8093 40.4264C28.8191 40.8634 29.1294 41.1237 29.6852 41.1374C30.2008 41.1472 30.7252 41.1374 31.2456 41.1374H31.2476ZM36.083 41.1492C36.3285 41.1374 36.5563 41.1394 36.7802 41.1109C37.173 41.0598 37.3891 40.8163 37.395 40.4235C37.4009 40.0307 37.2064 39.7488 36.8058 39.7174C36.339 39.6793 35.8699 39.6809 35.4035 39.7223C35.0352 39.7557 34.8359 40.0297 34.83 40.395C34.8241 40.7878 35.0332 41.0382 35.4192 41.105C35.6388 41.1321 35.8598 41.1469 36.0811 41.1492H36.083Z" fill="#FF5366"/>
<path d="M46.0533 30.6898V34.1347H27.6387V30.6898H46.0533ZM41.6824 31.6924C40.9017 31.6924 40.12 31.6924 39.3393 31.6924C38.7963 31.6924 38.4702 31.9605 38.4555 32.3897C38.4378 32.8365 38.7786 33.1497 39.3393 33.1527C40.9007 33.1625 42.4624 33.1625 44.0245 33.1527C44.5597 33.1527 44.8896 32.8493 44.8916 32.4201C44.8936 31.991 44.5607 31.6993 44.0294 31.6944C43.2438 31.6866 42.4631 31.6934 41.6824 31.6924ZM31.2947 33.1576C31.8485 33.1576 32.4034 33.1714 32.9563 33.1576C33.4649 33.1419 33.7664 32.8561 33.7703 32.4319C33.7703 31.9871 33.462 31.7042 32.9258 31.7003C31.8502 31.6924 30.7749 31.6924 29.6999 31.7003C29.1274 31.7003 28.7935 31.987 28.8033 32.4398C28.8132 32.8699 29.1411 33.1488 29.6871 33.1615C30.2331 33.1743 30.7575 33.1576 31.2947 33.1576ZM36.1164 33.1694V33.1497C36.3103 33.161 36.5047 33.161 36.6987 33.1497C37.1593 33.0938 37.4313 32.7894 37.393 32.373C37.3517 31.9291 37.0807 31.7131 36.6476 31.7013C36.2754 31.6915 35.9013 31.6856 35.5301 31.7013C35.1177 31.7229 34.8633 31.9576 34.8329 32.371C34.8024 32.7844 35.0401 33.0447 35.4388 33.1252C35.6634 33.1553 35.8898 33.1701 36.1164 33.1694Z" fill="#FF5366"/>
<path d="M29.9778 14.5641H37.3045C37.4835 14.5557 37.6629 14.5626 37.8407 14.5848C38.207 14.6496 38.4731 14.9 38.4191 15.2506C38.3798 15.5059 38.152 15.7671 37.9419 15.9498C37.8221 16.0548 37.5697 16.0264 37.3762 16.0264C32.459 16.0303 27.5414 16.0303 22.6235 16.0264C22.4271 16.0264 22.1786 16.0539 22.0579 15.9498C21.8477 15.7661 21.6159 15.5039 21.5806 15.2486C21.5344 14.9069 21.7888 14.6427 22.1629 14.5848C22.3409 14.5645 22.5201 14.5579 22.6991 14.5651C25.1247 14.5632 27.5509 14.5628 29.9778 14.5641Z" fill="black"/>
<path d="M16.3621 21.3106C17.7634 21.3106 19.1637 21.2909 20.5641 21.3283C20.8591 21.353 21.1335 21.4897 21.331 21.7103C21.6011 22.0383 21.3831 22.5568 20.9697 22.6992C20.7989 22.7514 20.6208 22.776 20.4423 22.7718C17.7392 22.7764 15.0357 22.7764 12.3319 22.7718C12.2661 22.7718 12.2013 22.7718 12.1355 22.7718C11.5993 22.7335 11.2988 22.4478 11.3204 21.998C11.3401 21.5679 11.6307 21.3106 12.16 21.3106C13.5614 21.3057 14.9617 21.3106 16.3621 21.3106Z" fill="black"/>
<path d="M5.00183 15.4362C5.51247 15.939 5.98384 16.4045 6.45815 16.8709C6.59006 16.9933 6.71343 17.1245 6.82738 17.2637C7.07976 17.5917 7.08664 17.9374 6.79498 18.2349C6.50332 18.5325 6.13016 18.5678 5.83163 18.284C5.01852 17.5122 4.22408 16.7197 3.44829 15.9066C3.14681 15.5914 3.20279 15.2045 3.5023 14.8971C4.24077 14.1409 4.98612 13.3897 5.74717 12.6552C6.08106 12.3331 6.51314 12.3458 6.79498 12.6306C7.07682 12.9154 7.08958 13.3259 6.77141 13.6804C6.50038 13.9838 6.20283 14.2627 5.91412 14.5495C5.62541 14.8362 5.33669 15.1102 5.00183 15.4362Z" fill="black"/>
<path d="M21.1335 27.4687C22.142 27.4687 23.1515 27.4628 24.16 27.4687C24.7257 27.4687 25.0281 27.7192 25.0439 28.1561C25.0635 28.6167 24.7493 28.9231 24.1758 28.926C22.1253 28.9365 20.0746 28.9365 18.0235 28.926C17.4853 28.926 17.1583 28.6246 17.1514 28.1984C17.1456 27.7496 17.4765 27.4697 18.0539 27.4658C19.0821 27.4628 20.1083 27.4687 21.1335 27.4687Z" fill="black"/>
<path d="M13.0786 15.4412C12.4805 14.852 11.9414 14.3344 11.4091 13.8042C10.9771 13.3691 10.9388 12.942 11.2834 12.614C11.6075 12.3056 12.0209 12.3537 12.4383 12.7662C13.1208 13.4408 13.8023 14.1194 14.474 14.8048C14.9139 15.2536 14.9149 15.6199 14.474 16.0726C13.7905 16.7711 13.0995 17.4618 12.401 18.1446C12.0033 18.5375 11.5977 18.56 11.2776 18.2517C10.9574 17.9433 10.978 17.5054 11.3846 17.0959C11.9237 16.5567 12.4776 16.0265 13.0786 15.4412Z" fill="black"/>
<path d="M12.2201 25.8524C11.243 25.8524 10.2649 25.8524 9.2868 25.8524C8.69072 25.8524 8.37059 25.599 8.35684 25.1483C8.34309 24.6975 8.68778 24.3902 9.29466 24.3882C11.2498 24.3813 13.206 24.3882 15.1622 24.3882C15.2278 24.3866 15.2934 24.3896 15.3586 24.397C15.827 24.4589 16.1069 24.7515 16.0902 25.1581C16.0735 25.5646 15.7867 25.8455 15.3046 25.8455C14.2784 25.8583 13.2512 25.8455 12.224 25.8455L12.2201 25.8524Z" fill="black"/>
<path d="M32.2853 17.7911C33.2624 17.7911 34.2385 17.7911 35.2146 17.7911C35.7675 17.7911 36.0827 18.0543 36.0984 18.4893C36.1131 18.943 35.7851 19.2474 35.2146 19.2494C33.2447 19.2592 31.2754 19.2592 29.3068 19.2494C28.7343 19.2494 28.3936 18.9548 28.3936 18.5129C28.3936 18.071 28.7304 17.7931 29.3068 17.7892C30.2987 17.7862 31.2924 17.7911 32.2853 17.7911Z" fill="black"/>
<path d="M19.614 17.791C20.4133 17.791 21.2117 17.791 22.0101 17.791C22.5747 17.7959 22.8801 18.0424 22.8939 18.4833C22.9125 18.9478 22.5993 19.2464 22.0218 19.2503C20.376 19.2608 18.7298 19.2608 17.0833 19.2503C16.5108 19.2503 16.1838 18.9557 16.1946 18.4961C16.2054 18.0365 16.5196 17.794 17.1177 17.79C17.9514 17.7861 18.7832 17.79 19.614 17.791Z" fill="black"/>
<path d="M41.6694 25.1541C40.8887 25.1541 40.108 25.16 39.3273 25.1541C38.7911 25.1541 38.4602 24.8713 38.4513 24.4432C38.4425 24.015 38.7725 23.6968 39.2978 23.6939C40.8763 23.6821 42.454 23.6821 44.0311 23.6939C44.5575 23.6939 44.8923 24.0121 44.8855 24.4402C44.8786 24.8684 44.5496 25.1502 44.0115 25.1551C43.2308 25.16 42.4501 25.1541 41.6694 25.1541Z" fill="black"/>
<path d="M8.37741 18.4588C7.8049 18.4726 7.45432 18.1004 7.50244 17.6644C7.5285 17.4875 7.57769 17.3148 7.64876 17.1508C8.16923 15.8166 8.69297 14.4833 9.21998 13.151C9.2594 13.0439 9.30598 12.9396 9.35942 12.8388C9.5735 12.4538 9.94863 12.3016 10.3041 12.4794C10.6596 12.6571 10.8423 12.9704 10.69 13.37C10.1008 14.9206 9.49985 16.4702 8.86842 18.0051C8.77807 18.2261 8.48936 18.3586 8.37741 18.4588Z" fill="black"/>
<path d="M12.9221 27.4688C13.6871 27.4688 14.4521 27.4619 15.217 27.4688C15.7729 27.4756 16.0861 27.7319 16.1009 28.167C16.1156 28.602 15.7778 28.9261 15.217 28.93C13.6714 28.9411 12.1254 28.9411 10.579 28.93C10.0428 28.93 9.71583 28.6207 9.71485 28.1935C9.71386 27.7663 10.0379 27.4776 10.5771 27.4707C11.3597 27.4619 12.1414 27.4688 12.9221 27.4688Z" fill="black"/>
<path d="M6.8753 21.3106C7.66091 21.3106 8.43768 21.3037 9.21936 21.3106C9.72902 21.3165 10.0442 21.5845 10.0649 21.998C10.0855 22.4114 9.76045 22.76 9.23802 22.7649C7.6596 22.78 6.08118 22.78 4.50277 22.7649C3.96561 22.7649 3.67101 22.4467 3.69359 21.9931C3.71421 21.5629 4.00096 21.3174 4.53223 21.3057C5.31391 21.3037 6.0946 21.3106 6.8753 21.3106Z" fill="black"/>
<path d="M6.31461 27.4698C6.91658 27.4698 7.51953 27.459 8.12052 27.4698C8.61152 27.4816 8.8914 27.7408 8.90613 28.1572C8.92577 28.5893 8.64295 28.9114 8.1382 28.9212C6.91854 28.9448 5.6979 28.9448 4.47628 28.9212C3.96466 28.9134 3.68086 28.6079 3.69068 28.1759C3.7005 27.7438 3.98037 27.4796 4.50574 27.4678C5.10968 27.457 5.71165 27.4698 6.31461 27.4698Z" fill="black"/>
<path d="M31.3045 25.1542C30.7506 25.1542 30.1968 25.162 29.6429 25.1542C29.1284 25.1443 28.8239 24.8802 28.8073 24.454C28.7906 24.0278 29.1166 23.7008 29.642 23.6939C30.733 23.6792 31.824 23.6812 32.916 23.6939C33.4551 23.6998 33.7693 23.9885 33.7703 24.4294C33.7713 24.8704 33.458 25.1473 32.9179 25.1551C32.3778 25.163 31.8426 25.1542 31.3045 25.1542Z" fill="black"/>
<path d="M18.1964 14.5671C18.6019 14.5671 19.0085 14.5573 19.4131 14.5671C19.8442 14.5808 20.1172 14.7979 20.1545 15.2437C20.1898 15.6601 19.9168 15.992 19.4514 16.0097C18.6088 16.0411 17.7643 16.0391 16.9217 16.0097C16.4592 15.9949 16.1813 15.663 16.198 15.2565C16.2147 14.8499 16.4985 14.5808 16.9836 14.5691C17.3852 14.5553 17.7908 14.5661 18.1964 14.5671Z" fill="black"/>
<path d="M22.8164 25.8464C22.4236 25.8464 22.0308 25.8592 21.6449 25.8464C21.2334 25.8297 20.9742 25.6147 20.93 25.1924C20.8858 24.7702 21.1264 24.4451 21.5683 24.4235C22.4118 24.3823 23.2593 24.3823 24.1029 24.4235C24.198 24.4243 24.2918 24.4456 24.3779 24.486C24.464 24.5264 24.5403 24.5849 24.6017 24.6576C24.663 24.7302 24.708 24.8153 24.7334 24.9069C24.7588 24.9986 24.7642 25.0946 24.749 25.1885C24.7038 25.6039 24.4544 25.8209 24.0371 25.8504C24.0047 25.8504 23.9723 25.8553 23.9389 25.8553H22.8164V25.8464Z" fill="black"/>
<path d="M25.719 17.797C26.0765 17.797 26.4349 17.7822 26.7914 17.797C27.2058 17.8186 27.4602 18.0542 27.4857 18.4696C27.5112 18.885 27.2795 19.1904 26.8729 19.212C26.095 19.2518 25.3156 19.2518 24.5377 19.212C24.1272 19.1924 23.9072 18.887 23.9043 18.4775C23.9043 18.0847 24.2048 17.8127 24.6457 17.7901C25.0032 17.7724 25.3606 17.7901 25.719 17.7901V17.797Z" fill="black"/>
<path d="M5.41938 25.8485C5.09434 25.8485 4.76929 25.8573 4.44425 25.8485C4.01118 25.8357 3.73524 25.6275 3.69596 25.1778C3.65962 24.7712 3.90218 24.4413 4.34506 24.4177C5.09133 24.3814 5.83896 24.3833 6.58503 24.4236C6.99452 24.4452 7.22039 24.7388 7.2253 25.1522C7.23119 25.5352 6.9248 25.8112 6.49272 25.8485C6.46031 25.8485 6.4279 25.8534 6.39452 25.8534H5.4184L5.41938 25.8485Z" fill="black"/>
<path d="M18.6719 25.8367C18.4295 25.8495 18.1866 25.8495 17.9443 25.8367C17.574 25.7984 17.355 25.5637 17.3217 25.2013C17.2883 24.839 17.4503 24.5139 17.8127 24.4707C18.388 24.4079 18.9686 24.4079 19.5439 24.4707C19.9014 24.51 20.0723 24.8439 20.035 25.2033C19.9976 25.5627 19.7826 25.8033 19.4055 25.8357C19.159 25.8544 18.9145 25.8377 18.6719 25.8367Z" fill="black"/>
<path d="M36.1 25.1433C35.8901 25.1561 35.6795 25.1561 35.4696 25.1433C35.1053 25.0991 34.8804 24.8802 34.8352 24.5139C34.792 24.1211 34.9796 23.8058 35.3596 23.7567C35.8556 23.6929 36.3575 23.6899 36.8542 23.7479C37.2362 23.7921 37.4238 24.1024 37.3914 24.4952C37.359 24.888 37.1194 25.109 36.7324 25.1473C36.5218 25.1581 36.3107 25.1581 36.1 25.1473V25.1433Z" fill="black"/>
<path d="M7.54235 4.96894C7.53901 5.53665 7.31234 6.08024 6.91136 6.48214C6.51038 6.88404 5.96731 7.11196 5.3996 7.11659C4.83108 7.10641 4.2889 6.87511 3.88811 6.47175C3.48732 6.0684 3.25948 5.52475 3.25293 4.95617C3.25991 4.3878 3.4906 3.84508 3.895 3.44564C4.2994 3.0462 4.84494 2.82222 5.41335 2.82227C5.6945 2.822 5.97292 2.87747 6.2325 2.98547C6.49208 3.09347 6.72767 3.25186 6.92565 3.45149C7.12363 3.65111 7.28007 3.88801 7.38593 4.14847C7.49178 4.40893 7.54494 4.6878 7.54235 4.96894ZM4.72398 4.94537C4.72749 5.12515 4.79908 5.2969 4.9243 5.42594C5.04951 5.55499 5.21903 5.63172 5.39862 5.64064C5.56971 5.63746 5.73346 5.57058 5.85787 5.45308C5.98227 5.33558 6.05837 5.1759 6.0713 5.00527C6.07811 4.91649 6.06685 4.82725 6.03822 4.74294C6.00958 4.65864 5.96416 4.58101 5.90469 4.51474C5.84521 4.44848 5.77293 4.39495 5.69219 4.3574C5.61146 4.31985 5.52395 4.29905 5.43495 4.29626C5.25489 4.28983 5.0795 4.35434 4.94653 4.47593C4.81356 4.59751 4.73365 4.76644 4.72398 4.94635V4.94537Z" fill="black"/>
<path d="M13.0212 4.94151C13.0257 5.5098 12.8061 6.05698 12.41 6.46449C12.0139 6.872 11.4732 7.10703 10.905 7.11863C9.75015 7.13729 8.75145 6.15724 8.72984 4.98669C8.70824 3.81613 9.68632 2.83511 10.8598 2.82627C11.1409 2.82224 11.42 2.87387 11.681 2.97818C11.9421 3.08248 12.1799 3.2374 12.3808 3.43402C12.5817 3.63063 12.7417 3.86506 12.8516 4.12378C12.9615 4.38251 13.0192 4.66042 13.0212 4.94151ZM11.5482 4.98178C11.5516 4.89282 11.5371 4.80408 11.5054 4.72087C11.4738 4.63767 11.4257 4.5617 11.364 4.49752C11.3023 4.43335 11.2282 4.38228 11.1463 4.34737C11.0644 4.31246 10.9763 4.29444 10.8873 4.29437C10.5171 4.29437 10.1842 4.60469 10.2088 4.96803C10.2343 5.36083 10.4611 5.59456 10.851 5.63384C11.2143 5.67213 11.5423 5.352 11.5492 4.98178H11.5482Z" fill="black"/>
<path d="M16.3775 2.82427C16.659 2.82541 16.9375 2.88236 17.1968 2.99184C17.4561 3.10131 17.6912 3.26113 17.8884 3.46205C18.0856 3.66297 18.2409 3.90099 18.3455 4.16236C18.4501 4.42372 18.5018 4.70322 18.4976 4.98469C18.4906 5.55306 18.26 6.09579 17.8556 6.49523C17.4511 6.89467 16.9056 7.11865 16.3372 7.1186C15.1647 7.10093 14.1876 6.10713 14.2023 4.94738C14.2121 4.37833 14.4461 3.83614 14.8534 3.43861C15.2607 3.04107 15.8083 2.82031 16.3775 2.82427ZM16.3667 4.29729C16.1869 4.29724 16.0142 4.36764 15.8857 4.49339C15.7572 4.61913 15.6831 4.79022 15.6793 4.96997C15.6793 5.32742 16.021 5.67407 16.3745 5.63871C16.7526 5.60042 17.0069 5.39517 17.0256 4.98469C17.03 4.89561 17.0162 4.80657 16.985 4.72301C16.9538 4.63944 16.906 4.56311 16.8443 4.49868C16.7826 4.43425 16.7085 4.38307 16.6263 4.34827C16.5442 4.31348 16.4559 4.2958 16.3667 4.29631V4.29729Z" fill="black"/>
<path d="M41.6564 41.1374C40.8924 41.1374 40.1275 41.1452 39.3635 41.1374C38.785 41.1295 38.4531 40.8546 38.4522 40.4127C38.4512 39.9708 38.7821 39.685 39.3595 39.682C40.9046 39.6735 42.4493 39.6735 43.9936 39.682C44.5573 39.682 44.9 39.9943 44.8843 40.4323C44.8686 40.8703 44.5465 41.1276 44.0005 41.1364C43.2178 41.1462 42.4371 41.1374 41.6564 41.1374Z" fill="black"/>
<path d="M31.2452 41.1374C30.7247 41.1374 30.2033 41.1472 29.6828 41.1374C29.127 41.1236 28.8167 40.8614 28.8069 40.4264C28.797 39.9914 29.1103 39.6919 29.6524 39.685C30.7424 39.6699 31.8331 39.6699 32.9244 39.685C33.4802 39.6919 33.7729 39.9688 33.768 40.4205C33.7631 40.8722 33.4734 41.1236 32.9058 41.1374C32.3382 41.1511 31.799 41.1374 31.2452 41.1374Z" fill="black"/>
<path d="M36.0814 41.1492C35.8614 41.1463 35.6418 41.1313 35.4235 41.104C35.0307 41.0372 34.8254 40.7829 34.8343 40.394C34.8402 40.0287 35.0395 39.7547 35.4078 39.7213C35.8742 39.6799 36.3433 39.6782 36.8101 39.7164C37.2078 39.7478 37.3993 40.0336 37.3993 40.4225C37.3993 40.8113 37.1803 41.0598 36.7845 41.1099C36.5547 41.1393 36.3269 41.1374 36.0814 41.1492Z" fill="black"/>
<path d="M41.6825 31.6924C42.4681 31.6924 43.2439 31.6865 44.0246 31.6924C44.5559 31.6924 44.8888 31.987 44.8868 32.4181C44.8848 32.8492 44.5549 33.1478 44.0197 33.1507C42.4583 33.1612 40.8966 33.1612 39.3345 33.1507C38.7758 33.1507 38.435 32.8345 38.4507 32.3877C38.4684 31.9586 38.7944 31.7003 39.3345 31.6905C40.1192 31.6885 40.9048 31.6924 41.6825 31.6924Z" fill="black"/>
<path d="M31.2943 33.1575C30.7572 33.1575 30.219 33.1674 29.6819 33.1575C29.1447 33.1477 28.8128 32.8629 28.7981 32.4358C28.7882 31.9831 29.1221 31.6993 29.6946 31.6963C30.7703 31.6904 31.8456 31.6904 32.9205 31.6963C33.4567 31.6963 33.77 31.9831 33.7651 32.4279C33.7651 32.8521 33.4597 33.1379 32.951 33.1536C32.403 33.1713 31.8482 33.1575 31.2943 33.1575Z" fill="black"/>
<path d="M36.1163 33.1693C35.8901 33.1703 35.664 33.1558 35.4397 33.1261C35.041 33.0456 34.8024 32.7922 34.8338 32.3719C34.8652 31.9516 35.1186 31.7238 35.531 31.7022C35.9022 31.6816 36.2764 31.6875 36.6486 31.7022C37.0816 31.714 37.3527 31.93 37.3939 32.3739C37.4322 32.7903 37.1602 33.0947 36.6996 33.1507C36.5057 33.1619 36.3113 33.1619 36.1173 33.1507L36.1163 33.1693Z" fill="black"/>
<path d="M4.72461 4.94643C4.73452 4.76669 4.81455 4.598 4.94749 4.47663C5.08043 4.35526 5.25568 4.29087 5.43558 4.29732C5.52458 4.30011 5.61209 4.32091 5.69282 4.35846C5.77356 4.39601 5.84584 4.44953 5.90531 4.5158C5.96479 4.58206 6.01021 4.65969 6.03885 4.744C6.06748 4.82831 6.07874 4.91755 6.07193 5.00633C6.059 5.17696 5.98289 5.33663 5.85849 5.45413C5.73409 5.57163 5.57034 5.63851 5.39925 5.64169C5.21966 5.63277 5.05014 5.55604 4.92493 5.427C4.79971 5.29795 4.72812 5.12621 4.72461 4.94643Z" fill="white"/>
<path d="M11.5497 4.98173C11.5409 5.35194 11.2149 5.66913 10.8525 5.63574C10.4597 5.59646 10.2358 5.3598 10.2103 4.96994C10.1857 4.6066 10.5186 4.29334 10.8888 4.29629C10.9777 4.29636 11.0656 4.31432 11.1474 4.34911C11.2291 4.38389 11.3031 4.43479 11.3647 4.49875C11.4264 4.56272 11.4746 4.63845 11.5064 4.72143C11.5381 4.8044 11.5529 4.89293 11.5497 4.98173Z" fill="white"/>
<path d="M16.3671 4.29628C16.4562 4.29577 16.5445 4.31343 16.6265 4.34816C16.7086 4.3829 16.7827 4.43399 16.8443 4.49831C16.906 4.56263 16.9539 4.63884 16.9852 4.72229C17.0164 4.80574 17.0303 4.89468 17.026 4.98368C17.0074 5.39416 16.753 5.5994 16.3749 5.6377C16.0214 5.67305 15.6875 5.3264 15.6797 4.96895C15.6835 4.7892 15.7577 4.61812 15.8862 4.49237C16.0147 4.36663 16.1873 4.29623 16.3671 4.29628Z" fill="white"/>
</svg>
