<svg width="51" height="50" viewBox="0 0 51 50" fill="none" xmlns="http://www.w3.org/2000/svg">
<path d="M50.9426 22.7602C50.8941 22.9845 50.8429 23.2087 50.7984 23.4343C49.9708 27.5486 46.6487 30.3054 42.3482 30.3644C39.0339 30.4103 35.7184 30.3749 32.4042 30.3723C32.255 30.3758 32.106 30.3599 31.9609 30.3251C31.7629 30.2855 31.5864 30.1742 31.4654 30.0125C31.3444 29.8508 31.2873 29.6501 31.3051 29.449C31.2977 29.2465 31.3667 29.0486 31.4984 28.8946C31.6301 28.7406 31.8148 28.6417 32.016 28.6175C32.2127 28.5892 32.4115 28.5787 32.6101 28.586C35.8417 28.586 39.0746 28.5939 42.3062 28.586C45.6178 28.5716 48.2553 26.4967 48.995 23.3543C49.9564 19.2374 46.7654 15.2071 42.5436 15.1966C42.4124 15.1966 42.2813 15.1966 42.1501 15.1966C41.3737 15.1966 41.013 14.7848 41.076 13.9992C41.3449 10.6259 40.3481 7.6763 38.0123 5.22768C33.0049 -0.00663008 24.4747 0.834062 20.5676 6.92742C20.5401 6.96939 20.5152 7.01267 20.4876 7.05857C19.9696 7.85205 19.4384 7.90451 18.7577 7.22907C15.9734 4.46437 11.5181 4.80668 9.24391 7.9832C8.00189 9.71835 7.75532 11.6266 8.41109 13.6529C8.44125 13.7474 8.47929 13.8392 8.50945 13.9336C8.73372 14.6418 8.45961 15.114 7.72253 15.2255C5.30408 15.594 3.48761 16.8255 2.44626 19.0486C0.339947 23.5458 3.57942 28.5375 8.61044 28.586C10.7154 28.6057 12.8204 28.586 14.9254 28.586C15.075 28.586 15.2245 28.586 15.3727 28.586C16.0061 28.6096 16.4088 28.969 16.3957 29.4949C16.3826 30.0208 15.993 30.3683 15.3845 30.3683C12.8926 30.3683 10.4085 30.4352 7.92713 30.3198C3.80894 30.1283 0.582577 26.9518 0.0579655 22.713C-0.422054 18.8794 2.12756 15.0012 5.91394 13.8077C6.10018 13.7487 6.28641 13.6857 6.4779 13.6228C5.80246 9.76294 6.93824 6.63494 10.3626 4.65191C13.4592 2.85643 16.5268 3.29055 19.386 5.35227C23.4333 0.571755 28.4014 -1.20537 34.4607 0.832746C37.0968 1.72065 39.1585 3.4558 40.7101 5.76671C42.2186 7.99348 42.9831 10.6408 42.8938 13.329C43.6807 13.506 44.4414 13.5913 45.1457 13.8536C48.3576 15.034 50.2711 17.3147 50.8508 20.6998C50.8736 20.7937 50.9034 20.8857 50.94 20.9752L50.9426 22.7602Z" fill="black"/>
<path d="M24.1455 18.7639V19.4735C24.1455 26.818 24.1455 34.16 24.1455 41.4993C24.1526 41.7145 24.1412 41.9299 24.1114 42.1432C24.088 42.335 23.997 42.5121 23.8547 42.6427C23.7123 42.7732 23.528 42.8487 23.3349 42.8554C23.17 42.8685 23.0045 42.8725 22.8392 42.8672H3.99385C2.94463 42.8672 2.70724 42.6259 2.70593 41.5845V38.3214C0.586497 37.3693 -0.285668 35.92 0.116971 34.0564C0.294999 33.266 0.736686 32.5596 1.36941 32.0536C2.00213 31.5475 2.78822 31.2718 3.59842 31.2718C4.40863 31.2718 5.19472 31.5475 5.82744 32.0536C6.46016 32.5596 6.90184 33.266 7.07987 34.0564C7.47333 35.9305 6.62215 37.3562 4.51977 38.3162V41.0573H22.3565V18.5003C22.3565 18.3351 22.3565 18.1685 22.3565 18.0033C22.3775 17.2845 22.6792 16.9829 23.3992 16.9816C25.8693 16.9816 28.3389 16.9816 30.808 16.9816H31.351L31.2566 16.8793C31.7209 16.2733 32.0986 15.5677 32.6678 15.0825C34.2665 13.7303 36.6837 14.1539 37.8378 15.9035C38.109 16.3168 38.2913 16.7819 38.3734 17.2693C38.4555 17.7568 38.4355 18.256 38.3147 18.7353C38.1939 19.2146 37.9749 19.6636 37.6716 20.0539C37.3682 20.4442 36.9872 20.7673 36.5525 21.0027C36.1192 21.2403 35.6408 21.3842 35.1483 21.425C34.6558 21.4657 34.1602 21.4025 33.6938 21.2394C33.2273 21.0763 32.8003 20.8169 32.4405 20.4781C32.0808 20.1393 31.7963 19.7287 31.6054 19.2728C31.4349 18.8623 31.2474 18.7482 30.8185 18.7548C28.7961 18.7784 26.7751 18.7652 24.7527 18.7652L24.1455 18.7639ZM34.8908 16.0871C34.6546 16.0819 34.4198 16.1238 34.2 16.2103C33.9802 16.2968 33.7798 16.4263 33.6106 16.5911C33.4413 16.756 33.3067 16.9528 33.2144 17.1703C33.1221 17.3878 33.074 17.6214 33.073 17.8577C33.0776 18.3262 33.2632 18.7747 33.591 19.1094C33.9189 19.4441 34.3635 19.6389 34.8318 19.6531C35.3004 19.6588 35.7524 19.4798 36.0901 19.1549C36.4278 18.83 36.6241 18.3852 36.6365 17.9167C36.6463 17.6808 36.6086 17.4454 36.5254 17.2245C36.4422 17.0036 36.3154 16.8017 36.1524 16.6309C35.9895 16.4602 35.7938 16.324 35.577 16.2305C35.3602 16.1371 35.1269 16.0883 34.8908 16.0871ZM3.61219 36.6099C3.96316 36.6063 4.30523 36.499 4.59537 36.3014C4.88551 36.1039 5.11076 35.825 5.24281 35.4998C5.37486 35.1746 5.4078 34.8176 5.33749 34.4737C5.26719 34.1299 5.09677 33.8145 4.84768 33.5672C4.59858 33.3199 4.28193 33.1518 3.93755 33.084C3.59317 33.0162 3.23643 33.0518 2.9122 33.1862C2.58798 33.3206 2.31073 33.5479 2.11534 33.8395C1.91995 34.1311 1.81514 34.4739 1.81409 34.8249C1.81391 35.0605 1.86039 35.2937 1.95085 35.5112C2.04131 35.7287 2.17396 35.9262 2.34114 36.0921C2.50832 36.2581 2.70671 36.3893 2.92487 36.4782C3.14303 36.567 3.37663 36.6118 3.61219 36.6099Z" fill="black"/>
<path d="M29.5368 34.8263H30.211C36.0779 34.8263 41.9448 34.8263 47.8117 34.8263C48.0432 34.8168 48.275 34.8367 48.5015 34.8853C48.7002 34.9248 48.8767 35.0381 48.9954 35.2023C49.1141 35.3664 49.1663 35.5695 49.1415 35.7706C49.1432 35.9725 49.0699 36.1678 48.936 36.319C48.8021 36.4701 48.6169 36.5663 48.4163 36.589C48.2521 36.6117 48.0862 36.6201 47.9205 36.6139H28.9742C27.9682 36.6139 27.7112 36.3516 27.7099 35.3483C27.7099 32.9285 27.7099 30.5087 27.7099 28.089C27.7099 27.7362 27.6443 27.546 27.2705 27.3991C26.4901 27.0948 25.8433 26.5227 25.4459 25.7853C25.0485 25.0479 24.9263 24.1932 25.1012 23.374C25.2757 22.5703 25.7216 21.8511 26.364 21.3376C27.0064 20.824 27.806 20.5473 28.6284 20.5541C29.4509 20.5608 30.2459 20.8507 30.8797 21.3747C31.5135 21.8988 31.9476 22.6252 32.1087 23.4317C32.4432 25.1118 31.5172 26.7761 29.8791 27.4279C29.6601 27.5158 29.4765 27.5696 29.4791 27.8883C29.4949 30.11 29.4883 32.3304 29.4896 34.5508C29.5006 34.6434 29.5164 34.7353 29.5368 34.8263ZM28.6188 22.3405C28.3869 22.3376 28.1567 22.3804 27.9414 22.4665C27.7261 22.5526 27.5298 22.6803 27.3639 22.8423C27.198 23.0043 27.0657 23.1975 26.9745 23.4107C26.8833 23.6239 26.835 23.853 26.8325 24.0849C26.8253 24.3223 26.8657 24.5588 26.9515 24.7804C27.0372 25.002 27.1664 25.2041 27.3316 25.3749C27.4967 25.5457 27.6944 25.6817 27.913 25.7748C28.1316 25.8679 28.3666 25.9163 28.6042 25.9171C28.8417 25.9179 29.0771 25.8711 29.2963 25.7794C29.5154 25.6877 29.714 25.5531 29.8803 25.3834C30.0466 25.2137 30.1772 25.0124 30.2644 24.7914C30.3516 24.5704 30.3936 24.3342 30.388 24.0967C30.3879 23.8648 30.3417 23.6352 30.2523 23.4213C30.1629 23.2073 30.032 23.0132 29.8671 22.8501C29.7022 22.6871 29.5066 22.5583 29.2917 22.4713C29.0768 22.3843 28.8467 22.3407 28.6148 22.3431L28.6188 22.3405Z" fill="black"/>
<path d="M26.024 47.3369H5.00681C4.84156 47.3369 4.6763 47.3369 4.51105 47.3369C3.97726 47.3081 3.61659 46.9618 3.60478 46.4739C3.59298 45.986 3.93922 45.6136 4.46383 45.5559C4.62928 45.5447 4.79519 45.5421 4.9609 45.548H26.0306C26.6195 43.8968 27.7356 42.8935 29.4943 42.8895C31.2531 42.8856 32.3797 43.8824 32.9738 45.548C33.8447 45.548 34.7195 45.548 35.5969 45.548C36.0743 45.548 36.4494 45.7159 36.6028 46.192C36.7917 46.7743 36.3759 47.3199 35.7241 47.333C34.8139 47.35 33.9037 47.333 32.9856 47.333C32.3758 49.0065 31.257 50.0308 29.4353 49.9993C27.6831 49.9692 26.6142 48.9671 26.024 47.3369ZM31.278 46.4543C31.2795 46.1031 31.1771 45.7594 30.9837 45.4663C30.7903 45.1732 30.5145 44.9439 30.191 44.8072C29.8676 44.6705 29.5109 44.6326 29.1659 44.6982C28.821 44.7638 28.5031 44.9299 28.2523 45.1757C28.0016 45.4216 27.8292 45.7361 27.7568 46.0797C27.6844 46.4233 27.7153 46.7807 27.8455 47.1068C27.9758 47.4329 28.1996 47.7132 28.4888 47.9123C28.778 48.1115 29.1196 48.2207 29.4707 48.2261C29.7067 48.2321 29.9415 48.1906 30.1611 48.1042C30.3808 48.0177 30.5808 47.8879 30.7494 47.7227C30.9179 47.5574 31.0516 47.36 31.1424 47.1421C31.2332 46.9242 31.2793 46.6903 31.278 46.4543Z" fill="black"/>
<path d="M18.791 34.8262V34.2085C18.791 31.4241 18.8002 28.6397 18.7766 25.8554C18.7678 25.5349 18.6586 25.2252 18.4644 24.9701C17.385 23.6284 16.2702 22.3169 15.1738 21.0027C13.3573 21.8854 11.411 21.3857 10.3671 19.6912C9.94662 18.9888 9.78041 18.1633 9.89631 17.353C10.0122 16.5426 10.4031 15.7968 11.0036 15.2405C11.6041 14.6841 12.3775 14.3511 13.1943 14.2973C14.0111 14.2434 14.8216 14.4721 15.4899 14.9448C16.9942 16.011 17.3536 17.7318 16.4748 19.7633C17.608 21.1234 18.7307 22.5175 19.9071 23.8631C20.3756 24.3756 20.6218 25.0528 20.5917 25.7465C20.5563 28.944 20.5773 32.1441 20.576 35.343C20.576 36.3476 20.3137 36.6112 19.313 36.6125C17.4769 36.6125 15.6368 36.6125 13.7928 36.6125C13.6109 36.6212 13.4286 36.6119 13.2485 36.585C13.0586 36.546 12.8869 36.4451 12.7605 36.2982C12.634 36.1512 12.5599 35.9664 12.5497 35.7728C12.5395 35.5792 12.5938 35.3877 12.7041 35.2283C12.8144 35.0688 12.9745 34.9505 13.1593 34.8918C13.368 34.8396 13.5831 34.8175 13.798 34.8262C15.2564 34.8262 16.7153 34.8262 18.1746 34.8262H18.791ZM13.4413 16.0871C13.2094 16.0821 12.9788 16.123 12.7629 16.2076C12.547 16.2923 12.3499 16.4188 12.1832 16.5801C12.0165 16.7413 11.8834 16.934 11.7916 17.147C11.6998 17.36 11.6511 17.589 11.6484 17.8209C11.6456 18.296 11.827 18.7536 12.1544 19.0977C12.4819 19.4418 12.93 19.6456 13.4046 19.6663C14.1587 19.7109 15.2643 18.5947 15.2263 17.8537C15.2113 17.3868 15.0178 16.9434 14.6858 16.6147C14.3538 16.2861 13.9083 16.0973 13.4413 16.0871Z" fill="black"/>
<path d="M32.6472 39.2946C33.8735 39.2946 35.0998 39.3103 36.326 39.2867C36.9044 39.2749 37.2835 39.4821 37.5694 39.9976C38.5268 41.7183 39.5275 43.4154 40.4862 45.1361C40.6659 45.4588 40.8652 45.5584 41.2233 45.5558C43.1906 45.5374 45.167 45.5558 47.1396 45.5453C47.5422 45.5453 47.9003 45.624 48.1259 45.9952C48.4852 46.5893 48.076 47.3067 47.3468 47.3277C46.3527 47.3513 45.3585 47.3369 44.3631 47.3369C43.0384 47.3369 41.7125 47.3264 40.3865 47.3369C40.1716 47.3504 39.9576 47.2994 39.772 47.1902C39.5864 47.081 39.4377 46.9188 39.3452 46.7244C38.3773 45.0089 37.3779 43.3144 36.4283 41.5845C36.2028 41.174 35.9431 41.0599 35.4972 41.0599C33.2439 41.0809 30.9894 41.073 28.7362 41.0599C28.0018 41.0599 27.5663 40.5458 27.7631 39.9189C27.9152 39.4336 28.2982 39.2802 28.769 39.2802L32.6472 39.2946Z" fill="black"/>
<path d="M34.891 16.0871C35.1276 16.0883 35.3616 16.1373 35.5788 16.2311C35.796 16.3249 35.9921 16.4617 36.1551 16.6332C36.3181 16.8047 36.4448 17.0074 36.5276 17.2291C36.6103 17.4507 36.6474 17.6869 36.6367 17.9233C36.6243 18.3917 36.428 18.8365 36.0903 19.1615C35.7526 19.4864 35.3006 19.6654 34.832 19.6597C34.3637 19.6455 33.9191 19.4506 33.5912 19.116C33.2634 18.7813 33.0778 18.3327 33.0732 17.8642C33.0734 17.6274 33.1208 17.3931 33.2127 17.1748C33.3046 16.9566 33.4391 16.7589 33.6084 16.5934C33.7778 16.4279 33.9784 16.2978 34.1987 16.2109C34.4189 16.124 34.6543 16.0819 34.891 16.0871Z" fill="#25B800"/>
<path d="M3.6122 36.6099C3.37476 36.618 3.13809 36.5785 2.91615 36.4938C2.69421 36.409 2.49149 36.2806 2.31994 36.1162C2.14839 35.9519 2.01149 35.7548 1.91731 35.5367C1.82312 35.3186 1.77356 35.0838 1.77155 34.8463C1.76953 34.6087 1.81511 34.3731 1.90558 34.1534C1.99605 33.9338 2.12959 33.7344 2.29833 33.5672C2.46707 33.3999 2.66758 33.2681 2.88805 33.1796C3.10852 33.0911 3.34449 33.0476 3.58204 33.0517C3.81948 33.0436 4.05615 33.083 4.27809 33.1678C4.50003 33.2526 4.70275 33.381 4.8743 33.5453C5.04585 33.7097 5.18275 33.9067 5.27693 34.1249C5.37112 34.343 5.42068 34.5777 5.42269 34.8153C5.42471 35.0529 5.37913 35.2885 5.28866 35.5081C5.19819 35.7278 5.06465 35.9272 4.89591 36.0944C4.72717 36.2617 4.52666 36.3934 4.30619 36.482C4.08571 36.5705 3.84975 36.614 3.6122 36.6099Z" fill="#25B800"/>
<path d="M28.6156 22.3431C28.8474 22.3412 29.0772 22.3852 29.2919 22.4726C29.5065 22.56 29.7018 22.6891 29.8663 22.8524C30.0308 23.0157 30.1613 23.2099 30.2503 23.4239C30.3393 23.6379 30.385 23.8674 30.3849 24.0992C30.3893 24.4523 30.2885 24.7986 30.0954 25.0942C29.9023 25.3898 29.6255 25.6212 29.3005 25.759C28.9754 25.8967 28.6166 25.9346 28.2699 25.8678C27.9232 25.8009 27.6043 25.6324 27.3537 25.3837C27.1031 25.135 26.9322 24.8173 26.8628 24.4711C26.7934 24.1249 26.8286 23.7659 26.964 23.4398C27.0993 23.1137 27.3286 22.8352 27.6228 22.6399C27.9169 22.4446 28.2625 22.3413 28.6156 22.3431Z" fill="#25B800"/>
<path d="M31.2778 46.4542C31.2832 46.6919 31.2409 46.9283 31.1535 47.1493C31.0661 47.3704 30.9352 47.5717 30.7687 47.7414C30.6022 47.9111 30.4033 48.0457 30.1839 48.1372C29.9645 48.2288 29.729 48.2755 29.4913 48.2745C29.2535 48.2735 29.0184 48.225 28.7998 48.1316C28.5811 48.0383 28.3834 47.9021 28.2182 47.7311C28.0531 47.5601 27.9239 47.3577 27.8382 47.1359C27.7526 46.9141 27.7123 46.6774 27.7196 46.4398C27.7142 46.2021 27.7564 45.9658 27.8439 45.7447C27.9313 45.5236 28.0622 45.3223 28.2287 45.1526C28.3952 44.9829 28.594 44.8484 28.8134 44.7568C29.0328 44.6652 29.2684 44.6186 29.5061 44.6195C29.7438 44.6205 29.979 44.6691 30.1976 44.7624C30.4163 44.8557 30.614 44.9919 30.7791 45.163C30.9443 45.334 31.0735 45.5363 31.1591 45.7581C31.2448 45.9799 31.2851 46.2166 31.2778 46.4542Z" fill="#25B800"/>
<path d="M13.4403 16.0871C13.9074 16.0972 14.3528 16.2861 14.6849 16.6147C15.0169 16.9433 15.2103 17.3868 15.2253 17.8537C15.2634 18.5947 14.1578 19.7108 13.4036 19.6662C12.9291 19.6456 12.481 19.4418 12.1535 19.0977C11.826 18.7536 11.6447 18.2959 11.6475 17.8209C11.6502 17.589 11.6989 17.3599 11.7907 17.147C11.8825 16.934 12.0156 16.7413 12.1823 16.5801C12.349 16.4188 12.546 16.2922 12.762 16.2076C12.9779 16.123 13.2085 16.082 13.4403 16.0871Z" fill="#25B800"/>
</svg>
