<svg width="52" height="50" viewBox="0 0 52 50" fill="none" xmlns="http://www.w3.org/2000/svg">
<path d="M0.00100027 32.092C0.55261 31.7922 1.11022 31.4924 1.65583 31.1837C3.92089 29.8826 6.18296 28.5778 8.44203 27.2694C8.59992 27.1785 8.75981 27.0915 8.95167 26.9846L9.69515 28.2667C9.3304 28.4816 8.98965 28.6854 8.64589 28.8833C6.38482 30.189 4.12175 31.4924 1.85669 32.7935C1.59387 32.9434 1.49195 33.1053 1.49294 33.4151C1.5056 36.5462 1.5056 39.6773 1.49294 42.8084C1.49294 43.0962 1.58388 43.2501 1.8347 43.394C4.56611 44.9549 7.28851 46.5265 10.0019 48.1087C10.2557 48.2556 10.4316 48.2356 10.6725 48.0957C13.3046 46.5634 15.9401 45.0405 18.5789 43.5269C18.7358 43.436 18.8956 43.353 19.1075 43.2381L19.853 44.5222L17.5766 45.8363C15.2862 47.1594 12.9928 48.4754 10.7094 49.8105C10.4266 49.9764 10.2278 49.9734 9.94397 49.8105C6.85415 48.0118 3.75801 46.2223 0.655536 44.4423C0.440688 44.3184 0.218845 44.2054 0 44.0875L0.00100027 32.092Z" fill="black"/>
<path d="M51.1644 44.1834C50.8566 44.3363 50.5398 44.4742 50.242 44.6451C47.2441 46.3772 44.2486 48.1093 41.2554 49.8414C41.0245 49.9753 40.8407 50.0842 40.5399 49.9093C37.581 48.1816 34.6081 46.4768 31.6392 44.765C31.5864 44.7272 31.536 44.6861 31.4883 44.6421L32.2088 43.383C32.3717 43.4689 32.5166 43.5388 32.6555 43.6188C35.2496 45.1124 37.8425 46.6113 40.434 48.1156C40.7337 48.2875 40.9336 48.3035 41.2444 48.1246C43.9145 46.5637 46.5936 45.0161 49.2817 43.4819C49.5815 43.309 49.6734 43.1112 49.6714 42.7754C49.6588 39.6949 49.6588 36.6141 49.6714 33.5329C49.6714 33.1582 49.5385 32.9763 49.2307 32.8014C46.8184 31.4254 44.4141 30.0314 42.0088 28.6434C41.853 28.5534 41.7001 28.4575 41.5182 28.3436L42.2577 27.0515L51.1644 32.1919V44.1834Z" fill="black"/>
<path d="M15.4512 39.5108H18.536C18.605 39.3579 18.6599 39.223 18.7249 39.0941C19.2086 38.1288 19.967 37.5342 21.0623 37.4682C21.7431 37.4243 22.426 37.4243 23.1068 37.4682C24.1571 37.5402 24.9235 38.0998 25.3622 39.0431C25.5331 39.4099 25.709 39.5808 26.1457 39.4429C26.1966 39.3299 26.2586 39.181 26.3295 39.0361C26.7372 38.2077 27.3798 37.6161 28.2951 37.5052C29.1528 37.4053 30.0187 37.3963 30.8783 37.4782C31.8606 37.5682 32.5711 38.1617 32.9638 39.0591C33.1147 39.4059 33.2966 39.4778 33.6324 39.4698C34.4928 39.4488 35.3541 39.4628 36.2425 39.4628V40.9688C35.3611 40.9688 34.4848 40.9808 33.6084 40.9618C33.2916 40.9558 33.1197 41.0287 32.9748 41.3485C32.5042 42.3968 31.6667 42.9554 30.5106 43.0023C30.0949 43.0193 29.6782 42.9913 29.2625 43.0133C27.7455 43.0933 26.7083 42.4377 26.1646 41.0237C25.7649 40.8988 25.5511 41.0117 25.3652 41.4234C24.9485 42.3548 24.196 42.9224 23.1668 43.0023C22.4373 43.0626 21.7042 43.065 20.9743 43.0093C19.9261 42.9274 19.1666 42.3508 18.7429 41.3995C18.59 41.0567 18.4061 40.9857 18.0754 40.9927C17.212 41.0107 16.3486 40.9987 15.4492 40.9987L15.4512 39.5108ZM27.8814 40.9937C28.552 41.7552 30.9582 41.7222 31.364 40.9937L30.6315 40.9478V39.4998L31.4139 39.4419C30.7824 38.6624 28.455 38.6794 27.9024 39.4618L28.6559 39.4988V40.9618L27.8814 40.9937ZM21.0662 39.5058V40.9678L20.2948 41.0187C20.9593 41.7862 23.2727 41.7622 23.8153 41.0077L23.0279 40.9578V39.5138L23.8323 39.4608C23.2097 38.7054 20.8894 38.7174 20.3418 39.4419C20.3518 39.4528 20.3607 39.4728 20.3707 39.4728C20.5866 39.4868 20.7974 39.4938 21.0623 39.5058H21.0662Z" fill="#1487E3"/>
<path d="M41.3878 32.3149L40.0887 33.0623C39.643 32.2819 39.1973 31.5284 38.7786 30.764C38.6197 30.4732 38.4648 30.3483 38.0901 30.3822C36.9039 30.4882 35.9916 29.9895 35.382 28.9642C35.1182 28.5216 34.8524 28.0789 34.6146 27.6222C34.0649 26.5659 34.1419 25.5467 34.8144 24.5594C34.9054 24.4245 34.9803 24.1686 34.9143 24.0597C34.8557 23.9842 34.781 23.9228 34.6956 23.88C34.6101 23.8371 34.5162 23.8138 34.4207 23.8119C33.1216 23.8958 32.1683 23.3722 31.5377 22.239C31.3119 21.8323 31.0671 21.4396 30.8502 21.0239C30.2906 19.9656 30.3626 18.9343 31.0711 17.978C31.2579 17.7262 31.2389 17.5703 31.097 17.3295C30.6414 16.561 30.2067 15.7786 29.75 14.9761L31.0421 14.2327C31.4808 14.9951 31.9245 15.7316 32.3272 16.4851C32.4981 16.8048 32.6769 16.9268 33.0577 16.8938C34.2058 16.7938 35.0952 17.2655 35.6988 18.2488C35.9776 18.7015 36.2394 19.1652 36.4932 19.6328C37.0738 20.7051 36.9779 21.7314 36.2934 22.7306C36.2044 22.8616 36.1455 23.1234 36.2164 23.2243C36.2779 23.297 36.3544 23.3554 36.4407 23.3956C36.5269 23.4358 36.6209 23.4568 36.7161 23.4571C37.9322 23.3702 38.8546 23.8319 39.4861 24.8681C39.7629 25.3218 40.0307 25.7825 40.2766 26.2542C40.8172 27.2944 40.7532 28.3117 40.0697 29.261C39.8838 29.5199 39.8698 29.6917 40.0367 29.9605C40.4944 30.716 40.9171 31.4925 41.3878 32.3149ZM32.1193 19.1772C31.7836 20.1275 32.9367 22.1111 33.8811 22.256L33.5293 21.5425L34.7854 20.827L35.2261 21.4875C35.6019 20.5782 34.3847 18.4847 33.4744 18.4537C33.5953 18.6895 33.7122 18.9173 33.8381 19.1612L32.578 19.8807L32.1193 19.1772ZM37.2557 25.03L37.5964 25.7475L36.3433 26.464L35.8827 25.7715C35.5739 26.7708 36.7161 28.7054 37.6504 28.8423L37.2927 28.1268L38.5618 27.4083L39.0045 28.0929C39.3132 27.1046 38.174 25.128 37.2557 25.03Z" fill="#1487E3"/>
<path d="M11.1194 33.0562L9.82031 32.3127C10.283 31.5063 10.7197 30.7258 11.1774 29.9604C11.3362 29.6956 11.3242 29.5237 11.1354 29.2609C10.4619 28.3315 10.3899 27.3232 10.9085 26.298C11.1714 25.7793 11.4651 25.2757 11.7759 24.784C12.3935 23.8097 13.2939 23.391 14.443 23.456C14.6371 23.4592 14.8262 23.3945 14.9777 23.2731C15.2175 23.0732 15.0306 22.8734 14.8937 22.6735C14.2262 21.7122 14.1632 20.6989 14.7009 19.6617C14.9457 19.189 15.2145 18.7293 15.4913 18.2756C16.1009 17.2763 16.9902 16.7867 18.1664 16.8876C18.5212 16.9186 18.702 16.8217 18.8659 16.5169C19.2726 15.7584 19.7143 15.0179 20.165 14.2185L21.4641 14.96C21.0644 15.6535 20.7046 16.337 20.2949 16.9915C20.0291 17.4152 19.9531 17.729 20.2849 18.2077C20.8765 19.0621 20.8625 20.0264 20.3848 20.9567C20.143 21.4294 19.8682 21.8861 19.5984 22.3448C18.9808 23.39 18.0625 23.8747 16.8503 23.7897C16.6125 23.7728 16.3447 23.7168 16.2927 24.0276C16.2687 24.2187 16.3118 24.4123 16.4146 24.5752C17.0342 25.5165 17.1361 26.4918 16.6365 27.5051C16.4027 27.9818 16.1239 28.4375 15.855 28.8961C15.2205 29.9764 14.2742 30.486 13.024 30.3671C12.7412 30.3401 12.6103 30.416 12.4804 30.6529C12.0527 31.4483 11.5981 32.2208 11.1194 33.0562ZM15.3234 25.7763C15.1635 26.0122 15.0236 26.224 14.8587 26.4628L13.6026 25.7404L13.9714 24.9949C12.9621 25.2127 11.8069 27.2933 12.2416 28.0377L12.6533 27.4052L13.9164 28.1397C13.7825 28.4005 13.6726 28.6143 13.5497 28.8562C14.529 28.6603 15.6442 26.7227 15.3234 25.7763ZM17.7577 18.4015C16.7264 18.6314 15.5872 20.6769 16.0129 21.4584L16.4127 20.8168C16.8603 21.0777 17.269 21.3165 17.6798 21.5563C17.5439 21.8201 17.4329 22.034 17.313 22.2648C18.2653 22.1149 19.3995 20.1783 19.0838 19.197L18.6271 19.8815L17.362 19.153L17.7577 18.4015Z" fill="#1487E3"/>
<path d="M16.7893 16.0633H15.3114C15.3024 15.8954 15.2854 15.7355 15.2854 15.5756C15.2854 12.4958 15.2854 9.41597 15.2754 6.33615C15.2754 5.99239 15.3813 5.80752 15.6751 5.63664C18.8642 3.80993 22.0466 1.9719 25.2224 0.122541C25.5012 -0.0393446 25.703 -0.0423425 25.9848 0.122541C29.1606 1.97123 32.3483 3.80094 35.5221 5.65363C35.7009 5.75356 35.9058 6.01037 35.9078 6.19624C35.9308 9.39398 35.9238 12.5917 35.9218 15.7895C35.9162 15.8805 35.9059 15.9713 35.8908 16.0613H34.4219V15.4857C34.4219 12.7386 34.4159 9.98956 34.4298 7.2445C34.4298 6.88675 34.3299 6.6789 34.0101 6.49503C31.324 4.96278 28.6453 3.41654 25.9738 1.85631C25.714 1.70542 25.5152 1.69243 25.2473 1.84832C22.5453 3.42054 19.8375 4.98277 17.1241 6.535C16.8563 6.6879 16.7713 6.86177 16.7723 7.16456C16.7853 9.94559 16.7803 12.7256 16.7803 15.5057L16.7893 16.0633Z" fill="black"/>
<path d="M17.527 33.0912L18.2695 34.3743C18.0816 34.4872 17.9148 34.5911 17.7459 34.6891C15.6474 35.9032 13.5429 37.1213 11.4333 38.3235C11.1675 38.4754 11.0746 38.6433 11.0756 38.948C11.0886 41.3783 11.0836 43.8096 11.0836 46.2429V46.8195H9.58465V46.2509C9.58465 43.8366 9.57766 41.4223 9.59265 39.009C9.59265 38.6662 9.49272 38.4754 9.19293 38.3045C7.09441 37.1123 5.01289 35.9062 2.92436 34.6951C2.75348 34.5951 2.5846 34.4952 2.38574 34.3793L3.13221 33.0862C4.68911 33.9855 6.21404 34.8609 7.73796 35.7403C8.47344 36.164 9.21991 36.5677 9.93641 37.0194C10.2362 37.2113 10.453 37.1793 10.7448 37.0084C12.8433 35.7833 14.9469 34.5761 17.0504 33.363C17.1893 33.2741 17.3352 33.1911 17.527 33.0912Z" fill="black"/>
<path d="M17.6621 8.10198L18.4076 6.81689L21.4914 8.59363C22.7305 9.30813 23.9766 10.0116 25.2038 10.7461C25.5036 10.927 25.7204 10.914 26.0152 10.7461C28.1137 9.51998 30.2192 8.31184 32.3227 7.0987C32.4646 7.01675 32.6095 6.9398 32.8024 6.83288L33.5479 8.10898C33.348 8.2249 33.2011 8.31783 33.0482 8.40877C30.9497 9.62391 28.8462 10.845 26.7347 12.0452C26.4479 12.2081 26.354 12.386 26.356 12.7097C26.369 15.124 26.363 17.5383 26.363 19.9536V20.5442H24.864V19.9606C24.864 17.5463 24.857 15.131 24.871 12.7167C24.871 12.3919 24.7711 12.2111 24.4873 12.0482C22.3768 10.849 20.2773 9.62691 18.1747 8.41177C18.0149 8.31883 17.862 8.2229 17.6621 8.10198Z" fill="black"/>
<path d="M32.8945 34.4213L33.642 33.1362L35.7825 34.3694C37.3534 35.2747 38.9283 36.1681 40.4902 37.0944C40.761 37.2543 40.9508 37.2343 41.2077 37.0844C43.3062 35.8593 45.4047 34.6472 47.5112 33.431C47.6681 33.3401 47.829 33.2552 48.0358 33.1412L48.7763 34.4133C48.6104 34.5133 48.4765 34.6052 48.3346 34.6861C46.2191 35.9123 44.1066 37.1434 41.9811 38.3525C41.6813 38.5244 41.5714 38.7083 41.5744 39.0521C41.5894 41.4663 41.5834 43.8816 41.5844 46.2959V46.8605H40.0854V46.3339C40.0854 43.9026 40.0765 41.4713 40.0854 39.0391C40.0854 38.6933 39.9775 38.5094 39.6777 38.3396C37.5662 37.1404 35.4667 35.9193 33.3632 34.7051C33.2243 34.6232 33.0844 34.5363 32.8945 34.4213Z" fill="black"/>
<path d="M28.9976 20.0674C29.2514 20.5081 29.4823 20.9078 29.7441 21.3665C29.3114 21.6183 28.9007 21.8581 28.489 22.0959C27.6396 22.5866 26.7902 23.0862 25.9348 23.5599C25.7869 23.6409 25.5351 23.6948 25.4032 23.6229C24.0961 22.8964 22.805 22.1409 21.4609 21.3665L22.2094 20.0674C23.2087 20.644 24.19 21.1916 25.1513 21.7742C25.4721 21.974 25.7119 21.994 26.0507 21.7872C26.994 21.1996 27.9693 20.661 28.9976 20.0674Z" fill="black"/>
<path d="M19.1556 36.3888C19.1556 35.3765 19.1436 34.3992 19.1626 33.4219C19.1696 33.1151 19.0627 32.9442 18.8019 32.7963C17.8326 32.2557 16.8762 31.6971 15.877 31.1145L16.6224 29.8154C17.9335 30.5719 19.2106 31.3064 20.4807 32.0508C20.5269 32.082 20.5657 32.1228 20.5945 32.1704C20.6233 32.218 20.6414 32.2713 20.6476 32.3267C20.6586 33.6687 20.6546 35.0108 20.6546 36.3878L19.1556 36.3888Z" fill="black"/>
<path d="M32.0036 36.2339H30.5616C30.5351 36.1221 30.5168 36.0086 30.5066 35.8942C30.5066 34.779 30.4956 33.6637 30.5116 32.5485C30.5116 32.3946 30.5936 32.1698 30.7115 32.0998C31.9796 31.3424 33.2637 30.6099 34.6027 29.8354L35.3542 31.1345C34.4179 31.6761 33.5325 32.2288 32.6081 32.7064C32.1235 32.9572 31.9576 33.261 31.9916 33.7966C32.0405 34.5901 32.0036 35.3895 32.0036 36.2339Z" fill="black"/>
<path d="M8.72208 44.4632L7.97561 45.7623L5.84512 44.5412C4.86481 43.9786 3.8915 43.406 2.9042 42.8604C2.6094 42.6975 2.45751 42.5186 2.49349 42.1609C2.52946 41.8031 2.50148 41.4694 2.50148 41.0886H4.01841C3.81855 41.7062 4.24525 41.896 4.65996 42.1299C6.004 42.8843 7.33706 43.6648 8.72208 44.4632Z" fill="black"/>
<path d="M30.5478 5.65667L29.8003 6.95575C28.5012 6.21027 27.2471 5.47479 25.975 4.7633C25.7751 4.65238 25.5163 4.65137 25.2855 4.59941L25.2145 4.73232L24.498 3.51218C24.5198 3.4768 24.5445 3.44337 24.572 3.41225C25.2235 2.85465 25.8181 2.81867 26.5866 3.3363C27.8357 4.17871 29.1857 4.87022 30.5478 5.65667Z" fill="#1487E3"/>
<path d="M47.2426 41.3794H48.6666C48.6666 41.7581 48.6786 42.1319 48.6586 42.5046C48.6495 42.5582 48.6292 42.6093 48.5991 42.6546C48.569 42.6999 48.5296 42.7383 48.4837 42.7674C46.9098 43.6848 45.3319 44.5941 43.7231 45.5215C43.4652 45.0738 43.2234 44.6621 42.9756 44.2224C44.2677 43.4739 45.5338 42.7504 46.7869 42.003C46.9868 41.886 47.1157 41.6602 47.2765 41.4853L47.2426 41.3794Z" fill="black"/>
<path d="M22.3096 4.71141L23.6087 3.96094C23.8525 4.38064 24.0883 4.78736 24.3581 5.25003L23.061 6.01049L22.3096 4.71141Z" fill="#1487E3"/>
<path d="M21.4376 5.21582C21.6944 5.65851 21.9272 6.05723 22.191 6.5149L20.8979 7.27237L20.1475 5.98228L21.4376 5.21582Z" fill="#1487E3"/>
<path d="M2.53906 36.071H3.97205V37.51H2.53906V36.071Z" fill="black"/>
<path d="M47.1807 37.8308V36.3948H48.6166V37.8308H47.1807Z" fill="black"/>
<path d="M3.96301 40.0224H2.54102V38.5874H3.96301V40.0224Z" fill="black"/>
<path d="M48.6233 40.3362H47.1973V38.8872H48.6233V40.3362Z" fill="black"/>
<path d="M27.8809 40.9937L28.6553 40.9597V39.4968L27.9018 39.4598C28.4545 38.6774 30.7818 38.6604 31.4134 39.4398L30.6309 39.4978V40.9457L31.3634 40.9917C30.9537 41.7222 28.5474 41.7552 27.8809 40.9937Z" fill="white"/>
<path d="M21.0626 39.5057C20.7977 39.4937 20.5819 39.4847 20.3631 39.4727C20.3531 39.4727 20.3441 39.4527 20.3341 39.4417C20.8817 38.7172 23.2021 38.7053 23.8246 39.4607L23.0202 39.5137V40.9577L23.8076 41.0076C23.265 41.7621 20.9516 41.7861 20.2871 41.0186L21.0586 40.9676L21.0626 39.5057Z" fill="white"/>
<path d="M37.2556 25.03C38.1719 25.13 39.3131 27.1046 39.0043 28.0929L38.5617 27.4084L37.2925 28.1268L37.6503 28.8423C36.716 28.7054 35.5738 26.7738 35.8825 25.7715L36.3432 26.464L37.5963 25.7475L37.2556 25.03Z" fill="white"/>
<path d="M15.3234 25.7763C15.6442 26.7227 14.529 28.6603 13.5497 28.8561C13.6726 28.6143 13.7825 28.4005 13.9164 28.1396L12.6533 27.4052L12.2416 28.0377C11.8069 27.2883 12.9621 25.2127 13.9714 24.9949L13.6027 25.7403L14.8588 26.4628C15.0197 26.224 15.1636 26.0122 15.3234 25.7763Z" fill="white"/>
<path d="M17.7577 18.4016L17.364 19.1531L18.6291 19.8816L19.0878 19.201C19.4036 20.1824 18.2694 22.119 17.317 22.2689C17.437 22.038 17.5479 21.8242 17.6838 21.5604C17.2731 21.3195 16.8644 21.0817 16.4167 20.8209L16.017 21.4624C15.5903 20.677 16.7265 18.6314 17.7577 18.4016Z" fill="white"/>
</svg>
