<svg width="50" height="50" viewBox="0 0 50 50" fill="none" xmlns="http://www.w3.org/2000/svg">
<path d="M10.6152 22.5799C8.63628 22.5799 6.6923 22.5974 4.74831 22.5799C3.63795 22.5589 2.56859 22.1567 1.71963 21.4407C0.870667 20.7247 0.293762 19.7386 0.0857015 18.6477C-0.122359 17.5568 0.0510853 16.4275 0.576931 15.4493C1.10278 14.4712 1.94903 13.7036 2.97372 13.2754C3.10816 13.2189 3.2426 13.1571 3.40124 13.0885C3.02212 11.3475 3.14312 9.65764 3.88791 8.05378C5.23229 5.16066 7.51775 3.48959 10.6865 3.26508C13.8552 3.04057 16.341 4.3957 18.0725 7.07507C18.2755 7.38831 18.4274 7.49048 18.82 7.40579C20.0672 7.13833 21.3661 7.2546 22.546 7.73931C23.7258 8.22402 24.7314 9.05447 25.4304 10.1215C25.5123 10.2524 25.6241 10.3621 25.7566 10.4415C25.8891 10.521 26.0385 10.5679 26.1926 10.5785C27.1512 10.7197 28.1084 10.8877 29.0521 11.1163C29.399 11.1983 29.5899 11.1432 29.8346 10.9025C32.8039 7.91262 35.7803 4.92943 38.764 1.95296C41.1839 -0.449463 44.8662 -0.653808 47.4568 1.44209C50.4938 3.89963 50.7344 8.33341 47.9529 11.1499C45.0391 14.1004 42.1084 17.0338 39.1606 19.9502C38.7922 20.3146 38.7102 20.6144 38.8514 21.1226C39.084 21.9588 39.1848 22.8313 39.3367 23.689C39.3663 23.8517 39.3797 24.0157 39.4053 24.2133H41.036C41.036 24.7659 41.036 25.2888 41.036 25.7997C41.036 26.488 41.3452 26.9975 41.9771 27.2785C42.6089 27.5595 43.2327 27.4439 43.7328 26.9424C44.1106 26.5646 44.4521 26.1506 44.7989 25.7634L48.3441 29.3018C47.9838 29.6191 47.5912 29.931 47.2377 30.2819C46.6623 30.8505 46.5278 31.4676 46.8222 32.1102C47.1274 32.7824 47.6625 33.0809 48.3911 33.0661C48.8738 33.0567 49.3564 33.0661 49.87 33.0661V37.9059C49.3819 37.9059 48.8872 37.9059 48.3911 37.9059C47.6652 37.8938 47.118 38.1869 46.8263 38.8644C46.5251 39.5649 46.7093 40.1766 47.243 40.6968C47.5899 41.0356 47.9408 41.369 48.2554 41.6769L44.7667 45.1723C44.483 44.8564 44.1577 44.4746 43.8108 44.1129C43.3107 43.5913 42.7151 43.4152 42.0255 43.6908C41.3802 43.9476 41.0468 44.4974 41.0414 45.2946C41.0414 45.7652 41.0414 46.2357 41.0414 46.7439H36.2056C36.2056 46.2572 36.2056 45.7598 36.2056 45.2651C36.215 44.535 35.9125 43.9906 35.2377 43.7042C34.5628 43.4179 33.9565 43.5819 33.4483 44.1075C33.0961 44.4665 32.7532 44.8322 32.3324 45.2718C32.0192 44.9061 31.7503 44.5996 31.4088 44.1963C31.3161 45.4465 30.7891 46.2451 29.7297 46.6659C29.6062 46.7418 29.5116 46.8568 29.4608 46.9926C28.5587 48.9272 27.0503 50.0054 24.9168 50C22.8048 50 21.3138 48.9245 20.4091 47.0114C20.3362 46.8517 20.2148 46.7191 20.0622 46.6323C18.4315 45.8378 18.0282 44.3065 19.0082 42.8801C18.781 42.1434 18.5767 41.4752 18.3508 40.7439C18.1841 40.9307 17.9959 41.1593 17.7875 41.369C16.3911 42.7735 14.9925 44.1734 13.5917 45.5689C13.4306 45.7358 13.2377 45.8689 13.0244 45.9601C9.69834 47.2507 6.36964 48.5333 3.03825 49.8077C1.66698 50.3321 0.311836 49.6478 0.0469921 48.2724C-0.0270848 47.8624 0.0076816 47.4401 0.147821 47.0477C1.42096 43.6558 2.72367 40.276 4.03176 36.8976C4.12757 36.6858 4.26468 36.4952 4.43507 36.337C6.61298 34.1456 8.79895 31.9637 10.9701 29.7656C11.1046 29.6312 11.2309 29.3408 11.1758 29.1916C10.3894 27.089 10.2872 24.9352 10.626 22.7385C10.6266 22.6854 10.623 22.6324 10.6152 22.5799ZM8.06088 17.7213C8.01786 17.4658 7.99097 17.2669 7.9493 17.0706C7.59438 15.4291 6.03355 14.3119 4.41087 14.5351C3.60284 14.6408 2.8643 15.0471 2.34235 15.6729C1.8204 16.2988 1.55335 17.0983 1.59438 17.9122C1.67101 19.6397 3.09203 20.9639 4.90292 20.9653C12.0819 20.9706 19.2605 20.9706 26.4386 20.9653C26.522 20.9653 26.6067 20.9653 26.69 20.9653C27.6755 20.8658 28.3934 20.3764 28.7738 19.4555C29.1543 18.5346 28.9943 17.6957 28.3531 16.9657C27.7118 16.2357 26.8568 15.9534 25.8969 16.2317C24.7662 16.5597 24.2325 17.3932 24.1034 18.5171H22.5171C22.5776 17.1593 23.0911 16.0448 24.2016 15.3256C24.7743 14.9545 24.9087 14.4974 24.9316 13.9113C25.0284 11.3973 23.2525 9.296 20.7008 8.90478C18.3737 8.54852 16.0398 10.1604 15.4227 12.5346C15.3286 12.8949 15.3945 13.0562 15.7562 13.2068C16.958 13.7137 17.7176 14.8994 17.6531 16.1053H16.1151C15.8825 15.0943 15.3528 14.5284 14.5516 14.5364C14.2182 14.5364 13.8028 14.6198 13.5756 14.8295C13.2166 15.1602 12.9854 15.6361 12.6654 16.0919H11.2672C11.2807 14.7475 12.0739 13.6357 13.3389 13.106C13.4347 13.0613 13.5201 12.9971 13.5896 12.9175C13.659 12.8378 13.711 12.7445 13.7423 12.6435C13.8889 11.7972 14.2021 10.9884 14.6636 10.264C15.1252 9.53959 15.7259 8.914 16.431 8.42349C16.5655 8.32804 16.6999 8.23124 16.8209 8.14251C16.8082 8.09671 16.7925 8.0518 16.7739 8.00807C15.252 5.33005 11.8843 4.14161 8.967 5.25073C6.04968 6.35985 4.2724 9.55278 4.92174 12.5508C4.98224 12.8331 5.11802 12.9164 5.38958 12.9541C6.60566 13.0876 7.721 13.6924 8.49646 14.6386C9.23638 15.4947 9.63673 16.5925 9.62171 17.724L8.06088 17.7213ZM29.4555 38.7125C30.328 36.5615 31.9211 34.9563 33.5464 33.3686C34.0385 32.8886 34.5198 32.3966 34.9943 31.8978C36.6735 30.1353 37.6992 28.073 37.7987 25.6061C37.925 22.6022 37.0039 19.6477 35.193 17.2477C33.382 14.8478 30.7937 13.1514 27.8704 12.4486C27.3905 12.3316 26.8984 12.2698 26.4292 12.1797C26.4763 12.9957 26.5193 13.7405 26.5637 14.5001L26.7989 14.523C28.8626 14.6977 30.4624 16.311 30.5632 18.3155C30.6667 20.406 29.2578 22.1927 27.1552 22.51C26.3015 22.6444 25.4169 22.5691 24.5457 22.5799C23.8816 22.5879 23.2175 22.5799 22.5722 22.5799C22.552 22.6303 22.5367 22.6825 22.5265 22.7358C22.5265 23.3905 22.5198 24.0453 22.5198 24.7013C22.5198 25.555 22.7725 25.8051 23.6316 25.8064C25.6602 25.8064 27.6889 25.8064 29.719 25.8064C30.0478 25.7855 30.3774 25.8319 30.6876 25.9429C30.9979 26.0539 31.2822 26.227 31.5231 26.4517C31.7641 26.6765 31.9566 26.948 32.0889 27.2498C32.2212 27.5515 32.2904 27.8771 32.2925 28.2066C32.2945 28.5361 32.2292 28.8625 32.1006 29.1658C31.972 29.4692 31.7828 29.7431 31.5446 29.9708C31.3065 30.1984 31.0243 30.375 30.7155 30.4898C30.4066 30.6045 30.0776 30.655 29.7485 30.6381C27.1162 30.6556 24.4826 30.6381 21.8503 30.6462C21.2668 30.6462 20.9092 30.9769 20.9092 31.4663C20.9092 31.9556 21.2708 32.246 21.8274 32.2554C22.3302 32.2635 22.8343 32.2554 23.3371 32.2554C23.6533 32.257 23.966 32.3209 24.2574 32.4434C24.5489 32.5658 24.8134 32.7446 25.0357 32.9693C25.2581 33.194 25.434 33.4603 25.5533 33.7531C25.6727 34.0458 25.7333 34.3592 25.7315 34.6753C25.7476 35.8517 25.7315 37.028 25.7315 38.2043C25.7315 38.3643 25.7463 38.5256 25.7544 38.7044L29.4555 38.7125ZM20.9065 22.6175H12.3024C11.7028 25.7701 12.1303 28.6673 14.2477 31.1557C15.1821 32.2514 16.2307 33.2516 17.2417 34.2801C18.4705 35.533 19.5957 36.8559 20.3163 38.4813C20.362 38.5848 20.4897 38.7206 20.5852 38.7219C21.7535 38.738 22.9217 38.7313 24.1357 38.7313V38.328C24.1357 37.1019 24.1465 35.8745 24.1236 34.6484C24.1156 34.1819 23.7808 33.8996 23.2901 33.8848C22.7523 33.87 22.2146 33.8848 21.6768 33.8768C21.0601 33.8425 20.4799 33.5738 20.0549 33.1255C19.63 32.6773 19.3925 32.0836 19.3911 31.466C19.3897 30.8483 19.6246 30.2535 20.0475 29.8034C20.4705 29.3533 21.0495 29.082 21.6661 29.045C22.2038 29.0302 22.7416 29.045 23.2793 29.045C25.3914 29.045 27.5047 29.045 29.6181 29.045C30.2594 29.045 30.6788 28.6175 30.5592 28.0905C30.4436 27.6079 30.1008 27.4304 29.6181 27.4318C27.5567 27.438 25.4953 27.438 23.4339 27.4318C21.9551 27.4318 20.9334 26.4006 20.9199 24.9299C20.9038 24.1622 20.9092 23.408 20.9092 22.6108L20.9065 22.6175ZM32.9858 36.2671C32.0785 37.1937 31.3674 38.2938 30.8953 39.5017C30.8563 39.6052 30.9571 39.7813 31.0297 39.905C31.3255 40.3991 31.4347 40.9828 31.3376 41.5505C31.311 41.6903 31.3399 41.835 31.4183 41.9538C31.6871 42.2886 31.999 42.5978 32.3029 42.9285C33.4012 41.9726 34.5628 41.6715 35.8561 42.216C37.1494 42.7605 37.7382 43.7997 37.8458 45.136H39.4039C39.5101 43.7432 40.1285 42.7322 41.4057 42.2066C42.6829 41.6809 43.8592 41.9888 44.8675 42.864L45.9914 41.775C45.0893 40.7291 44.7815 39.5675 45.3192 38.2702C45.857 36.9729 46.8948 36.3733 48.2379 36.2751V34.7089C46.8505 34.6014 45.8381 33.9856 45.3125 32.7058C44.7868 31.4259 45.0907 30.2456 45.9538 29.248L44.8783 28.1066C43.9197 28.9388 42.8482 29.2763 41.6168 28.8662C40.3853 28.4562 39.6916 27.5433 39.4348 26.3737C39.1323 27.503 38.8204 28.67 38.5099 29.8261C42.0402 29.8853 44.1106 32.5915 44.2356 35.1916C44.3701 38.0296 42.3723 40.5691 39.6647 41.0383C36.4933 41.5734 34.1205 39.8983 32.9885 36.2604L32.9858 36.2671ZM39.0355 3.99373L45.8919 10.873C47.5751 9.49496 48.656 7.797 48.1438 5.47928C47.7109 3.52051 46.4606 2.23393 44.5139 1.76071C42.1895 1.18262 40.4498 2.25544 39.0436 3.98701L39.0355 3.99373ZM11.2646 44.9142L5.06021 38.695C4.43373 40.3231 3.78304 42.0063 3.14849 43.6961C3.13804 43.7643 3.14313 43.8339 3.16339 43.8998C3.18364 43.9657 3.21853 44.0261 3.26545 44.0766C4.13124 44.9639 5.00733 45.8413 5.89373 46.7089C5.95218 46.757 6.02074 46.7914 6.0943 46.8093C6.16786 46.8272 6.24452 46.8283 6.31856 46.8124C7.98963 46.1833 9.65398 45.5353 11.2646 44.9142ZM8.76803 39.8297C10.7174 37.8763 12.6667 35.931 14.5865 33.9991L12.1048 31.0993L6.0806 37.1382C6.97193 38.0309 7.90493 38.9639 8.76803 39.8297ZM12.8335 43.8629L18.4718 38.2164L16.0452 35.2763L10.146 41.1916L12.8335 43.8629ZM42.6439 35.7374C42.6519 33.1831 40.6905 31.3009 38.3808 31.4757C37.9439 31.508 37.4236 31.6504 37.1158 31.9328C36.3548 32.6318 35.6867 33.4358 34.9984 34.2182C34.8407 34.3844 34.7298 34.5895 34.6771 34.8124C34.4082 36.3719 34.9137 37.676 36.1411 38.6426C37.4384 39.6657 38.8984 39.8257 40.3853 39.0984C41.8722 38.371 42.5646 37.1248 42.6439 35.7387V35.7374ZM35.4474 7.73382L31.2798 11.8812L34.5413 14.0726C35.7337 12.8842 36.9612 11.6527 38.1711 10.4575L35.4474 7.73382ZM42.1774 14.5485L39.4335 11.8019L35.8507 15.3914L38.0434 18.6812C39.4133 17.3126 40.8101 15.9171 42.1774 14.5485ZM44.639 12.1595L37.8243 5.33005L36.7151 6.4217L43.5245 13.2458L44.639 12.1595ZM24.9854 40.3258C23.6948 40.3258 22.4028 40.3258 21.1122 40.3258C20.4776 40.3258 20.1093 40.6283 20.1093 41.1324C20.1093 41.6366 20.4776 41.939 21.1108 41.939C23.6598 41.939 26.2088 41.939 28.7577 41.939C29.3909 41.939 29.7606 41.6352 29.7606 41.1324C29.7606 40.6296 29.3923 40.3258 28.7591 40.3258C27.5007 40.3258 26.2437 40.3258 24.9854 40.3258ZM24.9155 45.1656C26.2061 45.1656 27.498 45.1656 28.7886 45.1656C29.3869 45.1656 29.7485 44.8631 29.7606 44.3791C29.7727 43.8951 29.4003 43.5523 28.7833 43.5523C26.2173 43.5523 23.6513 43.5523 21.0853 43.5523C20.483 43.5523 20.1268 43.8494 20.1147 44.3374C20.1026 44.8254 20.4723 45.1602 21.0974 45.1629C22.3665 45.1656 23.641 45.1656 24.9155 45.1656ZM22.1259 46.8057C22.8438 47.8812 23.7889 48.3988 24.9921 48.38C26.1523 48.3625 27.0584 47.8422 27.744 46.8057H22.1259ZM2.40101 45.6254C2.14827 46.2814 1.86326 46.9576 1.63068 47.6419C1.59261 47.7374 1.58269 47.8417 1.60207 47.9426C1.62145 48.0435 1.66934 48.1367 1.74006 48.2113C1.81078 48.2858 1.90137 48.3385 2.00111 48.3632C2.10085 48.3879 2.20557 48.3834 2.30287 48.3504C3.00733 48.1178 3.69162 47.8261 4.36382 47.568L2.40101 45.6254Z" fill="black"/>
<path d="M32.9884 36.2603C34.1204 39.8982 36.4932 41.5733 39.6741 41.0288C42.3817 40.5664 44.3794 38.0201 44.245 35.1821C44.12 32.582 42.0496 29.8758 38.5192 29.8166C38.8298 28.6605 39.1417 27.4935 39.4442 26.3643C39.7009 27.5339 40.3852 28.4427 41.6261 28.8567C42.867 29.2708 43.929 28.9293 44.8876 28.0972L45.9631 29.2386C45.1 30.2361 44.7908 31.4017 45.3218 32.6963C45.8529 33.991 46.8598 34.5919 48.2472 34.6995V36.2657C46.9028 36.3638 45.8677 36.9715 45.3286 38.2607C44.7895 39.55 45.0933 40.7196 46.0007 41.7655L44.8768 42.8545C43.8686 41.9793 42.707 41.6634 41.415 42.1971C40.1231 42.7308 39.5195 43.7337 39.4133 45.1265H37.8444C37.7422 43.7902 37.1412 42.7483 35.8547 42.2065C34.5681 41.6647 33.3998 41.9632 32.3014 42.919C31.9976 42.5883 31.6911 42.2791 31.4168 41.9444C31.3385 41.8255 31.3096 41.6809 31.3362 41.541C31.4333 40.9734 31.3241 40.3897 31.0283 39.8955C30.9598 39.7718 30.8589 39.5957 30.8939 39.4922C31.3675 38.285 32.08 37.1857 32.9884 36.2603Z" fill="#FA8A00"/>
<path d="M39.0439 3.98692C40.4502 2.25535 42.1898 1.18254 44.5344 1.7539C46.4757 2.22712 47.726 3.5137 48.1643 5.47247C48.6765 7.79019 47.5956 9.48815 45.9124 10.8661L39.0439 3.98692Z" fill="#FA8A00"/>
<path d="M11.2649 44.9142C9.65164 45.5353 7.98998 46.1833 6.3189 46.8125C6.24487 46.8283 6.16821 46.8272 6.09465 46.8093C6.02109 46.7914 5.95252 46.7571 5.89408 46.709C5.00678 45.8432 4.13069 44.9657 3.2658 44.0767C3.21888 44.0262 3.18399 43.9657 3.16373 43.8998C3.14348 43.8339 3.13839 43.7643 3.14884 43.6962C3.78339 42.0063 4.43407 40.3231 5.06056 38.6951L11.2649 44.9142Z" fill="white"/>
<path d="M8.76787 39.8298C7.90478 38.964 6.97177 38.031 6.0791 37.141L12.1033 31.1021L14.585 34.0019C12.6653 35.9257 10.7172 37.8764 8.76787 39.8298Z" fill="#FA8A00"/>
<path d="M12.8333 43.8643L10.1445 41.1836L16.0437 35.2683L18.4703 38.2085L12.8333 43.8643Z" fill="#FA8A00"/>
<path d="M35.4474 7.73389L38.1657 10.4576C36.9558 11.6582 35.731 12.8842 34.5359 14.0727L31.2744 11.8813L35.4474 7.73389Z" fill="#FA8A00"/>
<path d="M42.1773 14.5486C40.81 15.9172 39.4132 17.3126 38.0433 18.6826L35.8506 15.3915L39.4334 11.802L42.1773 14.5486Z" fill="#FA8A00"/>
<path d="M44.6387 12.1596L43.5268 13.2458L36.7148 6.42172L37.8213 5.33008L44.6387 12.1596Z" fill="white"/>
<path d="M24.9855 40.3257C26.2438 40.3257 27.5008 40.3257 28.7592 40.3257C29.3924 40.3257 29.7607 40.6282 29.7607 41.1323C29.7607 41.6365 29.391 41.9389 28.7578 41.9389C26.2089 41.9389 23.6599 41.9389 21.1109 41.9389C20.4777 41.9389 20.108 41.6351 20.1094 41.1323C20.1107 40.6295 20.4777 40.3257 21.1123 40.3257C22.4029 40.3257 23.6949 40.3257 24.9855 40.3257Z" fill="white"/>
<path d="M24.9159 45.1655C23.6414 45.1655 22.3616 45.1655 21.0925 45.1655C20.4673 45.1655 20.0963 44.8455 20.1097 44.34C20.1232 43.8346 20.4781 43.5563 21.0804 43.5549C23.6464 43.5549 26.2124 43.5549 28.7783 43.5549C29.4008 43.5549 29.7745 43.8762 29.7611 44.379C29.7476 44.8818 29.3873 45.1655 28.7837 45.1655C27.4985 45.1655 26.2065 45.1655 24.9159 45.1655Z" fill="white"/>
<path d="M2.40126 45.6252L4.35734 47.5746C3.68515 47.8327 3.00085 48.1245 2.2964 48.357C2.19909 48.39 2.09437 48.3945 1.99463 48.3698C1.89489 48.3451 1.8043 48.2924 1.73358 48.2179C1.66286 48.1433 1.61498 48.0501 1.59559 47.9492C1.57621 47.8483 1.58614 47.744 1.6242 47.6485C1.86754 46.9575 2.14851 46.2813 2.40126 45.6252Z" fill="#FF9558"/>
<path d="M38.6081 37.906C38.1278 37.9059 37.6584 37.7629 37.2597 37.4953C36.8609 37.2276 36.5508 36.8473 36.3689 36.4029C36.1869 35.9584 36.1413 35.4699 36.2379 34.9994C36.3345 34.529 36.5689 34.0979 36.9112 33.7611C37.2535 33.4243 37.6884 33.1969 38.1603 33.108C38.6323 33.0191 39.12 33.0726 39.5614 33.2617C40.0029 33.4509 40.3781 33.7671 40.6392 34.1702C40.9004 34.5732 41.0357 35.0449 41.028 35.525C41.0157 36.1594 40.7556 36.7637 40.3033 37.2087C39.851 37.6537 39.2425 37.904 38.6081 37.906ZM39.4147 35.5035C39.4187 35.3437 39.375 35.1862 39.2893 35.0512C39.2036 34.9162 39.0797 34.8097 38.9334 34.7452C38.787 34.6808 38.6248 34.6613 38.4673 34.6892C38.3099 34.7172 38.1643 34.7913 38.049 34.9022C37.9338 35.0131 37.8541 35.1557 37.8201 35.312C37.7861 35.4682 37.7993 35.6311 37.8581 35.7798C37.9169 35.9285 38.0185 36.0565 38.1501 36.1473C38.2817 36.2381 38.4374 36.2878 38.5973 36.29C38.811 36.2947 39.0179 36.2143 39.1724 36.0666C39.3269 35.9189 39.4165 35.7159 39.4214 35.5022L39.4147 35.5035Z" fill="black"/>
<path d="M39.4218 35.5022C39.4193 35.6621 39.3693 35.8177 39.2782 35.9492C39.1871 36.0807 39.0589 36.1821 38.91 36.2406C38.7611 36.299 38.5981 36.3119 38.4419 36.2775C38.2857 36.2431 38.1432 36.1631 38.0325 36.0475C37.9219 35.932 37.8482 35.7861 37.8206 35.6285C37.7931 35.4709 37.8131 35.3087 37.8779 35.1625C37.9428 35.0163 38.0498 34.8927 38.1851 34.8074C38.3204 34.7221 38.4781 34.6789 38.638 34.6834C38.85 34.6894 39.0512 34.7787 39.1979 34.9319C39.3446 35.0852 39.425 35.29 39.4218 35.5022Z" fill="white"/>
</svg>
