<svg width="51" height="50" viewBox="0 0 51 50" fill="none" xmlns="http://www.w3.org/2000/svg">
<path d="M45.7762 50H4.3033C4.2166 49.9628 4.12756 49.9314 4.03676 49.9059C2.92905 49.6772 1.92968 49.0845 1.19772 48.2222C0.555822 47.4886 0.244041 46.6169 0.00195312 45.7035V20.8027C0.25783 20.5138 0.529688 20.2395 0.81625 19.9811C2.69101 18.4641 4.57188 16.9562 6.45886 15.4572C6.58976 15.368 6.69536 15.2465 6.76542 15.1045C6.83547 14.9624 6.8676 14.8047 6.85867 14.6466C6.844 10.2205 6.84889 5.79566 6.84889 1.37083C6.84889 0.310775 7.15701 0.00388469 8.21706 0.00266202H19.3653C19.5286 -0.00395507 19.6921 0.00176879 19.8544 0.0197812C20.0929 0.0423443 20.3143 0.153016 20.4755 0.330172C20.6367 0.507328 20.726 0.738228 20.726 0.977737C20.726 1.21725 20.6367 1.44815 20.4755 1.6253C20.3143 1.80246 20.0929 1.91314 19.8544 1.9357C19.6762 1.95469 19.4968 1.96082 19.3177 1.95404H8.80272V2.31351C8.80272 10.5942 8.80679 18.8749 8.81494 27.1557C8.8345 27.4039 8.94101 27.6373 9.11572 27.8147C11.5937 30.3114 14.0798 32.7975 16.574 35.273C16.6743 35.3732 16.7843 35.4625 16.9286 35.5908C19.1991 33.2421 21.9317 31.9546 25.2036 31.9583L21.9354 28.717C21.7495 28.8857 21.5319 29.1022 21.2947 29.2966C19.9498 30.397 18.4141 30.7955 16.7207 30.397C15.8147 30.1951 14.9786 29.7562 14.2979 29.1252C13.6171 28.4942 13.1162 27.6938 12.8463 26.8057C12.5764 25.9175 12.5473 24.9737 12.7619 24.0706C12.9764 23.1676 13.427 22.3377 14.0675 21.6659C15.1447 20.5129 16.2989 19.4309 17.4042 18.3023C17.6066 18.095 17.7698 17.8526 17.8859 17.5871C18.9741 15.0659 20.0464 12.5387 21.1223 10.0139C22.1551 7.59299 23.189 5.17292 24.2242 2.75366C24.6216 1.82566 25.3369 1.69116 26.0582 2.40642C27.4325 3.77255 28.8027 5.14275 30.1688 6.51703C30.2796 6.64395 30.3786 6.78064 30.4647 6.92541C32.4357 5.97539 34.2134 6.06954 35.6916 7.57464C37.1368 9.04796 37.2261 10.7939 36.2577 12.7343L41.2707 17.669V16.9745C41.2707 16.1443 41.2707 15.3153 41.2707 14.4852C41.2707 13.7406 41.6619 13.2747 42.2586 13.2833C42.8552 13.2918 43.2184 13.754 43.2257 14.5059C43.2337 14.5873 43.2337 14.6692 43.2257 14.7505C43.1523 15.1552 43.348 15.3936 43.661 15.6345C45.5357 17.0691 47.3995 18.5179 49.2522 19.9811C49.5424 20.2351 49.8172 20.5062 50.0751 20.7929V45.6889C50.0381 45.7756 50.0067 45.8647 49.9809 45.9554C49.7519 47.0631 49.1577 48.062 48.2937 48.792C47.5674 49.4474 46.6907 49.7579 45.7762 50ZM43.9263 48.0242C43.8358 47.9202 43.804 47.8799 43.771 47.8469C39.477 43.9539 35.2123 40.0218 30.8792 36.179C27.468 33.1504 22.7509 33.1223 19.2908 36.1056C16.7012 38.3357 14.2118 40.6833 11.6797 42.9807C11.6335 43.0385 11.5926 43.1002 11.5574 43.1653H12.1577C13.5589 43.1653 14.9601 43.1567 16.3612 43.1653C17.156 43.1726 17.623 43.7509 17.4164 44.4332C17.2831 44.8721 16.9017 45.1118 16.2977 45.113C14.114 45.113 11.9303 45.1056 9.74662 45.1264C9.48087 45.1379 9.22602 45.2353 9.02035 45.404C8.15715 46.1474 7.32329 46.9238 6.47965 47.6916C6.38184 47.7809 6.29625 47.886 6.17153 48.0205L43.9263 48.0242ZM1.95578 23.6026V42.6762C1.95578 43.4893 1.93377 44.3036 1.96556 45.1216C2.0108 46.2647 2.56466 47.1108 3.5697 47.7014L15.3684 37.0006L1.95578 23.6026ZM46.5135 47.6892C47.6139 47.0216 48.1286 46.074 48.1274 44.8098C48.12 37.8658 48.12 30.9223 48.1274 23.9792C48.1274 23.8435 48.109 23.7077 48.1029 23.6283L34.7135 36.9945L46.5135 47.6892ZM27.073 32.1747C29.5624 32.6565 31.4893 33.906 33.157 35.5982C33.2536 35.5199 33.3074 35.4833 33.3527 35.438C35.9211 32.8753 38.4887 30.3077 41.0555 27.7352C41.1963 27.5682 41.2738 27.357 41.2743 27.1385C41.289 24.3093 41.2841 21.48 41.2829 18.6508C41.2824 18.573 41.2759 18.4953 41.2633 18.4185C40.9552 18.619 40.6618 18.8745 40.3206 19.0213C35.8677 20.9286 31.4107 22.827 26.9496 24.7164C26.7662 24.7947 26.5828 24.8815 26.3541 24.9879C27.1721 25.8022 27.9326 26.559 28.6919 27.3109C30.3253 28.9395 30.3253 28.9408 28.709 30.5522C28.1857 31.0731 27.6673 31.5878 27.0694 32.1808L27.073 32.1747ZM23.8012 8.78386C23.7832 8.80727 23.768 8.83271 23.7559 8.85967C22.4477 11.9163 21.1455 14.9828 19.8275 18.0395C19.7126 18.3048 19.7872 18.4466 19.9681 18.6263C21.5038 20.1498 23.0342 21.6802 24.5592 23.2175C24.7818 23.4424 24.9603 23.4547 25.2366 23.3397C28.2085 22.0633 31.1836 20.7937 34.1621 19.5311C34.2471 19.4901 34.3288 19.4427 34.4066 19.3893C30.8609 15.8403 27.3257 12.3051 23.8012 8.78386ZM23.0468 24.5807L18.4752 20.019C17.5876 20.9054 16.6669 21.8212 15.7499 22.7431C15.567 22.928 15.3948 23.1231 15.2339 23.3275C14.2558 24.5758 14.3976 26.4453 15.5421 27.6068C16.6865 28.7684 18.6611 28.9909 19.8483 27.9235C21.0049 26.8867 22.0075 25.6799 23.0468 24.5807ZM25.5044 4.75395C25.3063 5.21367 25.118 5.71496 24.8784 6.18936C24.6852 6.57083 24.7145 6.81782 25.0446 7.14304C28.1836 10.2405 31.3088 13.3534 34.42 16.4818C35.0192 17.0797 35.6109 17.6861 36.2247 18.2681C36.3396 18.3769 36.5793 18.4772 36.7064 18.4307C37.3178 18.207 37.9047 17.9319 38.461 17.6971L25.5044 4.75395ZM2.58423 21.0656L6.81343 25.2899V17.6775L2.58423 21.0656ZM43.2661 17.801V25.4146L47.5454 21.1352L43.2661 17.801ZM23.4967 27.1777L26.3003 30.0192L27.4386 29.0178L24.5653 26.169L23.4967 27.1777ZM32.207 8.34859L34.8639 10.9932C34.956 10.6266 34.9513 10.2424 34.8502 9.87821C34.7491 9.514 34.5551 9.18231 34.2872 8.91565C34.0193 8.649 33.6868 8.45653 33.3221 8.35712C32.9574 8.25772 32.5732 8.25478 32.207 8.34859Z" fill="black"/>
<path d="M0 45.7036C0.244534 46.6169 0.553868 47.4924 1.19577 48.2223C1.92891 49.0837 2.92915 49.6751 4.03725 49.9023C4.12806 49.9278 4.21709 49.9592 4.30379 49.9964H0V45.7036Z" fill="white"/>
<path d="M45.7764 50.0001C46.6909 49.7555 47.5676 49.4474 48.2987 48.8067C49.1628 48.0767 49.7569 47.0779 49.986 45.9701C50.0117 45.8794 50.0432 45.7904 50.0802 45.7036V50.0001H45.7764Z" fill="white"/>
<path d="M23.8012 8.78394C27.3307 12.3109 30.867 15.8448 34.4103 19.3857C34.3325 19.4391 34.2508 19.4865 34.1658 19.5275C31.1898 20.7966 28.2147 22.0662 25.2403 23.3361C24.964 23.4584 24.7855 23.4425 24.563 23.2139C23.042 21.6733 21.5116 20.1429 19.9718 18.6227C19.7909 18.443 19.7163 18.3012 19.8312 18.0359C21.1493 14.9792 22.4514 11.9164 23.7597 8.85607C23.7708 8.83056 23.7848 8.80637 23.8012 8.78394Z" fill="#AD00FE"/>
<path d="M23.047 24.5808C22.0078 25.6812 21.004 26.8868 19.8485 27.926C18.6613 28.9934 16.6879 28.7733 15.5423 27.6094C14.3967 26.4454 14.2609 24.5759 15.2342 23.33C15.395 23.1256 15.5673 22.9305 15.7502 22.7456C16.6672 21.8237 17.5842 20.9116 18.4755 20.0215L23.047 24.5808Z" fill="#AD00FE"/>
<path d="M25.505 4.75391L38.4653 17.6934C37.909 17.9379 37.3197 18.2069 36.7108 18.427C36.5885 18.4735 36.344 18.3732 36.2291 18.2644C35.6177 17.6824 35.0235 17.076 34.4244 16.4781C31.3033 13.3619 28.1782 10.249 25.049 7.13933C24.7189 6.8141 24.6895 6.56713 24.8827 6.18565C25.1187 5.71493 25.307 5.21363 25.505 4.75391Z" fill="white"/>
<path d="M43.2666 17.801L47.5459 21.1291L43.2666 25.4085V17.801Z" fill="white"/>
<path d="M23.4971 27.1776L24.5657 26.1689L27.439 29.0178L26.3006 30.0191L23.4971 27.1776Z" fill="white"/>
<path d="M32.207 8.35464C32.5732 8.26082 32.9574 8.26376 33.3221 8.36317C33.6868 8.46257 34.0194 8.65504 34.2872 8.92169C34.5551 9.18835 34.7491 9.52004 34.8502 9.88425C34.9513 10.2485 34.956 10.6327 34.8639 10.9993L32.207 8.35464Z" fill="#AD00FE"/>
<path d="M43.3799 0.957554C43.1757 1.31213 43.0779 1.59945 42.8908 1.79508C41.6502 3.06095 40.3974 4.315 39.1323 5.55723C38.6433 6.03774 38.0711 6.05852 37.6651 5.64893C37.2592 5.23934 37.2714 4.6708 37.7605 4.18173C39.0064 2.92116 40.2657 1.67404 41.5214 0.422025C41.8491 0.0943503 42.2685 -0.0670437 42.6695 0.160373C42.9519 0.321765 43.1353 0.667782 43.3799 0.957554Z" fill="#AD00FE"/>
<path d="M14.1368 12.8992C13.4203 12.8992 12.7026 12.9054 11.9874 12.8992C11.3063 12.8907 10.8686 12.5117 10.8576 11.9419C10.8466 11.3721 11.2953 10.9552 12.0008 10.9515C13.4509 10.9442 14.9002 10.9442 16.3486 10.9515C17.0578 10.9515 17.5089 11.3477 17.504 11.9297C17.4991 12.5117 17.048 12.8919 16.3352 12.898C15.6016 12.9041 14.8692 12.8992 14.1368 12.8992Z" fill="black"/>
<path d="M13.7735 7.43161C13.1707 7.43161 12.5679 7.44017 11.9664 7.43161C11.2915 7.41938 10.8562 7.02813 10.8574 6.45347C10.8586 5.87882 11.2951 5.48879 11.9713 5.4839C13.1939 5.47412 14.4166 5.47412 15.6393 5.4839C16.2812 5.4839 16.7116 5.88371 16.7262 6.43513C16.7409 6.98655 16.2971 7.41327 15.6332 7.43038C15.0145 7.44139 14.3922 7.43161 13.7735 7.43161Z" fill="black"/>
<path d="M41.3211 9.55408C40.9066 9.5333 40.5153 9.53941 40.1314 9.48684C39.9047 9.45547 39.6974 9.34207 39.5487 9.16813C39.4 8.99418 39.3202 8.77175 39.3244 8.54293C39.3193 8.31268 39.4025 8.08919 39.5568 7.91824C39.7112 7.7473 39.925 7.64185 40.1546 7.62349C40.9313 7.58253 41.7096 7.58253 42.4863 7.62349C42.9643 7.65039 43.3006 8.09911 43.2932 8.5625C43.2924 8.7835 43.2131 8.99701 43.0692 9.16481C42.9254 9.3326 42.7265 9.44372 42.5083 9.47828C42.1097 9.54063 41.7013 9.53574 41.3211 9.55408Z" fill="#AD00FE"/>
<path d="M35.6187 2.00656C35.6187 2.34647 35.6432 2.68881 35.6187 3.02627C35.6057 3.26411 35.503 3.48816 35.3312 3.65315C35.1594 3.81814 34.9313 3.91178 34.6932 3.91515C34.2286 3.92615 33.7786 3.60336 33.7456 3.11674C33.6955 2.3587 33.6955 1.59818 33.7456 0.840134C33.7695 0.602946 33.8852 0.384496 34.0679 0.231435C34.2507 0.0783737 34.486 0.00283972 34.7237 0.0209529C34.9525 0.0347481 35.1689 0.129772 35.3339 0.288919C35.4989 0.448066 35.6016 0.660878 35.6236 0.889044C35.6319 0.936755 35.6372 0.984941 35.6395 1.03332C35.6395 1.35936 35.6395 1.68541 35.6395 2.01145L35.6187 2.00656Z" fill="#AD00FE"/>
<path d="M19.345 5.48752C19.5365 5.48346 19.7249 5.53625 19.8863 5.63923C20.0478 5.74221 20.1751 5.89075 20.2521 6.06607C20.3292 6.2414 20.3525 6.43563 20.3192 6.62421C20.2858 6.81279 20.1973 6.98725 20.0648 7.12554C19.9324 7.26382 19.7619 7.35973 19.5749 7.40112C19.3879 7.44251 19.1929 7.42753 19.0144 7.35808C18.8359 7.28863 18.6821 7.16783 18.5723 7.01094C18.4624 6.85405 18.4016 6.66812 18.3975 6.47666C18.4008 6.22244 18.5004 5.97895 18.6763 5.79535C18.8522 5.61176 19.0912 5.50175 19.345 5.48752Z" fill="black"/>
<path d="M21.4734 44.1556C21.4631 44.4098 21.3561 44.6505 21.1743 44.8285C20.9925 45.0064 20.7496 45.1082 20.4952 45.113C20.2489 45.0954 20.0185 44.9844 19.8512 44.8028C19.6838 44.6211 19.5921 44.3824 19.5948 44.1354C19.5974 43.8885 19.6942 43.6518 19.8654 43.4738C20.0366 43.2958 20.2693 43.1898 20.516 43.1775C20.7706 43.1866 21.012 43.2932 21.1902 43.4752C21.3684 43.6573 21.4697 43.9009 21.4734 44.1556Z" fill="black"/>
</svg>
