<svg id="visual" viewBox="0 0 2000 800" width="2000" height="800" xmlns="http://www.w3.org/2000/svg" xmlns:xlink="http://www.w3.org/1999/xlink" version="1.1"><rect x="0" y="0" width="2000" height="800" fill="#002233"></rect><path d="M0 614L47.7 612.8C95.3 611.7 190.7 609.3 285.8 605.3C381 601.3 476 595.7 571.2 583.2C666.3 570.7 761.7 551.3 857 539.7C952.3 528 1047.7 524 1143 537.2C1238.3 550.3 1333.7 580.7 1428.8 606.5C1524 632.3 1619 653.7 1714.2 665.3C1809.3 677 1904.7 679 1952.3 680L2000 681L2000 801L1952.3 801C1904.7 801 1809.3 801 1714.2 801C1619 801 1524 801 1428.8 801C1333.7 801 1238.3 801 1143 801C1047.7 801 952.3 801 857 801C761.7 801 666.3 801 571.2 801C476 801 381 801 285.8 801C190.7 801 95.3 801 47.7 801L0 801Z" fill="#ed1943" stroke-linecap="round" stroke-linejoin="miter"></path></svg>