<svg id="visual" viewBox="0 0 2000 800" width="2000" height="800" xmlns="http://www.w3.org/2000/svg" xmlns:xlink="http://www.w3.org/1999/xlink" version="1.1"><rect x="0" y="0" width="2000" height="800" fill="#002233"></rect><path d="M0 503L47.7 485C95.3 467 190.7 431 285.8 420.5C381 410 476 425 571.2 442.7C666.3 460.3 761.7 480.7 857 464C952.3 447.3 1047.7 393.7 1143 385.7C1238.3 377.7 1333.7 415.3 1428.8 432.2C1524 449 1619 445 1714.2 443.5C1809.3 442 1904.7 443 1952.3 443.5L2000 444L2000 801L1952.3 801C1904.7 801 1809.3 801 1714.2 801C1619 801 1524 801 1428.8 801C1333.7 801 1238.3 801 1143 801C1047.7 801 952.3 801 857 801C761.7 801 666.3 801 571.2 801C476 801 381 801 285.8 801C190.7 801 95.3 801 47.7 801L0 801Z" fill="#ed1943" stroke-linecap="round" stroke-linejoin="miter"></path></svg>